<svg width="17" height="16" viewBox="0 0 17 16" fill="none" xmlns="http://www.w3.org/2000/svg">
<path id="Union" fill-rule="evenodd" clip-rule="evenodd" d="M16.2053 0.299031C16.3868 0.495863 16.4853 0.755083 16.4805 1.02274C16.4757 1.29041 16.3678 1.54589 16.1793 1.73603L12.7113 5.20403L13.7973 6.28403C14.4293 6.91403 13.9833 7.99403 13.0913 7.99403H9.49733C9.23212 7.99403 8.97776 7.88867 8.79023 7.70114C8.60269 7.5136 8.49733 7.25925 8.49733 6.99403V3.41403C8.49733 2.52503 9.57233 2.07803 10.2033 2.70603L11.2973 3.79603L14.8153 0.278031C14.9064 0.185346 15.0153 0.112094 15.1355 0.0627048C15.2557 0.0133158 15.3847 -0.0111847 15.5146 -0.0093152C15.6445 -0.0074457 15.7727 0.020755 15.8915 0.0735816C16.0102 0.126408 16.117 0.202764 16.2053 0.298031V0.299031ZM0.775333 15.7C0.593885 15.5032 0.495328 15.244 0.50017 14.9763C0.505013 14.7087 0.612884 14.4532 0.801333 14.263L4.28333 10.782L3.19733 9.70103C2.56533 9.07103 3.01033 7.99203 3.90233 7.99203H7.49733C7.76255 7.99203 8.0169 8.09739 8.20444 8.28492C8.39198 8.47246 8.49733 8.72681 8.49733 8.99203V12.571C8.49733 13.461 7.42233 13.907 6.79133 13.279L5.69733 12.189L2.16633 15.722C2.07526 15.8147 1.96633 15.888 1.84614 15.9374C1.72594 15.9867 1.59698 16.0112 1.46705 16.0094C1.33712 16.0075 1.20892 15.9793 1.0902 15.9265C0.97148 15.8737 0.864705 15.7973 0.776333 15.702L0.775333 15.7Z" fill="#526ED3"/>
</svg>
