<svg width="401" height="400" viewBox="0 0 401 400" fill="none" xmlns="http://www.w3.org/2000/svg">
<path d="M255.634 144.866C285.009 174.241 303.252 209.032 309.091 241.445C314.932 273.868 308.344 303.656 288.459 323.54C268.575 343.424 238.787 350.013 206.364 344.172C173.952 338.333 139.16 320.09 109.785 290.715C80.4104 261.34 62.1674 226.548 56.3283 194.136C50.4873 161.713 57.0755 131.925 76.9599 112.041C96.8443 92.1564 126.632 85.5682 159.055 91.4092C191.468 97.2483 226.259 115.491 255.634 144.866Z" stroke="#526ED3" stroke-opacity="0.05" stroke-width="5"/>
<path d="M273.424 127.076C302.799 156.45 321.042 191.242 326.881 223.654C332.722 256.077 326.134 285.865 306.25 305.75C286.365 325.634 256.577 332.222 224.154 326.381C191.742 320.542 156.95 302.299 127.576 272.924C98.2009 243.55 79.958 208.758 74.1189 176.346C68.2778 143.923 74.8661 114.135 94.7505 94.2504C114.635 74.366 144.423 67.7777 176.846 73.6188C209.258 79.4579 244.05 97.7009 273.424 127.076Z" stroke="#526ED3" stroke-opacity="0.05" stroke-width="5"/>
<path d="M291.215 109.285C320.589 138.66 338.832 173.452 344.671 205.864C350.512 238.287 343.924 268.075 324.04 287.959C304.155 307.844 274.368 314.432 241.944 308.591C209.532 302.752 174.74 284.509 145.366 255.134C115.991 225.759 97.748 190.968 91.9089 158.555C86.0678 126.132 92.6561 96.3443 112.54 76.4599C132.425 56.5755 162.213 49.9873 194.636 55.8283C227.048 61.6674 261.84 79.9104 291.215 109.285Z" stroke="#526ED3" stroke-opacity="0.05" stroke-width="5"/>
<path fill-rule="evenodd" clip-rule="evenodd" d="M51.4404 273.538C51.4404 269.511 54.5323 265.196 58.3463 263.901L309.721 178.571C311.386 178.006 312.913 178.11 314.105 178.741C314.404 178.828 314.688 178.942 314.956 179.084C315.256 179.171 315.541 179.286 315.809 179.428C316.108 179.515 316.393 179.63 316.661 179.772C316.96 179.859 317.244 179.974 317.512 180.115C317.811 180.202 318.096 180.317 318.364 180.459C318.663 180.546 318.948 180.661 319.216 180.803C319.515 180.89 319.799 181.005 320.067 181.146C320.367 181.233 320.652 181.348 320.92 181.49C321.219 181.577 321.504 181.692 321.772 181.834C322.07 181.921 322.355 182.036 322.622 182.177C322.922 182.264 323.207 182.379 323.475 182.521C323.774 182.608 324.059 182.723 324.326 182.865C324.626 182.951 324.911 183.067 325.179 183.208C325.478 183.295 325.763 183.41 326.031 183.552C326.33 183.639 326.615 183.754 326.882 183.896C327.182 183.983 327.467 184.098 327.735 184.24C328.034 184.327 328.318 184.442 328.586 184.583C328.885 184.67 329.17 184.785 329.438 184.927C329.737 185.014 330.022 185.129 330.29 185.271C330.589 185.358 330.874 185.473 331.141 185.614C331.441 185.701 331.725 185.816 331.993 185.958C332.293 186.045 332.577 186.16 332.845 186.302C333.144 186.389 333.429 186.504 333.697 186.645C333.996 186.732 334.281 186.847 334.549 186.989C334.848 187.076 335.133 187.191 335.401 187.333C335.7 187.42 335.984 187.535 336.252 187.676C336.552 187.763 336.837 187.878 337.105 188.02C337.404 188.107 337.689 188.222 337.957 188.364C338.255 188.451 338.54 188.566 338.807 188.707C339.107 188.794 339.392 188.909 339.66 189.051C339.959 189.138 340.244 189.253 340.511 189.395C340.811 189.482 341.096 189.597 341.364 189.738C341.663 189.825 341.948 189.94 342.215 190.082C342.515 190.169 342.8 190.284 343.068 190.426C343.367 190.513 343.651 190.628 343.919 190.77C344.218 190.856 344.503 190.972 344.771 191.113C345.07 191.2 345.355 191.315 345.623 191.457C345.922 191.544 346.207 191.659 346.475 191.801C346.774 191.888 347.059 192.003 347.326 192.144C347.626 192.231 347.91 192.346 348.178 192.488C348.477 192.575 348.762 192.69 349.03 192.832C349.329 192.919 349.614 193.034 349.882 193.175C350.181 193.262 350.466 193.377 350.734 193.519C351.033 193.606 351.318 193.721 351.586 193.863C351.885 193.95 352.17 194.065 352.437 194.206C352.737 194.293 353.021 194.408 353.289 194.55C353.589 194.637 353.873 194.752 354.141 194.894C354.44 194.981 354.725 195.096 354.992 195.237C355.292 195.324 355.577 195.44 355.845 195.581C356.144 195.668 356.429 195.783 356.697 195.925C356.996 196.012 357.28 196.127 357.547 196.268C357.847 196.355 358.132 196.47 358.4 196.612C358.7 196.699 358.985 196.814 359.253 196.956C359.552 197.043 359.836 197.158 360.104 197.3C360.403 197.387 360.688 197.502 360.956 197.643C361.255 197.73 361.54 197.845 361.808 197.987C362.107 198.074 362.392 198.189 362.659 198.331C362.959 198.418 363.243 198.533 363.511 198.674C363.81 198.761 364.095 198.876 364.363 199.018C364.663 199.105 364.947 199.22 365.215 199.362C365.514 199.449 365.799 199.564 366.066 199.705C366.366 199.792 366.651 199.907 366.919 200.049C367.218 200.136 367.503 200.251 367.771 200.393C368.07 200.48 368.354 200.595 368.622 200.737C368.921 200.823 369.206 200.939 369.474 201.08C369.773 201.167 370.058 201.282 370.326 201.424C370.625 201.511 370.91 201.626 371.177 201.768C371.477 201.854 371.761 201.97 372.029 202.111C372.329 202.198 372.614 202.313 372.882 202.455C373.18 202.542 373.465 202.657 373.732 202.798C374.032 202.885 374.317 203 374.585 203.142C374.885 203.229 375.17 203.344 375.438 203.486C375.737 203.573 376.021 203.688 376.289 203.83C376.588 203.917 376.873 204.032 377.141 204.173C377.44 204.26 377.725 204.375 377.993 204.517C378.292 204.604 378.576 204.719 378.844 204.861C379.143 204.948 379.428 205.063 379.696 205.204C379.996 205.291 380.28 205.407 380.548 205.548C380.847 205.635 381.132 205.75 381.399 205.892C383.42 206.478 384.773 208.35 384.773 211.015C384.773 215.043 381.682 219.357 377.868 220.652L126.493 305.982C124.828 306.547 123.302 306.444 122.109 305.813C121.81 305.726 121.525 305.611 121.257 305.469C120.958 305.382 120.673 305.267 120.406 305.125C120.106 305.039 119.822 304.923 119.554 304.782C119.254 304.695 118.969 304.58 118.701 304.438C118.402 304.351 118.118 304.236 117.85 304.094C117.551 304.008 117.266 303.892 116.998 303.751C116.699 303.664 116.414 303.549 116.146 303.407C115.847 303.32 115.563 303.205 115.295 303.063C114.996 302.977 114.711 302.862 114.444 302.72C114.144 302.633 113.859 302.518 113.59 302.376C113.291 302.289 113.007 302.174 112.739 302.032C112.44 301.945 112.155 301.83 111.887 301.689C111.588 301.602 111.303 301.486 111.035 301.345C110.736 301.258 110.451 301.143 110.184 301.001C109.884 300.914 109.6 300.799 109.332 300.658C109.032 300.571 108.747 300.455 108.48 300.314C108.18 300.227 107.896 300.112 107.628 299.97C107.329 299.883 107.045 299.768 106.777 299.627C106.477 299.54 106.192 299.424 105.924 299.283C105.625 299.196 105.34 299.081 105.073 298.939C104.773 298.852 104.489 298.737 104.221 298.595C103.921 298.509 103.637 298.393 103.369 298.252C103.069 298.165 102.785 298.05 102.517 297.908C102.218 297.821 101.933 297.706 101.665 297.564C101.366 297.477 101.081 297.362 100.813 297.221C100.514 297.134 100.229 297.019 99.9612 296.877C99.6622 296.79 99.3777 296.675 99.1101 296.533C98.811 296.446 98.5266 296.332 98.2589 296.19C97.9589 296.103 97.6736 295.988 97.4053 295.846C97.1061 295.759 96.8215 295.644 96.5538 295.502C96.2548 295.415 95.9704 295.3 95.7028 295.159C95.4031 295.072 95.1181 294.957 94.8499 294.815C94.5508 294.728 94.2664 294.613 93.9987 294.471C93.6994 294.384 93.4147 294.269 93.1469 294.127C92.8474 294.041 92.5626 293.925 92.2946 293.784C91.9955 293.697 91.711 293.582 91.4433 293.44C91.144 293.353 90.8593 293.238 90.5915 293.096C90.2922 293.01 90.0075 292.894 89.7397 292.753C89.4403 292.666 89.1556 292.551 88.8877 292.409C88.5883 292.322 88.3036 292.207 88.0357 292.065C87.7363 291.978 87.4515 291.863 87.1836 291.721C86.8845 291.635 86.6 291.52 86.3324 291.378C86.0331 291.291 85.7484 291.176 85.4805 291.034C85.1812 290.947 84.8965 290.832 84.6287 290.691C84.3291 290.604 84.0443 290.488 83.7763 290.347C83.4772 290.26 83.1928 290.145 82.9252 290.003C82.6258 289.916 82.3411 289.801 82.0733 289.66C81.7741 289.573 81.4895 289.458 81.2218 289.316C80.922 289.229 80.637 289.114 80.3688 288.972C80.0699 288.885 79.7856 288.77 79.5181 288.629C79.2183 288.542 78.9331 288.426 78.6649 288.285C78.3657 288.198 78.0812 288.083 77.8135 287.941C77.5145 287.854 77.2302 287.739 76.9627 287.598C76.6629 287.511 76.3778 287.395 76.1097 287.253C75.8106 287.167 75.5262 287.052 75.2586 286.91C74.9592 286.823 74.6744 286.708 74.4066 286.566C74.1072 286.479 73.8225 286.364 73.5547 286.223C73.2554 286.136 72.9707 286.021 72.7029 285.879C72.4035 285.792 72.1188 285.677 71.851 285.535C71.5515 285.448 71.2666 285.333 70.9987 285.191C70.6996 285.104 70.4151 284.989 70.1475 284.848C69.8482 284.761 69.5634 284.646 69.2956 284.504C68.9961 284.417 68.7113 284.302 68.4433 284.16C68.1443 284.073 67.8598 283.958 67.5922 283.817C67.2928 283.73 67.0081 283.615 66.7403 283.473C66.4409 283.386 66.1562 283.271 65.8884 283.129C65.5892 283.043 65.3046 282.928 65.0369 282.786C64.7371 282.699 64.452 282.584 64.1838 282.442C63.8849 282.355 63.6006 282.24 63.3331 282.099C63.0334 282.012 62.7483 281.896 62.4801 281.754C62.1809 281.668 61.8963 281.552 61.6285 281.411C61.3296 281.324 61.0453 281.209 60.7778 281.068C60.478 280.981 60.1929 280.865 59.9248 280.723C59.6257 280.637 59.3412 280.522 59.0736 280.38C58.7743 280.293 58.4896 280.178 58.2218 280.036C57.9222 279.949 57.6374 279.834 57.3694 279.692C57.0704 279.605 56.7859 279.49 56.5183 279.349C56.2191 279.262 55.9345 279.147 55.6668 279.005C55.367 278.918 55.0819 278.803 54.8137 278.661C52.7935 278.074 51.4404 276.203 51.4404 273.538Z" fill="#4C506F"/>
<rect width="280.049" height="14.5859" rx="7.29293" transform="matrix(0.94693 -0.321439 0 1 119.587 293.741)" fill="#A8CEF1"/>
<mask id="mask0_278_6193" style="mask-type:alpha" maskUnits="userSpaceOnUse" x="56" y="178" width="322" height="114">
<path d="M122.952 291.845L56.0239 266.833L311.315 178.947L377.294 205.512L122.952 291.845Z" fill="#1E212A"/>
</mask>
<g mask="url(#mask0_278_6193)">
<path fill-rule="evenodd" clip-rule="evenodd" d="M672.018 58.4605C670.467 57.8803 668.108 58.1803 666.751 59.1306C665.394 60.0809 665.552 61.3217 667.104 61.902L725.656 83.7937C727.208 84.374 729.566 84.074 730.923 83.1236C732.28 82.1733 732.123 80.9325 730.571 80.3523L672.018 58.4605ZM624.487 74.9259C622.935 74.3456 620.576 74.6456 619.219 75.596C617.862 76.5463 618.02 77.7871 619.572 78.3673L678.124 100.259C679.676 100.839 682.034 100.539 683.391 99.589C684.749 98.6387 684.591 97.3979 683.039 96.8176L624.487 74.9259ZM576.955 90.9745C575.403 90.3943 573.045 90.6943 571.688 91.6446C570.331 92.5949 570.488 93.8357 572.04 94.416L630.593 116.308C632.145 116.888 634.503 116.588 635.86 115.638C637.217 114.687 637.059 113.447 635.508 112.866L576.955 90.9745ZM529.424 107.44C527.872 106.86 525.514 107.16 524.157 108.11C522.799 109.06 522.957 110.301 524.509 110.881L583.061 132.773C584.613 133.353 586.972 133.053 588.329 132.103C589.686 131.153 589.528 129.912 587.976 129.332L529.424 107.44ZM337.078 172.4C338.435 171.45 340.794 171.15 342.346 171.73L400.898 193.622C402.45 194.202 402.608 195.443 401.25 196.393C399.893 197.344 397.535 197.644 395.983 197.063L337.431 175.172C335.879 174.591 335.721 173.351 337.078 172.4ZM294.814 187.779C293.262 187.199 290.903 187.499 289.546 188.449C288.189 189.399 288.347 190.64 289.899 191.22L348.451 213.112C350.003 213.692 352.361 213.392 353.718 212.442C355.076 211.492 354.918 210.251 353.366 209.671L294.814 187.779ZM242.016 204.914C243.373 203.964 245.732 203.664 247.283 204.244L305.836 226.136C307.388 226.716 307.545 227.957 306.188 228.907C304.831 229.858 302.473 230.158 300.921 229.577L242.369 207.686C240.817 207.105 240.659 205.865 242.016 204.914ZM199.752 220.293C198.2 219.713 195.842 220.013 194.484 220.963C193.127 221.913 193.285 223.154 194.837 223.734L253.389 245.626C254.941 246.206 257.299 245.906 258.657 244.956C260.014 244.006 259.856 242.765 258.304 242.185L199.752 220.293ZM146.953 236.595C148.31 235.645 150.668 235.345 152.22 235.925L210.772 257.817C212.324 258.397 212.482 259.638 211.125 260.588C209.768 261.538 207.41 261.838 205.858 261.258L147.305 239.366C145.753 238.786 145.596 237.545 146.953 236.595ZM99.4209 252.644C100.778 251.693 103.136 251.393 104.688 251.973L163.241 273.865C164.793 274.446 164.95 275.686 163.593 276.637C162.236 277.587 159.878 277.887 158.326 277.307L99.7735 255.415C98.2216 254.835 98.0637 253.594 99.4209 252.644ZM52.0244 269.577C53.3816 268.627 55.74 268.327 57.2919 268.907L115.844 290.799C117.396 291.379 117.554 292.62 116.197 293.57C114.839 294.52 112.481 294.82 110.929 294.24L52.377 272.348C50.8251 271.768 50.6672 270.527 52.0244 269.577ZM9.8951 285.84C8.34317 285.26 5.98484 285.56 4.62762 286.51C3.27041 287.461 3.42826 288.702 4.98018 289.282L63.5324 311.174C65.0843 311.754 67.4426 311.454 68.7999 310.503C70.1571 309.553 69.9992 308.312 68.4473 307.732L9.8951 285.84ZM384.609 155.935C385.967 154.985 388.325 154.685 389.877 155.265L448.429 177.157C449.981 177.737 450.139 178.978 448.782 179.928C447.424 180.878 445.066 181.178 443.514 180.598L384.962 158.706C383.41 158.126 383.252 156.885 384.609 155.935ZM432.141 139.886C433.498 138.936 435.856 138.636 437.408 139.216L495.96 161.108C497.512 161.688 497.67 162.929 496.313 163.879C494.956 164.83 492.597 165.13 491.045 164.549L432.493 142.658C430.941 142.077 430.783 140.837 432.141 139.886ZM479.674 123.421C481.031 122.471 483.39 122.17 484.942 122.751L543.494 144.643C545.046 145.223 545.204 146.464 543.846 147.414C542.489 148.364 540.131 148.664 538.579 148.084L480.027 126.192C478.475 125.612 478.317 124.371 479.674 123.421Z" fill="#CFD3D6"/>
</g>
<rect width="62.5109" height="62.5109" transform="matrix(0.951388 -0.307996 -0.0141632 0.9999 163.495 177.802)" fill="#E7E7E7"/>
<rect width="50.0087" height="62.5109" transform="matrix(0.937819 0.347124 -0.0141632 0.9999 222.951 158.548)" fill="#D6D6D6"/>
<rect width="62.5109" height="25.0043" transform="matrix(0.951388 -0.307996 0.602908 0.79781 148.419 157.853)" fill="#C1C1C1"/>
<rect width="62.5109" height="62.5109" transform="matrix(0.951388 -0.307996 -0.0141632 0.9999 210.32 195.06)" fill="#D9D9D9"/>
<rect width="62.5109" height="25.0043" transform="matrix(0.951388 -0.307996 0.602908 0.79781 210.32 195.06)" fill="#C1C1C1"/>
<rect width="50.0087" height="62.5109" transform="matrix(0.937819 0.347124 -0.0141632 0.9999 163.496 177.712)" fill="#EEEEEE"/>
<circle cx="146.167" cy="112" r="26.6667" fill="white" fill-opacity="0.4"/>
<path d="M157.173 105.333L146.802 99.4995C146.407 99.278 145.926 99.278 145.531 99.4995L135.161 105.333C134.753 105.563 134.5 105.994 134.5 106.463C134.5 112.956 137.425 118.702 142.959 123.078L145.362 124.979C145.598 125.166 145.882 125.259 146.167 125.259C146.451 125.259 146.735 125.166 146.971 124.979L149.374 123.078C154.908 118.702 157.833 112.956 157.833 106.463C157.833 105.994 157.581 105.563 157.173 105.333ZM151.167 109.075L147.278 115.557C147.073 115.898 146.721 116.128 146.325 116.176C146.272 116.183 146.219 116.186 146.167 116.186C145.825 116.186 145.494 116.051 145.25 115.806L142.658 113.213C142.151 112.707 142.151 111.887 142.658 111.38C143.164 110.874 143.984 110.874 144.491 111.38L145.909 112.799L148.944 107.741C149.312 107.126 150.109 106.927 150.723 107.297C151.337 107.665 151.535 108.461 151.167 109.075Z" fill="#4AC99B" fill-opacity="0.7"/>
<circle cx="213.5" cy="93.3333" r="26.6667" fill="white" fill-opacity="0.4"/>
<path d="M202 99.4815C202 99.9726 202.277 100.421 202.717 100.641L213.019 105.963V93.4006L202 87.8914V99.4815Z" fill="#FF7043" fill-opacity="0.7"/>
<path d="M214.247 81.4701C213.882 81.2878 213.452 81.2878 213.087 81.4701C213.087 81.4701 202.636 86.7122 202.595 86.7394L213.667 92.2759L224.739 86.7394C224.697 86.7122 214.247 81.4701 214.247 81.4701Z" fill="#FF7043" fill-opacity="0.7"/>
<path d="M214.315 105.963L224.617 100.641C225.056 100.421 225.333 99.9726 225.333 99.4815V87.8914L214.315 93.4006V105.963Z" fill="#FF7043" fill-opacity="0.7"/>
<circle cx="269.5" cy="136.667" r="26.6667" fill="white" fill-opacity="0.4"/>
<path d="M284.029 131.297L277.362 128.083C277.133 127.973 276.867 127.973 276.638 128.083L269.971 131.297C269.683 131.436 269.5 131.728 269.5 132.047C269.5 136.387 271.48 140.467 274.933 143.241L276.478 144.483C276.631 144.605 276.815 144.667 277 144.667C277.185 144.667 277.369 144.605 277.522 144.483L279.067 143.241C282.52 140.467 284.5 136.387 284.5 132.047C284.5 131.728 284.317 131.436 284.029 131.297ZM277.025 140.5C276.565 140.5 276.188 140.127 276.188 139.667C276.188 139.206 276.556 138.833 277.016 138.833H277.025C277.485 138.833 277.859 139.206 277.859 139.667C277.859 140.127 277.485 140.5 277.025 140.5ZM278.478 135.85C278.237 136.027 277.833 136.404 277.833 136.948V137.167C277.833 137.627 277.461 138 277 138C276.539 138 276.167 137.627 276.167 137.167V136.948C276.167 136.013 276.65 135.123 277.492 134.506C277.709 134.347 277.833 134.102 277.833 133.833C277.833 133.374 277.46 133 277 133C276.54 133 276.167 133.374 276.167 133.833C276.167 134.294 275.794 134.667 275.333 134.667C274.873 134.667 274.5 134.294 274.5 133.833C274.5 132.455 275.621 131.333 277 131.333C278.379 131.333 279.5 132.455 279.5 133.833C279.5 134.626 279.118 135.38 278.478 135.85Z" fill="#BD65A4" fill-opacity="0.7"/>
<path d="M275.956 145.132L274.411 143.89C270.76 140.957 268.667 136.641 268.667 132.047C268.667 131.412 269.036 130.823 269.609 130.546L276.276 127.332C276.502 127.224 276.752 127.167 277 127.167C277.248 127.167 277.498 127.224 277.722 127.331L277.833 127.385V125.5C277.833 125.04 277.46 124.667 277 124.667H262C261.539 124.667 261.167 125.04 261.167 125.5V147.167C261.167 147.627 261.539 148 262 148H277C277.46 148 277.833 147.627 277.833 147.167V145.274C277.581 145.42 277.293 145.5 277 145.5C276.621 145.5 276.25 145.369 275.956 145.132ZM266.756 144.423L265.089 146.089C264.926 146.252 264.713 146.333 264.5 146.333C264.287 146.333 264.073 146.252 263.911 146.089L263.077 145.256C262.752 144.93 262.752 144.403 263.077 144.077C263.403 143.752 263.93 143.752 264.256 144.077L264.5 144.322L265.577 143.244C265.903 142.919 266.43 142.919 266.756 143.244C267.081 143.57 267.081 144.097 266.756 144.423ZM266.756 139.911C267.081 140.236 267.081 140.764 266.756 141.089C266.593 141.252 266.38 141.333 266.167 141.333C265.953 141.333 265.74 141.252 265.577 141.089L264.917 140.428L264.256 141.089C264.093 141.252 263.88 141.333 263.667 141.333C263.453 141.333 263.24 141.252 263.077 141.089C262.752 140.764 262.752 140.236 263.077 139.911L263.738 139.25L263.077 138.589C262.752 138.264 262.752 137.736 263.077 137.411C263.403 137.085 263.93 137.085 264.256 137.411L264.917 138.072L265.577 137.411C265.903 137.085 266.43 137.085 266.756 137.411C267.081 137.736 267.081 138.264 266.756 138.589L266.095 139.25L266.756 139.911ZM266.756 132.756L265.089 134.423C264.926 134.585 264.713 134.667 264.5 134.667C264.287 134.667 264.073 134.585 263.911 134.423L263.077 133.589C262.752 133.264 262.752 132.736 263.077 132.411C263.403 132.085 263.93 132.085 264.256 132.411L264.5 132.655L265.577 131.577C265.903 131.252 266.43 131.252 266.756 131.577C267.081 131.903 267.081 132.43 266.756 132.756ZM266.756 127.756L265.089 129.423C264.926 129.585 264.713 129.667 264.5 129.667C264.287 129.667 264.073 129.585 263.911 129.423L263.077 128.589C262.752 128.264 262.752 127.736 263.077 127.411C263.403 127.085 263.93 127.085 264.256 127.411L264.5 127.655L265.577 126.577C265.903 126.252 266.43 126.252 266.756 126.577C267.081 126.903 267.081 127.43 266.756 127.756Z" fill="#BD65A4" fill-opacity="0.7"/>
</svg>
