<svg width="198" height="198" viewBox="0 0 198 198" fill="none" xmlns="http://www.w3.org/2000/svg">
<g filter="url(#filter0_d_1_7286)">
<circle cx="99" cy="69" r="39" fill="white"/>
</g>
<path d="M120.513 72.4215L118.04 64.8112L113.139 49.7281C112.887 48.9526 111.789 48.9526 111.537 49.7281L106.636 64.8112H90.3634L85.4626 49.7281C85.2105 48.9526 84.1126 48.9526 83.8605 49.7281L78.9601 64.8116L76.4868 72.4215C76.3768 72.7599 76.3768 73.1243 76.4867 73.4627C76.5966 73.8011 76.8108 74.096 77.0986 74.3052L98.4999 89.8534L119.901 74.3048C120.189 74.0956 120.403 73.8008 120.513 73.4625C120.623 73.1242 120.623 72.7598 120.513 72.4215" fill="#FC6D26"/>
<path d="M98.4998 89.8533L106.636 64.8115H90.3633L98.4998 89.853V89.8533Z" fill="#E24329"/>
<path d="M98.4998 89.8533L90.3632 64.8115H78.96L98.4998 89.853V89.8533Z" fill="#FC6D26"/>
<path d="M78.96 64.8112L76.4864 72.4214C76.3764 72.7597 76.3763 73.1242 76.4862 73.4625C76.5961 73.8008 76.8103 74.0957 77.0981 74.3048L98.4998 89.8533L78.96 64.8115V64.8112Z" fill="#FCA326"/>
<path d="M78.96 64.8112H90.3632L85.4625 49.7281C85.2104 48.9526 84.1125 48.9526 83.8604 49.7281L78.96 64.8116V64.8112Z" fill="#E24329"/>
<path d="M98.5 89.8533L106.637 64.8115H118.04L98.5 89.853V89.8533Z" fill="#FC6D26"/>
<path d="M118.04 64.8112L120.513 72.4214C120.623 72.7597 120.623 73.1242 120.513 73.4625C120.403 73.8008 120.189 74.0957 119.901 74.3048L98.5 89.8533L118.04 64.8115V64.8112Z" fill="#FCA326"/>
<path d="M118.04 64.8112H106.637L111.538 49.7285C111.79 48.953 112.887 48.953 113.14 49.7285L118.04 64.8116L118.04 64.8112Z" fill="#E24329"/>
<defs>
<filter id="filter0_d_1_7286" x="0" y="0" width="198" height="198" filterUnits="userSpaceOnUse" color-interpolation-filters="sRGB">
<feFlood flood-opacity="0" result="BackgroundImageFix"/>
<feColorMatrix in="SourceAlpha" type="matrix" values="0 0 0 0 0 0 0 0 0 0 0 0 0 0 0 0 0 0 127 0" result="hardAlpha"/>
<feOffset dy="30"/>
<feGaussianBlur stdDeviation="30"/>
<feComposite in2="hardAlpha" operator="out"/>
<feColorMatrix type="matrix" values="0 0 0 0 0.344915 0 0 0 0 0.309028 0 0 0 0 0.432639 0 0 0 0.15 0"/>
<feBlend mode="normal" in2="BackgroundImageFix" result="effect1_dropShadow_1_7286"/>
<feBlend mode="normal" in="SourceGraphic" in2="effect1_dropShadow_1_7286" result="shape"/>
</filter>
</defs>
</svg>
