<svg width="146" height="36" viewBox="0 0 146 36" fill="none" xmlns="http://www.w3.org/2000/svg">
<path d="M11.8764 0.216413C10.806 0.228626 9.82328 0.810242 9.29749 1.74265L0.852703 16.7183C0.325209 17.6538 0.337972 18.7998 0.886164 19.7233L9.66526 34.5122C10.2119 35.433 11.2079 35.9926 12.2786 35.9806L29.5177 35.7871C30.5884 35.775 31.5716 35.1932 32.0974 34.2604L40.5405 19.2817C41.0678 18.3462 41.0549 17.2003 40.5067 16.277L31.726 1.48796C31.1792 0.567095 30.183 0.00752496 29.1122 0.0197442L11.8764 0.216413ZM19.6262 11.6413C17.8896 11.0527 16.036 12.146 15.7108 13.9505L13.7231 24.981C13.2306 27.7144 9.60831 28.3685 8.1908 25.9801L4.45381 19.6835C3.90578 18.7601 3.89307 17.6142 4.42048 16.6789L11.1138 4.80854C11.6395 3.87625 12.6221 3.29464 13.6923 3.28225L27.3633 3.12395C28.4347 3.11154 29.4313 3.67143 29.978 4.59283L33.6799 10.8315C35.1014 13.2269 32.775 16.0977 30.137 15.2036L19.6262 11.6413Z" fill="#E7716A"/>
<path d="M59.9431 27.875C58.6097 27.875 57.4056 27.6417 56.3306 27.175C55.2639 26.7 54.3847 26.025 53.6931 25.15C53.0097 24.2667 52.5764 23.2167 52.3931 22L55.9431 21.475C56.1931 22.5083 56.7097 23.3042 57.4931 23.8625C58.2764 24.4208 59.1681 24.7 60.1681 24.7C60.7264 24.7 61.2681 24.6125 61.7931 24.4375C62.3181 24.2625 62.7472 24.0042 63.0806 23.6625C63.4222 23.3208 63.5931 22.9 63.5931 22.4C63.5931 22.2167 63.5639 22.0417 63.5056 21.875C63.4556 21.7 63.3681 21.5375 63.2431 21.3875C63.1181 21.2375 62.9389 21.0958 62.7056 20.9625C62.4806 20.8292 62.1931 20.7083 61.8431 20.6L57.1681 19.225C56.8181 19.125 56.4097 18.9833 55.9431 18.8C55.4847 18.6167 55.0389 18.3542 54.6056 18.0125C54.1722 17.6708 53.8097 17.2208 53.5181 16.6625C53.2347 16.0958 53.0931 15.3833 53.0931 14.525C53.0931 13.3167 53.3972 12.3125 54.0056 11.5125C54.6139 10.7125 55.4264 10.1167 56.4431 9.725C57.4597 9.33333 58.5847 9.14167 59.8181 9.15C61.0597 9.16667 62.1681 9.37917 63.1431 9.7875C64.1181 10.1958 64.9347 10.7917 65.5931 11.575C66.2514 12.35 66.7264 13.3 67.0181 14.425L63.3431 15.05C63.2097 14.4667 62.9639 13.975 62.6056 13.575C62.2472 13.175 61.8181 12.8708 61.3181 12.6625C60.8264 12.4542 60.3097 12.3417 59.7681 12.325C59.2347 12.3083 58.7306 12.3833 58.2556 12.55C57.7889 12.7083 57.4056 12.9417 57.1056 13.25C56.8139 13.5583 56.6681 13.925 56.6681 14.35C56.6681 14.7417 56.7889 15.0625 57.0306 15.3125C57.2722 15.5542 57.5764 15.75 57.9431 15.9C58.3097 16.05 58.6847 16.175 59.0681 16.275L62.1931 17.125C62.6597 17.25 63.1764 17.4167 63.7431 17.625C64.3097 17.825 64.8514 18.1083 65.3681 18.475C65.8931 18.8333 66.3222 19.3083 66.6556 19.9C66.9972 20.4917 67.1681 21.2417 67.1681 22.15C67.1681 23.1167 66.9639 23.9625 66.5556 24.6875C66.1556 25.4042 65.6139 26 64.9306 26.475C64.2472 26.9417 63.4722 27.2917 62.6056 27.525C61.7472 27.7583 60.8597 27.875 59.9431 27.875ZM76.1905 27.875C74.8072 27.875 73.5864 27.5792 72.528 26.9875C71.478 26.3875 70.653 25.5667 70.053 24.525C69.4614 23.475 69.1655 22.275 69.1655 20.925C69.1655 19.45 69.4572 18.1667 70.0405 17.075C70.6239 15.9833 71.428 15.1375 72.453 14.5375C73.478 13.9292 74.6572 13.625 75.9905 13.625C77.4072 13.625 78.6114 13.9583 79.603 14.625C80.5947 15.2917 81.328 16.2292 81.803 17.4375C82.278 18.6458 82.4447 20.0667 82.303 21.7H78.9405V20.45C78.9405 19.075 78.7197 18.0875 78.278 17.4875C77.8447 16.8792 77.1322 16.575 76.1405 16.575C74.9822 16.575 74.128 16.9292 73.578 17.6375C73.0364 18.3375 72.7655 19.375 72.7655 20.75C72.7655 22.0083 73.0364 22.9833 73.578 23.675C74.128 24.3583 74.9322 24.7 75.9905 24.7C76.6572 24.7 77.228 24.5542 77.703 24.2625C78.178 23.9708 78.5405 23.55 78.7905 23L82.1905 23.975C81.6822 25.2083 80.878 26.1667 79.778 26.85C78.6864 27.5333 77.4905 27.875 76.1905 27.875ZM71.7155 21.7V19.175H80.6655V21.7H71.7155ZM85.1005 27.5L85.1255 9.5H88.5755V20.5L93.1505 14H97.3505L92.4755 20.75L97.6755 27.5H93.2505L88.5755 21V27.5H85.1005ZM106.644 27.875C104.844 27.875 103.29 27.4833 101.982 26.7C100.682 25.9167 99.6778 24.8208 98.9694 23.4125C98.2694 22.0042 97.9194 20.3667 97.9194 18.5C97.9194 16.6333 98.2694 14.9958 98.9694 13.5875C99.6778 12.1792 100.682 11.0833 101.982 10.3C103.29 9.51667 104.844 9.125 106.644 9.125C108.444 9.125 109.994 9.51667 111.294 10.3C112.603 11.0833 113.607 12.1792 114.307 13.5875C115.015 14.9958 115.369 16.6333 115.369 18.5C115.369 20.3667 115.015 22.0042 114.307 23.4125C113.607 24.8208 112.603 25.9167 111.294 26.7C109.994 27.4833 108.444 27.875 106.644 27.875ZM106.644 24.675C107.786 24.6917 108.736 24.4458 109.494 23.9375C110.253 23.4292 110.819 22.7083 111.194 21.775C111.578 20.8417 111.769 19.75 111.769 18.5C111.769 17.25 111.578 16.1667 111.194 15.25C110.819 14.3333 110.253 13.6208 109.494 13.1125C108.736 12.6042 107.786 12.3417 106.644 12.325C105.503 12.3083 104.553 12.5542 103.794 13.0625C103.036 13.5708 102.465 14.2917 102.082 15.225C101.707 16.1583 101.519 17.25 101.519 18.5C101.519 19.75 101.707 20.8333 102.082 21.75C102.465 22.6667 103.036 23.3792 103.794 23.8875C104.553 24.3958 105.503 24.6583 106.644 24.675ZM124.49 27.875C123.148 27.875 122.027 27.5625 121.127 26.9375C120.227 26.3125 119.548 25.4625 119.09 24.3875C118.64 23.3125 118.415 22.1 118.415 20.75C118.415 19.4 118.64 18.1875 119.09 17.1125C119.54 16.0375 120.202 15.1875 121.077 14.5625C121.952 13.9375 123.031 13.625 124.315 13.625C125.606 13.625 126.731 13.9333 127.69 14.55C128.648 15.1667 129.39 16.0125 129.915 17.0875C130.448 18.1542 130.715 19.375 130.715 20.75C130.715 22.1 130.452 23.3125 129.927 24.3875C129.411 25.4625 128.686 26.3125 127.752 26.9375C126.819 27.5625 125.731 27.875 124.49 27.875ZM117.84 33.5V14H120.84V23.25H121.265V33.5H117.84ZM123.94 24.85C124.673 24.85 125.273 24.6667 125.74 24.3C126.206 23.9333 126.552 23.4417 126.777 22.825C127.002 22.2 127.115 21.5083 127.115 20.75C127.115 20 126.998 19.3167 126.765 18.7C126.531 18.075 126.169 17.5792 125.677 17.2125C125.194 16.8375 124.573 16.65 123.815 16.65C123.106 16.65 122.531 16.8208 122.09 17.1625C121.656 17.5042 121.34 17.9833 121.14 18.6C120.94 19.2167 120.84 19.9333 120.84 20.75C120.84 21.5667 120.94 22.2833 121.14 22.9C121.34 23.5167 121.665 23.9958 122.115 24.3375C122.573 24.6792 123.181 24.85 123.94 24.85ZM138.374 27.875C136.674 27.875 135.299 27.4917 134.249 26.725C133.207 25.95 132.574 24.8583 132.349 23.45L135.824 22.925C135.966 23.5583 136.278 24.0542 136.762 24.4125C137.253 24.7708 137.874 24.95 138.624 24.95C139.241 24.95 139.716 24.8333 140.049 24.6C140.382 24.3583 140.549 24.025 140.549 23.6C140.549 23.3333 140.482 23.1208 140.349 22.9625C140.216 22.7958 139.916 22.6333 139.449 22.475C138.991 22.3167 138.274 22.1083 137.299 21.85C136.199 21.5667 135.32 21.25 134.662 20.9C134.003 20.55 133.528 20.1333 133.237 19.65C132.945 19.1583 132.799 18.5667 132.799 17.875C132.799 17.0083 133.02 16.2583 133.462 15.625C133.903 14.9833 134.524 14.4917 135.324 14.15C136.132 13.8 137.082 13.625 138.174 13.625C139.232 13.625 140.17 13.7875 140.987 14.1125C141.803 14.4375 142.462 14.9 142.962 15.5C143.47 16.1 143.782 16.8083 143.899 17.625L140.424 18.25C140.366 17.75 140.149 17.3542 139.774 17.0625C139.399 16.7708 138.891 16.6 138.249 16.55C137.624 16.5083 137.12 16.5917 136.737 16.8C136.362 17.0083 136.174 17.3083 136.174 17.7C136.174 17.9333 136.253 18.1292 136.412 18.2875C136.578 18.4458 136.916 18.6083 137.424 18.775C137.941 18.9417 138.724 19.1583 139.774 19.425C140.799 19.6917 141.62 20.0042 142.237 20.3625C142.862 20.7125 143.316 21.1375 143.599 21.6375C143.882 22.1292 144.024 22.725 144.024 23.425C144.024 24.8083 143.524 25.8958 142.524 26.6875C141.524 27.4792 140.141 27.875 138.374 27.875Z" fill="#222222"/>
</svg>
