<svg width="190" height="190" viewBox="0 0 190 190" fill="none" xmlns="http://www.w3.org/2000/svg">
<g filter="url(#filter0_d_1_7289)">
<circle cx="95" cy="65" r="35" fill="white"/>
</g>
<g clip-path="url(#clip0_1_7289)">
<path d="M115 65C115 66.2098 114.892 67.3943 114.687 68.5445C113.014 77.8996 104.836 85 95 85C87.5894 85 81.12 80.9698 77.6653 74.9813C76.822 73.5209 76.1592 71.9445 75.7053 70.2816C75.2449 68.5992 75 66.8277 75 65C75 53.9543 83.9543 45 95 45C104.117 45 111.808 51.0996 114.217 59.4408C114.727 61.2057 115 63.071 115 65Z" fill="#6181B6"/>
<path d="M85.1695 58.9249H77.8038L75.7051 70.2816C76.159 71.9445 76.8218 73.5209 77.6651 74.9813H78.3484L79.1614 70.5829H83.2087C88.1369 70.5829 89.4618 66.1584 89.7794 63.9853C90.0977 61.8131 88.5084 58.9249 85.1695 58.9249ZM86.2381 64.3518C86.0577 65.5837 85.1475 68.0922 82.3541 68.0922H79.6218L80.843 61.4824H83.6243C86.3353 61.4824 86.4185 63.12 86.2381 64.3518Z" fill="white"/>
<path d="M114.217 59.4409C113.591 59.1176 112.844 58.9249 111.982 58.9249H104.617L101.649 74.9813H105.161L105.974 70.583H110.022C112.213 70.583 113.693 69.7079 114.686 68.5446C114.892 67.3944 115 66.2098 115 65.0001C115 63.0711 114.726 61.2058 114.217 59.4409ZM113.051 64.3519C112.871 65.5838 111.96 68.0923 109.166 68.0923H106.435L107.656 61.4825H110.437C113.148 61.4825 113.231 63.1201 113.051 64.3519Z" fill="white"/>
<path d="M99.159 58.9781C97.7297 58.9781 95.8228 58.9781 94.8936 58.9781L95.6943 54.646H92.1969L89.2295 70.7019H92.7268L94.4333 61.4687C95.0638 61.4687 95.9013 61.4687 96.6685 61.4687C98.1521 61.4687 99.159 61.7866 98.947 63.1644C98.735 64.5421 97.5163 70.6359 97.5163 70.6359H101.067C101.067 70.6359 102.444 63.8533 102.656 61.9455C102.868 60.0379 101.12 58.9781 99.159 58.9781Z" fill="white"/>
</g>
<defs>
<filter id="filter0_d_1_7289" x="0" y="0" width="190" height="190" filterUnits="userSpaceOnUse" color-interpolation-filters="sRGB">
<feFlood flood-opacity="0" result="BackgroundImageFix"/>
<feColorMatrix in="SourceAlpha" type="matrix" values="0 0 0 0 0 0 0 0 0 0 0 0 0 0 0 0 0 0 127 0" result="hardAlpha"/>
<feOffset dy="30"/>
<feGaussianBlur stdDeviation="30"/>
<feComposite in2="hardAlpha" operator="out"/>
<feColorMatrix type="matrix" values="0 0 0 0 0.344915 0 0 0 0 0.309028 0 0 0 0 0.432639 0 0 0 0.15 0"/>
<feBlend mode="normal" in2="BackgroundImageFix" result="effect1_dropShadow_1_7289"/>
<feBlend mode="normal" in="SourceGraphic" in2="effect1_dropShadow_1_7289" result="shape"/>
</filter>
<clipPath id="clip0_1_7289">
<rect width="40" height="40" fill="white" transform="translate(75 45)"/>
</clipPath>
</defs>
</svg>
