<svg width="179" height="179" viewBox="0 0 179 179" fill="none" xmlns="http://www.w3.org/2000/svg">
<g filter="url(#filter0_d_1_7280)">
<circle cx="89.5" cy="59.5" r="29.5" fill="white"/>
</g>
<path d="M90 62.5625C91.9675 62.5625 93.5625 60.9675 93.5625 59C93.5625 57.0325 91.9675 55.4375 90 55.4375C88.0325 55.4375 86.4375 57.0325 86.4375 59C86.4375 60.9675 88.0325 62.5625 90 62.5625Z" fill="#29D1FF"/>
<path d="M103.531 53.125C102.844 52.875 102.125 52.625 101.375 52.4063C101.562 51.6563 101.719 50.9062 101.844 50.1875C102.5 46.0625 101.781 43.1562 99.7812 42.0312C99.1875 41.6875 98.5312 41.5312 97.7812 41.5312C95.5938 41.5312 92.8125 43.1562 90 45.875C87.1875 43.1562 84.4062 41.5312 82.2187 41.5312C81.4687 41.5312 80.8125 41.6875 80.2188 42.0312C78.2188 43.1875 77.5 46.0937 78.1562 50.1875C78.2813 50.9062 78.4375 51.6563 78.625 52.4063C77.875 52.625 77.1563 52.8438 76.4688 53.125C72.5625 54.625 70.4375 56.6875 70.4375 59C70.4375 61.3125 72.5938 63.375 76.4688 64.875C77.1563 65.125 77.875 65.375 78.625 65.5938C78.4375 66.3438 78.2813 67.0938 78.1562 67.8125C77.5 71.9375 78.2188 74.8438 80.2188 75.9688C80.8125 76.3125 81.4687 76.4688 82.2187 76.4688C84.4375 76.4688 87.2188 74.8438 90 72.125C92.8125 74.8438 95.5938 76.4688 97.7812 76.4688C98.5312 76.4688 99.1875 76.3125 99.7812 75.9688C101.781 74.8125 102.5 71.9062 101.844 67.8125C101.719 67.0938 101.562 66.3438 101.375 65.5938C102.125 65.375 102.844 65.1563 103.531 64.875C107.438 63.375 109.562 61.3125 109.562 59C109.562 56.6875 107.438 54.625 103.531 53.125ZM98.9062 43.5937C100.188 44.3437 100.625 46.6562 100.094 49.9375C100 50.5938 99.8438 51.2812 99.6562 52C98.0312 51.625 96.3125 51.375 94.5 51.2187C93.4375 49.7187 92.3438 48.375 91.25 47.1562C93.5625 44.875 95.9062 43.3125 97.8125 43.3125C98.2188 43.3125 98.5938 43.4062 98.9062 43.5937ZM95.4062 62.125C94.8438 63.125 94.1875 64.125 93.5 65.125C92.3437 65.2188 91.1875 65.25 90 65.25C88.7812 65.25 87.625 65.2188 86.5 65.125C85.8125 64.125 85.1875 63.125 84.625 62.125C84.0312 61.0938 83.4688 60.0312 82.9688 59C83.4688 57.9688 84.0312 56.9062 84.625 55.875C85.1875 54.875 85.8438 53.875 86.5312 52.875C87.6875 52.7813 88.8438 52.75 90.0312 52.75C91.25 52.75 92.4062 52.7813 93.5312 52.875C94.2188 53.875 94.8438 54.875 95.4062 55.875C96 56.9062 96.5625 57.9688 97.0625 59C96.5312 60.0312 96 61.0625 95.4062 62.125ZM98 61.0938C98.4688 62.1875 98.8438 63.25 99.1875 64.3125C98.125 64.5625 97 64.75 95.8125 64.9062C96.1875 64.3125 96.5937 63.6875 96.9375 63.0312C97.3125 62.375 97.6562 61.7188 98 61.0938ZM90 69.5625C89.25 68.75 88.5312 67.875 87.8438 66.9688C88.5625 67 89.2812 67.0312 90 67.0312C90.7188 67.0312 91.4375 67 92.1562 66.9688C91.4688 67.875 90.75 68.75 90 69.5625ZM84.1875 64.875C83 64.7188 81.875 64.5313 80.8125 64.2812C81.1562 63.25 81.5312 62.1562 82 61.0625C82.3438 61.6875 82.6875 62.3438 83.0625 62.9688C83.4375 63.6562 83.8125 64.25 84.1875 64.875ZM82 56.9062C81.5312 55.8125 81.1562 54.75 80.8125 53.6875C81.875 53.4375 83 53.25 84.1875 53.0938C83.8125 53.6875 83.4062 54.3125 83.0625 54.9688C82.6875 55.625 82.3438 56.2812 82 56.9062ZM90 48.4375C90.75 49.25 91.4688 50.125 92.1562 51.0312C91.4375 51 90.7188 50.9688 90 50.9688C89.2812 50.9688 88.5625 51 87.8438 51.0312C88.5312 50.125 89.25 49.25 90 48.4375ZM96.9375 55L95.8125 53.125C97 53.2812 98.125 53.4688 99.1875 53.7188C98.8438 54.75 98.4688 55.8438 98 56.9375C97.6562 56.2813 97.3125 55.625 96.9375 55ZM79.9062 49.9375C79.375 46.6562 79.8125 44.3437 81.0938 43.5937C81.4062 43.4062 81.7812 43.3125 82.1875 43.3125C84.0625 43.3125 86.4062 44.8438 88.75 47.1562C87.6562 48.3438 86.5625 49.7187 85.5 51.2187C83.6875 51.375 81.9688 51.6562 80.3438 52C80.1562 51.2812 80.0312 50.5938 79.9062 49.9375ZM72.1875 59C72.1875 57.5312 73.9688 55.9688 77.0938 54.8125C77.7188 54.5625 78.4062 54.3438 79.0938 54.1562C79.5938 55.7188 80.2187 57.375 80.9687 59.0312C80.2187 60.6875 79.5625 62.3125 79.0938 63.875C74.7812 62.625 72.1875 60.75 72.1875 59ZM81.0938 74.4062C79.8125 73.6562 79.375 71.3438 79.9062 68.0625C80 67.4062 80.1562 66.7188 80.3438 66C81.9688 66.375 83.6875 66.625 85.5 66.7812C86.5625 68.2813 87.6562 69.625 88.75 70.8438C86.4375 73.125 84.0937 74.6875 82.1875 74.6875C81.7812 74.6875 81.4062 74.5938 81.0938 74.4062ZM100.094 68.0625C100.625 71.3438 100.188 73.6562 98.9062 74.4062C98.5938 74.5938 98.2188 74.6875 97.8125 74.6875C95.9375 74.6875 93.5938 73.1563 91.25 70.8438C92.3438 69.6563 93.4375 68.2813 94.5 66.7812C96.3125 66.625 98.0312 66.3438 99.6562 66C99.8438 66.7188 99.9688 67.4062 100.094 68.0625ZM102.906 63.1875C102.281 63.4375 101.594 63.6562 100.906 63.8438C100.406 62.2812 99.7812 60.625 99.0312 58.9688C99.7812 57.3125 100.438 55.6875 100.906 54.125C105.219 55.375 107.812 57.25 107.812 59C107.812 60.4688 106 62.0312 102.906 63.1875Z" fill="#29D1FF"/>
<defs>
<filter id="filter0_d_1_7280" x="0" y="0" width="179" height="179" filterUnits="userSpaceOnUse" color-interpolation-filters="sRGB">
<feFlood flood-opacity="0" result="BackgroundImageFix"/>
<feColorMatrix in="SourceAlpha" type="matrix" values="0 0 0 0 0 0 0 0 0 0 0 0 0 0 0 0 0 0 127 0" result="hardAlpha"/>
<feOffset dy="30"/>
<feGaussianBlur stdDeviation="30"/>
<feComposite in2="hardAlpha" operator="out"/>
<feColorMatrix type="matrix" values="0 0 0 0 0.344915 0 0 0 0 0.309028 0 0 0 0 0.432639 0 0 0 0.15 0"/>
<feBlend mode="normal" in2="BackgroundImageFix" result="effect1_dropShadow_1_7280"/>
<feBlend mode="normal" in="SourceGraphic" in2="effect1_dropShadow_1_7280" result="shape"/>
</filter>
</defs>
</svg>
