<svg width="601" height="600" viewBox="0 0 601 600" fill="none" xmlns="http://www.w3.org/2000/svg">
<path d="M384.085 216.415C428.305 260.635 455.807 313.046 464.616 361.945C473.428 410.855 463.52 455.997 433.323 486.194C403.125 516.391 357.984 526.299 309.074 517.488C260.175 508.679 207.764 481.176 163.544 436.956C119.324 392.736 91.8215 340.325 83.0123 291.426C74.2011 242.516 84.1088 197.375 114.306 167.177C144.503 136.98 189.645 127.072 238.555 135.884C287.454 144.693 339.865 172.195 384.085 216.415Z" stroke="#526ED3" stroke-opacity="0.05" stroke-width="5"/>
<path d="M410.77 189.73C454.99 233.949 482.493 286.361 491.302 335.26C500.113 384.17 490.205 429.311 460.008 459.508C429.811 489.706 384.67 499.613 335.76 490.802C286.861 481.993 234.449 454.49 190.229 410.27C146.01 366.051 118.507 313.639 109.698 264.74C100.887 215.83 110.794 170.689 140.992 140.492C171.189 110.294 216.33 100.387 265.24 109.198C314.139 118.007 366.551 145.51 410.77 189.73Z" stroke="#526ED3" stroke-opacity="0.05" stroke-width="5"/>
<path d="M437.456 163.044C481.676 207.264 509.178 259.675 517.987 308.574C526.799 357.484 516.891 402.625 486.694 432.823C456.497 463.02 411.355 472.928 362.445 464.116C313.546 455.307 261.135 427.805 216.915 383.585C172.695 339.365 145.193 286.954 136.383 238.055C127.572 189.145 137.48 144.003 167.677 113.806C197.874 83.6088 243.016 73.7011 291.926 82.5123C340.825 91.3215 393.236 118.824 437.456 163.044Z" stroke="#526ED3" stroke-opacity="0.05" stroke-width="5"/>
<path fill-rule="evenodd" clip-rule="evenodd" d="M76.9106 410.308C76.9106 404.266 81.5485 397.794 87.2695 395.852L464.332 267.857C466.829 267.009 469.119 267.164 470.908 268.111C471.356 268.241 471.783 268.414 472.184 268.626C472.634 268.756 473.061 268.929 473.463 269.142C473.912 269.272 474.339 269.445 474.741 269.658C475.19 269.788 475.617 269.961 476.019 270.173C476.467 270.303 476.894 270.476 477.296 270.688C477.745 270.819 478.172 270.991 478.574 271.204C479.023 271.334 479.45 271.507 479.851 271.719C480.3 271.85 480.728 272.022 481.13 272.235C481.579 272.366 482.006 272.538 482.407 272.751C482.856 272.881 483.283 273.054 483.684 273.266C484.133 273.396 484.561 273.569 484.963 273.782C485.412 273.912 485.838 274.085 486.24 274.297C486.689 274.427 487.116 274.6 487.518 274.812C487.967 274.943 488.395 275.116 488.797 275.328C489.245 275.459 489.672 275.631 490.073 275.844C490.523 275.974 490.95 276.147 491.352 276.359C491.801 276.49 492.228 276.662 492.63 276.875C493.078 277.005 493.505 277.178 493.906 277.39C494.356 277.521 494.783 277.693 495.185 277.906C495.634 278.036 496.061 278.209 496.462 278.422C496.911 278.552 497.338 278.724 497.739 278.937C498.188 279.067 498.615 279.24 499.017 279.452C499.467 279.583 499.894 279.755 500.296 279.968C500.745 280.098 501.171 280.271 501.573 280.483C502.022 280.614 502.45 280.786 502.852 280.999C503.3 281.13 503.727 281.302 504.128 281.514C504.578 281.645 505.005 281.818 505.407 282.03C505.856 282.161 506.283 282.333 506.685 282.546C507.133 282.676 507.56 282.849 507.961 283.061C508.411 283.191 508.838 283.364 509.24 283.577C509.689 283.707 510.116 283.88 510.517 284.092C510.966 284.222 511.393 284.395 511.795 284.608C512.244 284.738 512.672 284.911 513.074 285.124C513.523 285.254 513.95 285.427 514.351 285.639C514.8 285.769 515.227 285.942 515.628 286.154C516.077 286.285 516.505 286.457 516.907 286.67C517.355 286.8 517.782 286.973 518.184 287.185C518.633 287.316 519.06 287.488 519.462 287.701C519.911 287.832 520.338 288.004 520.74 288.217C521.189 288.347 521.615 288.52 522.017 288.732C522.466 288.862 522.893 289.035 523.295 289.247C523.744 289.378 524.171 289.551 524.574 289.763C525.022 289.894 525.449 290.066 525.85 290.278C526.3 290.409 526.727 290.582 527.129 290.794C527.578 290.925 528.005 291.097 528.406 291.31C528.855 291.44 529.282 291.613 529.683 291.825C530.133 291.955 530.56 292.128 530.962 292.341C531.411 292.471 531.837 292.644 532.239 292.856C532.688 292.987 533.116 293.159 533.518 293.372C533.966 293.502 534.393 293.675 534.795 293.888C535.243 294.018 535.67 294.19 536.071 294.402C536.521 294.533 536.949 294.706 537.351 294.919C537.8 295.049 538.227 295.222 538.629 295.434C539.077 295.564 539.504 295.737 539.905 295.949C540.355 296.08 540.782 296.253 541.184 296.465C541.633 296.596 542.06 296.768 542.462 296.981C542.91 297.111 543.337 297.284 543.738 297.496C544.188 297.626 544.615 297.799 545.017 298.012C545.466 298.142 545.893 298.315 546.294 298.527C546.743 298.657 547.171 298.83 547.573 299.043C548.021 299.173 548.448 299.346 548.849 299.558C549.299 299.688 549.726 299.861 550.128 300.074C550.577 300.204 551.004 300.377 551.406 300.589C551.855 300.72 552.282 300.892 552.684 301.105C553.132 301.235 553.559 301.408 553.961 301.62C554.41 301.751 554.837 301.923 555.239 302.136C555.688 302.266 556.115 302.439 556.517 302.652C556.965 302.782 557.392 302.954 557.794 303.167C558.243 303.297 558.67 303.47 559.072 303.683C559.521 303.813 559.947 303.985 560.348 304.197C560.798 304.328 561.226 304.501 561.629 304.714C562.077 304.844 562.504 305.017 562.906 305.229C563.355 305.36 563.781 305.532 564.183 305.744C564.632 305.875 565.059 306.048 565.462 306.26C565.91 306.391 566.337 306.563 566.739 306.776C567.188 306.906 567.614 307.079 568.016 307.291C568.465 307.421 568.893 307.594 569.295 307.807C569.743 307.937 570.17 308.11 570.572 308.322C571.021 308.453 571.447 308.625 571.849 308.838C574.88 309.717 576.91 312.525 576.91 316.522C576.91 322.564 572.273 329.036 566.551 330.978L189.489 458.973C186.993 459.821 184.703 459.666 182.914 458.719C182.465 458.589 182.037 458.416 181.635 458.204C181.186 458.073 180.759 457.901 180.358 457.688C179.909 457.558 179.483 457.385 179.081 457.173C178.632 457.042 178.204 456.87 177.802 456.657C177.353 456.527 176.926 456.354 176.525 456.141C176.076 456.011 175.65 455.839 175.248 455.626C174.799 455.496 174.371 455.323 173.969 455.11C173.52 454.98 173.093 454.807 172.692 454.595C172.243 454.465 171.817 454.292 171.416 454.08C170.966 453.95 170.538 453.777 170.136 453.564C169.687 453.433 169.26 453.261 168.859 453.049C168.409 452.918 167.982 452.745 167.58 452.533C167.131 452.402 166.704 452.23 166.303 452.017C165.854 451.887 165.427 451.714 165.026 451.502C164.576 451.372 164.149 451.199 163.747 450.986C163.298 450.856 162.871 450.683 162.47 450.471C162.021 450.34 161.594 450.168 161.193 449.955C160.744 449.825 160.317 449.652 159.915 449.44C159.465 449.309 159.038 449.137 158.636 448.924C158.187 448.794 157.761 448.621 157.359 448.409C156.91 448.278 156.482 448.106 156.08 447.893C155.632 447.763 155.205 447.59 154.804 447.378C154.354 447.247 153.927 447.075 153.525 446.862C153.076 446.732 152.649 446.559 152.247 446.346C151.799 446.216 151.372 446.044 150.971 445.831C150.521 445.701 150.094 445.528 149.692 445.315C149.243 445.185 148.816 445.012 148.414 444.8C147.966 444.67 147.54 444.497 147.138 444.285C146.689 444.154 146.261 443.982 145.858 443.769C145.409 443.638 144.982 443.466 144.581 443.253C144.132 443.123 143.705 442.95 143.304 442.738C142.855 442.608 142.427 442.435 142.025 442.222C141.577 442.092 141.15 441.919 140.749 441.707C140.299 441.577 139.872 441.404 139.47 441.191C139.021 441.061 138.594 440.888 138.192 440.675C137.744 440.545 137.317 440.373 136.915 440.16C136.466 440.03 136.039 439.857 135.637 439.644C135.188 439.514 134.761 439.342 134.36 439.129C133.911 438.999 133.484 438.826 133.082 438.614C132.632 438.483 132.205 438.31 131.803 438.098C131.354 437.967 130.927 437.795 130.526 437.582C130.077 437.452 129.65 437.279 129.249 437.067C128.8 436.937 128.372 436.764 127.97 436.551C127.521 436.421 127.095 436.248 126.693 436.036C126.244 435.906 125.817 435.733 125.414 435.52C124.966 435.39 124.539 435.217 124.137 435.005C123.688 434.874 123.262 434.702 122.86 434.489C122.411 434.359 121.984 434.186 121.582 433.974C121.133 433.843 120.706 433.671 120.304 433.458C119.855 433.328 119.428 433.155 119.027 432.943C118.577 432.812 118.15 432.64 117.748 432.427C117.299 432.297 116.872 432.124 116.471 431.911C116.022 431.781 115.595 431.609 115.194 431.396C114.744 431.266 114.317 431.093 113.915 430.88C113.466 430.75 113.04 430.578 112.638 430.365C112.189 430.235 111.761 430.062 111.359 429.849C110.911 429.719 110.484 429.546 110.083 429.334C109.634 429.204 109.206 429.031 108.805 428.819C108.355 428.688 107.928 428.515 107.526 428.303C107.077 428.172 106.65 428 106.248 427.787C105.8 427.657 105.373 427.484 104.972 427.272C104.522 427.142 104.095 426.969 103.693 426.756C103.244 426.626 102.817 426.453 102.415 426.241C101.967 426.11 101.54 425.938 101.139 425.725C100.689 425.595 100.262 425.422 99.8597 425.209C99.4111 425.079 98.9844 424.907 98.583 424.694C98.1339 424.564 97.7068 424.391 97.305 424.179C96.8555 424.048 96.4281 423.876 96.026 423.663C95.5775 423.533 95.1508 423.36 94.7495 423.148C94.3001 423.017 93.8727 422.845 93.4706 422.632C93.0217 422.501 92.5947 422.329 92.193 422.116C91.7445 421.986 91.3178 421.813 90.9164 421.601C90.467 421.471 90.0396 421.298 89.6375 421.085C89.1889 420.955 88.7623 420.782 88.3609 420.57C87.9115 420.44 87.4841 420.267 87.0821 420.054C86.6331 419.924 86.2062 419.751 85.8045 419.539C85.3559 419.408 84.9293 419.236 84.5278 419.023C84.0788 418.893 83.6516 418.721 83.2498 418.508C82.8004 418.378 82.373 418.205 81.9709 417.992C78.9405 417.112 76.9106 414.305 76.9106 410.308Z" fill="#4C506F"/>
<rect width="420.073" height="21.8788" rx="10.9394" transform="matrix(0.94693 -0.321439 0 1 179.13 440.611)" fill="#A8CEF1"/>
<mask id="mask0_278_6193" style="mask-type:alpha" maskUnits="userSpaceOnUse" x="83" y="268" width="483" height="170">
<path d="M184.177 437.767L83.7856 400.25L466.723 268.421L565.691 308.267L184.177 437.767Z" fill="#1E212A"/>
</mask>
<g mask="url(#mask0_278_6193)">
<path fill-rule="evenodd" clip-rule="evenodd" d="M1006.55 88.5511C1005 87.9709 1002.64 88.2709 1001.28 89.2212C999.924 90.1715 1000.08 91.4123 1001.63 91.9926L1089.46 124.83C1091.01 125.41 1093.37 125.11 1094.73 124.16C1096.09 123.21 1095.93 121.969 1094.38 121.389L1006.55 88.5511ZM935.251 113.249C933.699 112.669 931.341 112.969 929.984 113.919C928.626 114.87 928.784 116.11 930.336 116.691L1018.16 149.528C1019.72 150.109 1022.07 149.809 1023.43 148.858C1024.79 147.908 1024.63 146.667 1023.08 146.087L935.251 113.249ZM863.954 137.322C862.402 136.742 860.044 137.042 858.687 137.992C857.329 138.943 857.487 140.183 859.039 140.764L946.867 173.601C948.419 174.181 950.778 173.881 952.135 172.931C953.492 171.981 953.334 170.74 951.782 170.16L863.954 137.322ZM792.657 162.02C791.105 161.44 788.747 161.74 787.39 162.69C786.032 163.641 786.19 164.881 787.742 165.462L875.57 198.299C877.122 198.88 879.481 198.58 880.838 197.629C882.195 196.679 882.037 195.438 880.485 194.858L792.657 162.02ZM506.772 259.126C508.129 258.175 510.487 257.875 512.039 258.456L599.868 291.293C601.42 291.874 601.577 293.114 600.22 294.065C598.863 295.015 596.505 295.315 594.953 294.735L507.124 261.897C505.573 261.317 505.415 260.076 506.772 259.126ZM440.742 282.529C439.19 281.948 436.832 282.248 435.474 283.199C434.117 284.149 434.275 285.39 435.827 285.97L523.655 318.808C525.207 319.388 527.565 319.088 528.923 318.138C530.28 317.187 530.122 315.947 528.57 315.366L440.742 282.529ZM364.179 307.897C365.536 306.947 367.894 306.646 369.446 307.227L457.274 340.064C458.826 340.645 458.984 341.885 457.627 342.836C456.27 343.786 453.911 344.086 452.359 343.506L364.531 310.668C362.979 310.088 362.821 308.847 364.179 307.897ZM298.149 331.3C296.597 330.719 294.239 331.019 292.882 331.97C291.524 332.92 291.682 334.161 293.234 334.741L381.062 367.579C382.614 368.159 384.973 367.859 386.33 366.909C387.687 365.958 387.529 364.718 385.977 364.137L298.149 331.3ZM221.584 355.418C222.941 354.467 225.299 354.167 226.851 354.748L314.68 387.585C316.232 388.166 316.389 389.406 315.032 390.357C313.675 391.307 311.317 391.607 309.765 391.027L221.936 358.189C220.385 357.609 220.227 356.368 221.584 355.418ZM150.286 379.491C151.644 378.54 154.002 378.24 155.554 378.821L243.382 411.658C244.934 412.239 245.092 413.479 243.735 414.43C242.377 415.38 240.019 415.68 238.467 415.1L150.639 382.262C149.087 381.682 148.929 380.441 150.286 379.491ZM79.1913 404.891C80.5486 403.941 82.9069 403.641 84.4588 404.221L172.287 437.058C173.839 437.639 173.997 438.879 172.64 439.83C171.282 440.78 168.924 441.08 167.372 440.5L79.5439 407.662C77.992 407.082 77.8341 405.841 79.1913 404.891ZM13.3638 429.621C11.8119 429.041 9.45359 429.341 8.09637 430.291C6.73916 431.241 6.89701 432.482 8.44893 433.062L96.2772 465.9C97.8292 466.48 100.187 466.18 101.545 465.23C102.902 464.279 102.744 463.039 101.192 462.458L13.3638 429.621ZM578.069 234.428C579.426 233.477 581.784 233.177 583.336 233.758L671.165 266.595C672.717 267.175 672.874 268.416 671.517 269.367C670.16 270.317 667.802 270.617 666.25 270.037L578.421 237.199C576.87 236.619 576.712 235.378 578.069 234.428ZM649.366 210.355C650.723 209.404 653.081 209.104 654.633 209.685L742.462 242.522C744.014 243.102 744.171 244.343 742.814 245.294C741.457 246.244 739.099 246.544 737.547 245.964L649.718 213.126C648.167 212.546 648.009 211.305 649.366 210.355ZM720.666 185.657C722.023 184.706 724.381 184.406 725.933 184.987L813.762 217.824C815.314 218.404 815.471 219.645 814.114 220.596C812.757 221.546 810.399 221.846 808.847 221.266L721.018 188.428C719.467 187.848 719.309 186.607 720.666 185.657Z" fill="#CFD3D6"/>
</g>
<rect width="93.7663" height="93.7663" transform="matrix(0.951388 -0.307996 -0.0141632 0.9999 244.992 266.702)" fill="#E7E7E7"/>
<rect width="75.013" height="93.7663" transform="matrix(0.937819 0.347124 -0.0141632 0.9999 334.176 237.822)" fill="#D6D6D6"/>
<rect width="93.7663" height="37.5065" transform="matrix(0.951388 -0.307996 0.602908 0.79781 222.379 236.779)" fill="#C1C1C1"/>
<rect width="93.7663" height="93.7663" transform="matrix(0.951388 -0.307996 -0.0141632 0.9999 315.23 292.59)" fill="#D9D9D9"/>
<rect width="93.7663" height="37.5065" transform="matrix(0.951388 -0.307996 0.602908 0.79781 315.23 292.59)" fill="#C1C1C1"/>
<rect width="75.013" height="93.7663" transform="matrix(0.937819 0.347124 -0.0141632 0.9999 244.994 266.568)" fill="#EEEEEE"/>
<circle cx="219" cy="168" r="40" fill="white" fill-opacity="0.4"/>
<path d="M235.509 157.999L219.953 149.249C219.361 148.917 218.639 148.917 218.047 149.249L202.491 157.999C201.879 158.344 201.5 158.991 201.5 159.694C201.5 169.433 205.887 178.052 214.188 184.617L217.793 187.469C218.147 187.749 218.574 187.888 219 187.888C219.426 187.888 219.853 187.749 220.207 187.469L223.811 184.617C232.113 178.052 236.5 169.433 236.5 159.694C236.5 158.991 236.121 158.344 235.509 157.999ZM226.501 163.613L220.667 173.335C220.36 173.848 219.832 174.191 219.237 174.264C219.159 174.274 219.079 174.279 219 174.279C218.487 174.279 217.992 174.076 217.625 173.709L213.736 169.82C212.977 169.061 212.977 167.83 213.736 167.071C214.496 166.311 215.726 166.311 216.486 167.071L218.614 169.198L223.166 161.611C223.718 160.689 224.913 160.39 225.834 160.945C226.755 161.497 227.053 162.692 226.501 163.613Z" fill="#4AC99B" fill-opacity="0.7"/>
<circle cx="320" cy="140" r="40" fill="white" fill-opacity="0.4"/>
<path d="M302.75 149.222C302.75 149.959 303.166 150.631 303.825 150.962L319.278 158.944V140.101L302.75 131.837V149.222Z" fill="#FF7043" fill-opacity="0.7"/>
<path d="M321.12 122.205C320.573 121.932 319.927 121.932 319.381 122.205C319.381 122.205 303.704 130.068 303.642 130.109L320.25 138.414L336.858 130.109C336.796 130.068 321.12 122.205 321.12 122.205Z" fill="#FF7043" fill-opacity="0.7"/>
<path d="M321.222 158.944L336.675 150.962C337.334 150.631 337.75 149.959 337.75 149.222V131.837L321.222 140.101V158.944Z" fill="#FF7043" fill-opacity="0.7"/>
<circle cx="404" cy="205" r="40" fill="white" fill-opacity="0.4"/>
<path d="M425.793 196.945L415.793 192.124C415.449 191.959 415.051 191.959 414.707 192.124L404.707 196.945C404.275 197.154 404 197.591 404 198.071C404 204.58 406.97 210.7 412.149 214.861L414.468 216.724C414.696 216.908 414.973 217 415.25 217C415.527 217 415.804 216.908 416.032 216.724L418.351 214.861C423.53 210.7 426.5 204.58 426.5 198.071C426.5 197.591 426.225 197.154 425.793 196.945ZM415.288 210.75C414.597 210.75 414.032 210.19 414.032 209.5C414.032 208.81 414.585 208.25 415.274 208.25H415.288C415.978 208.25 416.538 208.81 416.538 209.5C416.538 210.19 415.978 210.75 415.288 210.75ZM417.467 203.776C417.105 204.04 416.5 204.606 416.5 205.422V205.75C416.5 206.44 415.941 207 415.25 207C414.559 207 414 206.44 414 205.75V205.422C414 204.02 414.725 202.685 415.989 201.76C416.313 201.521 416.5 201.153 416.5 200.75C416.5 200.061 415.94 199.5 415.25 199.5C414.56 199.5 414 200.061 414 200.75C414 201.44 413.441 202 412.75 202C412.059 202 411.5 201.44 411.5 200.75C411.5 198.682 413.182 197 415.25 197C417.318 197 419 198.682 419 200.75C419 201.94 418.426 203.071 417.467 203.776Z" fill="#BD65A4" fill-opacity="0.7"/>
<path d="M413.684 217.698L411.367 215.835C405.891 211.436 402.75 204.961 402.75 198.071C402.75 197.118 403.304 196.234 404.164 195.82L414.164 190.998C414.503 190.835 414.878 190.751 415.25 190.751C415.622 190.751 415.997 190.835 416.333 190.997L416.5 191.077V188.25C416.5 187.56 415.941 187 415.25 187H392.75C392.059 187 391.5 187.56 391.5 188.25V220.75C391.5 221.44 392.059 222 392.75 222H415.25C415.941 222 416.5 221.44 416.5 220.75V217.911C416.122 218.129 415.69 218.25 415.25 218.25C414.682 218.25 414.126 218.054 413.684 217.698ZM399.884 216.634L397.384 219.134C397.14 219.378 396.82 219.5 396.5 219.5C396.18 219.5 395.86 219.378 395.616 219.134L394.366 217.884C393.878 217.396 393.878 216.604 394.366 216.116C394.854 215.628 395.646 215.628 396.134 216.116L396.5 216.482L398.116 214.866C398.604 214.378 399.396 214.378 399.884 214.866C400.372 215.354 400.372 216.146 399.884 216.634ZM399.884 209.866C400.372 210.354 400.372 211.146 399.884 211.634C399.64 211.878 399.32 212 399 212C398.68 212 398.36 211.878 398.116 211.634L397.125 210.643L396.134 211.634C395.89 211.878 395.57 212 395.25 212C394.93 212 394.61 211.878 394.366 211.634C393.878 211.146 393.878 210.354 394.366 209.866L395.357 208.875L394.366 207.884C393.878 207.396 393.878 206.604 394.366 206.116C394.854 205.628 395.646 205.628 396.134 206.116L397.125 207.107L398.116 206.116C398.604 205.628 399.396 205.628 399.884 206.116C400.372 206.604 400.372 207.396 399.884 207.884L398.893 208.875L399.884 209.866ZM399.884 199.134L397.384 201.634C397.14 201.878 396.82 202 396.5 202C396.18 202 395.86 201.878 395.616 201.634L394.366 200.384C393.878 199.896 393.878 199.104 394.366 198.616C394.854 198.128 395.646 198.128 396.134 198.616L396.5 198.982L398.116 197.366C398.604 196.878 399.396 196.878 399.884 197.366C400.372 197.854 400.372 198.646 399.884 199.134ZM399.884 191.634L397.384 194.134C397.14 194.378 396.82 194.5 396.5 194.5C396.18 194.5 395.86 194.378 395.616 194.134L394.366 192.884C393.878 192.396 393.878 191.604 394.366 191.116C394.854 190.628 395.646 190.628 396.134 191.116L396.5 191.482L398.116 189.866C398.604 189.378 399.396 189.378 399.884 189.866C400.372 190.354 400.372 191.146 399.884 191.634Z" fill="#BD65A4" fill-opacity="0.7"/>
</svg>
