<svg width="201" height="201" viewBox="0 0 201 201" fill="none" xmlns="http://www.w3.org/2000/svg">
<g filter="url(#filter0_d_1_7250)">
<circle cx="100.563" cy="72.563" r="43.734" transform="rotate(15 100.563 72.563)" fill="white"/>
</g>
<path d="M121.489 50.5949C120.789 52.2749 119.892 53.8662 118.818 55.3356C114.113 50.6328 107.733 47.9907 101.08 47.9899C87.3219 47.9899 76 59.3211 76 73.0946C75.9999 76.4957 76.6903 79.8616 78.0295 82.988C79.3688 86.1144 81.3288 88.9364 83.791 91.2828L84.716 92.1031C89.2367 95.9146 94.9585 98.0067 100.871 98.0102C113.952 98.0102 124.948 87.7602 125.88 74.6965C126.564 68.3016 124.688 60.2133 121.489 50.5949ZM87.3543 91.4258C87.1529 91.6739 86.8987 91.874 86.6103 92.0114C86.3218 92.1489 86.0063 92.2203 85.6867 92.2203C84.5078 92.2203 83.5434 91.25 83.5434 90.0711C83.5434 88.8926 84.5141 87.9223 85.6867 87.9223C86.175 87.9223 86.6574 88.0914 87.0352 88.4043C87.9535 89.1465 88.0969 90.5074 87.3543 91.4258ZM121.385 83.911C115.196 92.1617 101.979 89.3809 93.5039 89.7782C93.5039 89.7782 91.9992 89.8696 90.4879 90.1168C90.4879 90.1168 91.0543 89.8758 91.7906 89.5957C97.7383 87.525 100.552 87.1211 104.168 85.2653C110.975 81.8008 117.704 74.2207 119.105 66.3344C116.513 73.9211 108.656 80.4399 101.497 83.0903C96.5918 84.9008 87.732 86.659 87.732 86.659L87.3738 86.4699C81.3418 83.5332 81.159 70.4633 92.1227 66.2434C96.9238 64.3938 101.516 65.4098 106.702 64.1723C112.239 62.8571 118.643 58.702 121.248 53.284C124.166 61.952 127.678 75.5231 121.385 83.911H121.385Z" fill="#77BC1F"/>
<defs>
<filter id="filter0_d_1_7250" x="0.987213" y="0.902786" width="199.151" height="199.151" filterUnits="userSpaceOnUse" color-interpolation-filters="sRGB">
<feFlood flood-opacity="0" result="BackgroundImageFix"/>
<feColorMatrix in="SourceAlpha" type="matrix" values="0 0 0 0 0 0 0 0 0 0 0 0 0 0 0 0 0 0 127 0" result="hardAlpha"/>
<feOffset dy="27.9153"/>
<feGaussianBlur stdDeviation="27.9153"/>
<feComposite in2="hardAlpha" operator="out"/>
<feColorMatrix type="matrix" values="0 0 0 0 0.344915 0 0 0 0 0.309028 0 0 0 0 0.432639 0 0 0 0.15 0"/>
<feBlend mode="normal" in2="BackgroundImageFix" result="effect1_dropShadow_1_7250"/>
<feBlend mode="normal" in="SourceGraphic" in2="effect1_dropShadow_1_7250" result="shape"/>
</filter>
</defs>
</svg>
