<svg width="1440" height="3451" viewBox="0 0 1440 3451" fill="none" xmlns="http://www.w3.org/2000/svg">
<g id="Wavy-BG-form">
<path id="Vector" d="M-265.729 2003.27C-55.0511 2123.88 58.5323 2539.07 -26.0805 2751.32C-119.562 2985.71 -704.1 2950.11 -771.172 2892.95C-838.245 2835.8 -289.904 2652.91 -364.729 2437.24C-447.831 2197.85 -865.114 2197.53 -853.749 2095.31C-842.581 1994.73 -509.254 1863.87 -265.729 2003.27Z" stroke="#526ED3" stroke-opacity="0.05" stroke-width="5" stroke-miterlimit="10"/>
<path id="Vector_2" d="M-199.775 1973.78C47.1657 2078.89 154.311 2581.44 45.4578 2818.2C-77.9139 3086.36 -712.97 2986.96 -807.239 2944.53C-888.502 2908 -360.986 2662.04 -424.051 2401.44C-492.503 2118.3 -868.86 2072.32 -840.743 2006.62C-810.524 1936.2 -489.547 1850.73 -199.775 1973.78Z" stroke="#526ED3" stroke-opacity="0.05" stroke-width="5" stroke-miterlimit="10"/>
<path id="Vector_3" d="M-133.822 1944.35C148.987 2033.63 249.892 2623.75 116.995 2885.01C-36.5301 3187.2 -716.783 3022.96 -843.308 2996.16C-935.278 2976.45 -432.528 2671.51 -483.309 2365.51C-537.506 2039.14 -881.081 1943.43 -827.738 1918.4C-787.928 1874.06 -470.893 1837.86 -133.822 1944.35Z" stroke="#526ED3" stroke-opacity="0.05" stroke-width="5" stroke-miterlimit="10"/>
<path id="Vector_4" d="M-67.864 1914.66C250.616 1988.76 345.28 2665.79 188.339 2951.69C4.3985 3287.25 -729.591 3106.4 -879.569 3047.6C-973.51 3010.75 -504.527 2680.84 -542.76 2329.64C-583.03 1960.05 -889.226 1816.31 -814.927 1829.91C-760.598 1813.69 -452.169 1825.38 -67.864 1914.66Z" stroke="#526ED3" stroke-opacity="0.05" stroke-width="5" stroke-miterlimit="10"/>
<path id="Vector_5" d="M-1.90254 1885.36C352.118 1944.48 440.541 2708.1 260.082 3018.76C45.6592 3387.96 -725.316 3146.07 -915.432 3099.37C-1022.12 3073.09 -576.324 2690.62 -601.878 2294.03C-628.155 1881.22 -904.067 1706.01 -801.717 1741.68C-736.155 1764.48 -433.572 1813.22 -1.90254 1885.36Z" stroke="#526ED3" stroke-opacity="0.05" stroke-width="5" stroke-miterlimit="10"/>
<path id="Vector_6" d="M63.979 1855.86C453.605 1900.33 535.722 2750.27 331.613 3085.57C86.5117 3488.33 -722.237 3115.39 -951.572 3151.26C-1070.41 3169.72 -648.595 2700.48 -661.208 2258.43C-674.346 1802.52 -914.127 1575.81 -788.718 1653.59C-710.675 1701.68 -415.055 1801.27 63.979 1855.86Z" stroke="#526ED3" stroke-opacity="0.05" stroke-width="5" stroke-miterlimit="10"/>
<path id="Vector_7" d="M129.931 1826.43C555.097 1856.25 630.842 2792.12 403.215 3152.45C127.304 3588.65 -725.065 3142.46 -987.575 3202.57C-1116.01 3232 -720.795 2709.87 -720.401 2222.36C-720.007 1723.09 -922.079 1445.87 -775.649 1564.91C-683.81 1639.6 -396.534 1789.44 129.931 1826.43Z" stroke="#526ED3" stroke-opacity="0.05" stroke-width="5" stroke-miterlimit="10"/>
<path id="Vector_8" d="M195.9 1796.93C656.606 1812.31 725.781 2834.36 474.768 3219.32C168.244 3688.96 -728.599 3168.54 -1023.63 3254.2C-1161.98 3294.34 -793.176 2719.33 -779.709 2186.56C-765.979 1644.2 -929.489 1316.98 -762.629 1476.55C-656.468 1577.98 -377.864 1777.82 195.9 1796.93Z" stroke="#526ED3" stroke-opacity="0.05" stroke-width="5" stroke-miterlimit="10"/>
<path id="Vector_9" d="M261.85 1767.44C758.096 1768.42 821.03 2876.4 546.302 3286.2C209.033 3789.27 -732.744 3194.23 -1059.7 3305.9C-1208.3 3356.69 -865.641 2728.99 -838.97 2150.82C-811.97 1565.23 -936.787 1188.68 -749.627 1388.19C-628.883 1516.75 -359.41 1766.25 261.85 1767.44Z" stroke="#526ED3" stroke-opacity="0.05" stroke-width="5" stroke-miterlimit="10"/>
<path id="Vector_10" d="M327.807 1738.01C859.922 1724.87 916.089 2918.38 617.842 3353.01C249.961 3889.46 -737.408 3219.19 -1095.76 3357.41C-1254.87 3418.77 -938.1 2738.45 -898.225 2114.95C-858.02 1486.14 -944.21 1060.51 -736.554 1299.7C-601.226 1455.72 -340.818 1754.82 327.807 1738.01Z" stroke="#526ED3" stroke-opacity="0.05" stroke-width="5" stroke-miterlimit="10"/>
<path id="Vector_11" d="M393.763 1708.51C961.22 1680.85 1011.28 2960.36 689.382 3419.88C290.493 3989.7 -742.729 3244.09 -1131.83 3409.04C-1301.65 3480.91 -1010.69 2747.97 -957.545 2079.15C-904.137 1407.04 -951.37 932.674 -723.546 1211.34C-573.503 1394.83 -322.161 1743.46 393.763 1708.51Z" stroke="#526ED3" stroke-opacity="0.05" stroke-width="5" stroke-miterlimit="10"/>
<path id="Vector_12" d="M459.723 1679.01C1062.79 1637.1 1106.08 3002.34 760.926 3486.76C331.161 4089.89 -747.784 3268.79 -1167.89 3460.48C-1348.48 3542.99 -1083.21 2757.56 -1016.8 2043.15C-950.25 1327.82 -958.659 804.768 -710.536 1122.79C-545.843 1333.99 -303.501 1732.09 459.723 1679.01Z" stroke="#526ED3" stroke-opacity="0.05" stroke-width="5" stroke-miterlimit="10"/>
<path id="Vector_13" d="M525.669 1649.58C1164.4 1593.41 1201.06 3044.58 832.456 3553.57C371.816 4190.07 -753.377 3293.42 -1204.03 3512.25C-1395.59 3605.27 -1155.88 2766.96 -1076.13 2007.48C-996.376 1248 -965.96 677.258 -697.537 1034.37C-518.129 1273.23 -284.853 1720.86 525.669 1649.58Z" stroke="#526ED3" stroke-opacity="0.05" stroke-width="5" stroke-miterlimit="10"/>
<path id="Vector_14" d="M591.624 1620.09C1266.03 1549.73 1296.05 3086.23 904.061 3620.44C412.479 4290.51 -759.224 3318.25 -1240.03 3563.88C-1442.7 3667.48 -1228.47 2776.42 -1135.38 1971.68C-1042.56 1169.76 -973.318 549.747 -684.466 946.14C-490.408 1212.53 -266.197 1709.56 591.624 1620.09Z" stroke="#526ED3" stroke-opacity="0.05" stroke-width="5" stroke-miterlimit="10"/>
<path id="Vector_15" d="M657.592 1590.59C1367.67 1506.04 1390 3127.42 975.415 3687.32C451.644 4389.45 -765.453 3342.43 -1276.28 3615.45C-1490.05 3729.69 -1301.31 2785.88 -1194.82 1935.87C-1088.93 1090.67 -980.861 422.173 -671.643 857.719C-462.673 1151.83 -247.397 1698.39 657.592 1590.59Z" stroke="#526ED3" stroke-opacity="0.05" stroke-width="5" stroke-miterlimit="10"/>
<path id="Vector_16" d="M723.54 1561.16C1469.29 1462.42 1485.06 3169.39 1047.14 3754.06C492.628 4489.83 -771.308 3366.47 -1312.16 3666.95C-1537.16 3791.77 -1373.78 2795.21 -1253.89 1899.81C-1134.99 1011.24 -988.029 294.464 -658.447 769.031C-434.959 1091.13 -228.682 1687.16 723.54 1561.16Z" stroke="#526ED3" stroke-opacity="0.05" stroke-width="5" stroke-miterlimit="10"/>
<path id="Vector_17" d="M789.495 1531.66C1571.24 1418.8 1580.18 3211.44 1118.68 3821C533.423 4589.61 -777.484 3391.3 -1348.23 3718.65C-1584.72 3854.18 -1448.01 2804.6 -1313.15 1864.2C-1182.75 932.147 -995.389 167.215 -645.441 680.936C-407.238 1030.49 -209.895 1675.99 789.495 1531.66Z" stroke="#526ED3" stroke-opacity="0.05" stroke-width="5" stroke-miterlimit="10"/>
<path id="Vector_18" d="M855.447 1502.17C1672.87 1376.63 1675.3 3253.48 1190.22 3887.88C574.215 4690.26 -783.794 3415.75 -1384.36 3770.29C-1631.83 3916.39 -1520.35 2814.06 -1372.47 1828.4C-1228.67 853.056 -1002.75 39.84 -632.372 592.517C-379.519 969.858 -190.848 1666.67 855.447 1502.17Z" stroke="#526ED3" stroke-opacity="0.05" stroke-width="5" stroke-miterlimit="10"/>
<path id="Vector_19" d="M921.415 1472.74C1774.51 1332.68 1770.3 3295.46 1261.77 3954.76C615.088 4790.5 -790.155 3440.12 -1420.41 3821.92C-1679.18 3978.67 -1592.73 2823.39 -1431.71 1792.6C-1274.58 773.958 -1010.16 -87.6075 -619.352 504.157C-351.587 909.549 -172.114 1655.1 921.415 1472.74Z" stroke="#526ED3" stroke-opacity="0.05" stroke-width="5" stroke-miterlimit="10"/>
<path id="Vector_20" d="M987.368 1443.24C1876.13 1288.73 1865.49 3337.5 1333.31 4021.57C655.881 4890.56 -796.661 3464.55 -1456.48 3873.49C-1726.61 4040.95 -1665.45 2833.05 -1490.97 1756.99C-1320.17 695.062 -1016.47 -215.511 -606.347 415.932C-323.276 848.127 -153.393 1643.47 987.368 1443.24Z" stroke="#526ED3" stroke-opacity="0.05" stroke-width="5" stroke-miterlimit="10"/>
<path id="Vector_21" d="M1053.32 1413.74C1977.75 1244.58 1960.8 3379.61 1404.84 4088.44C696.668 4991 -803.173 3488.99 -1492.56 3924.86C-1774.12 4103.02 -1737.53 2842.24 -1550.3 1720.73C-1366.43 615.703 -1024.43 -342.694 -593.349 327.31C-295.956 787.819 -134.811 1632.17 1053.32 1413.74Z" stroke="#526ED3" stroke-opacity="0.05" stroke-width="5" stroke-miterlimit="10"/>
<path id="Vector_22" d="M-580.271 238.953C-268.622 727.447 -115.886 1620.28 1119.28 1384.31C2079.45 1200.83 2055.73 3421.52 1476.45 4155.32C737.468 5091.31 -809.671 3513.43 -1528.62 3976.7C-2110 4351.41 -1491.63 -1189.68 -580.271 238.953Z" stroke="#526ED3" stroke-opacity="0.05" stroke-width="5" stroke-miterlimit="10"/>
</g>
</svg>
