<svg width="17" height="16" viewBox="0 0 17 16" fill="none" xmlns="http://www.w3.org/2000/svg">
<g id="16px / tuiIconSettings" clip-path="url(#clip0_248_5697)">
<path id="Vector (Stroke)" fill-rule="evenodd" clip-rule="evenodd" d="M6.37868 5.87871C6.94129 5.3161 7.70435 5.00003 8.5 5.00003C9.29565 5.00003 10.0587 5.3161 10.6213 5.87871C11.1839 6.44132 11.5 7.20438 11.5 8.00003C11.5 8.79568 11.1839 9.55874 10.6213 10.1214C10.0587 10.684 9.29565 11 8.5 11C7.70435 11 6.94129 10.684 6.37868 10.1214C5.81607 9.55874 5.5 8.79568 5.5 8.00003C5.5 7.20438 5.81607 6.44132 6.37868 5.87871ZM8.5 9.00003C8.76522 9.00003 9.01957 8.89467 9.20711 8.70714C9.39464 8.5196 9.5 8.26525 9.5 8.00003C9.5 7.73481 9.39464 7.48046 9.20711 7.29292C9.01957 7.10539 8.76522 7.00003 8.5 7.00003C8.23478 7.00003 7.98043 7.10539 7.79289 7.29292C7.60536 7.48046 7.5 7.73481 7.5 8.00003C7.5 8.26525 7.60536 8.5196 7.79289 8.70714C7.98043 8.89467 8.23478 9.00003 8.5 9.00003Z" fill="#85DB84"/>
<path id="Vector" d="M13.1365 10.52C13.0991 10.3137 13.1243 10.1008 13.209 9.9089C13.2896 9.72058 13.4236 9.55995 13.5944 9.44682C13.7652 9.33369 13.9654 9.273 14.1703 9.27222H14.2275C14.565 9.27222 14.8887 9.13816 15.1273 8.89953C15.3659 8.66091 15.5 8.33726 15.5 7.99979C15.5 7.66232 15.3659 7.33868 15.1273 7.10005C14.8887 6.86143 14.565 6.72737 14.2275 6.72737H14.1197C13.9148 6.72659 13.7146 6.66589 13.5438 6.55276C13.373 6.43963 13.239 6.27901 13.1584 6.09068V6.04009C13.0735 5.84807 13.0482 5.63502 13.0856 5.42846C13.1231 5.22189 13.2216 5.03129 13.3684 4.88126L13.4066 4.84307C13.6455 4.60421 13.7796 4.28025 13.7796 3.94245C13.7796 3.60465 13.6455 3.28069 13.4066 3.04183C13.1677 2.80297 12.8437 2.66878 12.5059 2.66878C12.1681 2.66878 11.8441 2.80297 11.6053 3.04183L11.5671 3.08001C11.4171 3.22665 11.2267 3.32503 11.0203 3.36245C10.8139 3.39988 10.6011 3.37465 10.4092 3.29001C10.221 3.20943 10.0605 3.07561 9.94734 2.905C9.83422 2.73439 9.77343 2.53443 9.77247 2.32973V2.27245C9.77247 1.93499 9.6384 1.61134 9.39977 1.37271C9.16114 1.13409 8.83748 1.00003 8.5 1.00003C8.16252 1.00003 7.83886 1.13409 7.60023 1.37271C7.3616 1.61134 7.22753 1.93499 7.22753 2.27245V2.38032C7.22675 2.58518 7.16605 2.78535 7.05292 2.95614C6.93979 3.12694 6.77916 3.26092 6.59082 3.34156H6.54023C6.3482 3.42641 6.13515 3.45175 5.92858 3.41432C5.72201 3.37688 5.5314 3.27839 5.38136 3.13155L5.34317 3.09337C5.10431 2.85464 4.78038 2.72057 4.44266 2.72066C4.10494 2.72075 3.78108 2.85499 3.54234 3.09385C3.3036 3.33271 3.16953 3.65662 3.16962 3.99433C3.16971 4.33204 3.30395 4.65589 3.54282 4.89462L3.581 4.9328C3.72765 5.08276 3.82603 5.27319 3.86346 5.47956C3.90089 5.68593 3.87566 5.89878 3.79101 6.09068C3.71826 6.28847 3.58768 6.4598 3.41624 6.58237C3.2448 6.70495 3.04044 6.7731 2.82974 6.77796H2.77247C2.43499 6.77796 2.11133 6.91202 1.8727 7.15064C1.63406 7.38927 1.5 7.71292 1.5 8.05038C1.5 8.38785 1.63406 8.7115 1.8727 8.95012C2.11133 9.18875 2.43499 9.32281 2.77247 9.32281H2.88034C3.08521 9.32359 3.28538 9.38428 3.45618 9.49741C3.62698 9.61054 3.76096 9.77117 3.84161 9.9595C3.92646 10.1515 3.9518 10.3646 3.91437 10.5711C3.87693 10.7777 3.77844 10.9683 3.6316 11.1183L3.59341 11.1565C3.47364 11.2744 3.37839 11.4149 3.31318 11.5698C3.24796 11.7247 3.21406 11.891 3.21343 12.0591C3.2128 12.2272 3.24545 12.3937 3.3095 12.5491C3.37356 12.7045 3.46774 12.8457 3.58663 12.9645C3.70552 13.0834 3.84676 13.1775 4.0022 13.2414C4.15764 13.3054 4.3242 13.338 4.49229 13.3373C4.66038 13.3365 4.82666 13.3025 4.98154 13.2372C5.13643 13.172 5.27686 13.0766 5.39472 12.9568L5.43291 12.9186C5.58286 12.772 5.7733 12.6736 5.97968 12.6362C6.18606 12.5987 6.39892 12.624 6.59082 12.7086C6.78862 12.7814 6.95995 12.9119 7.08253 13.0834C7.20511 13.2548 7.27326 13.4592 7.27813 13.6699V13.7271C7.27813 14.0647 7.41224 14.3885 7.65096 14.6272C7.88969 14.8659 8.21346 15 8.55107 15C8.88868 15 9.21245 14.8659 9.45118 14.6272C9.6899 14.3885 9.82401 14.0647 9.82401 13.7271V13.6183C9.8249 13.4137 9.88554 13.2138 9.99849 13.0432C10.1114 12.8726 10.2718 12.7387 10.4598 12.658C10.6518 12.5732 10.8648 12.5478 11.0714 12.5853C11.278 12.6227 11.4686 12.7212 11.6186 12.868L11.6568 12.9062C11.8957 13.1449 12.2196 13.279 12.5573 13.2789C12.8951 13.2788 13.2189 13.1446 13.4577 12.9057C13.6964 12.6669 13.8305 12.343 13.8304 12.0052C13.8303 11.6675 13.696 11.3437 13.4572 11.105L13.419 11.0668C13.2723 10.9168 13.174 10.7264 13.1365 10.52Z" stroke="#85DB84" stroke-width="2" stroke-linecap="round" stroke-linejoin="round"/>
</g>
<defs>
<clipPath id="clip0_248_5697">
<rect width="16" height="16" fill="white" transform="translate(0.5 3.05176e-05)"/>
</clipPath>
</defs>
</svg>
