<svg width="48" height="46" viewBox="0 0 48 46" fill="none" xmlns="http://www.w3.org/2000/svg">
<g id="Group">
<path id="Vector" fill-rule="evenodd" clip-rule="evenodd" d="M24.0002 -0.0065918C10.974 -0.0065918 0.411133 10.554 0.411133 23.5825C0.411133 34.0051 7.17012 42.8469 16.5428 45.9665C17.7213 46.1852 18.1541 45.4547 18.1541 44.8317C18.1541 44.2692 18.1322 42.411 18.1221 40.4399C11.5596 41.8668 10.1748 37.6567 10.1748 37.6567C9.10176 34.9301 7.55566 34.2051 7.55566 34.2051C5.41504 32.7411 7.71699 32.7715 7.71699 32.7715C10.0854 32.9375 11.333 35.2024 11.333 35.2024C13.4369 38.8079 16.8514 37.7657 18.1975 37.1633C18.4092 35.6387 19.0205 34.5977 19.6951 34.0086C14.4557 33.4129 8.94746 31.3899 8.94746 22.3512C8.94746 19.7758 9.86934 17.6715 11.3783 16.0192C11.133 15.4254 10.3256 13.0262 11.6064 9.777C11.6064 9.777 13.5869 9.14302 18.0947 12.195C19.9768 11.6719 21.9951 11.409 24.0002 11.4C26.0041 11.409 28.0236 11.6711 29.9092 12.1942C34.4115 9.14224 36.3896 9.77622 36.3896 9.77622C37.6736 13.025 36.8662 15.4247 36.6213 16.0184C38.1338 17.6708 39.049 19.775 39.049 22.3504C39.049 31.4106 33.5307 33.4051 28.2779 33.9895C29.1244 34.7215 29.8783 36.1575 29.8783 38.3579C29.8783 41.5141 29.851 44.0543 29.851 44.8313C29.851 45.459 30.276 46.1946 31.4713 45.9629C40.8385 42.8403 47.5896 34.0012 47.5896 23.5825C47.5893 10.5547 37.0275 -0.0062012 24.0002 -0.0062012V-0.0065918Z" fill="#181616"/>
<path id="Vector_2" d="M9.34555 33.8617C9.29359 33.9789 9.10922 34.0141 8.94125 33.934C8.76938 33.8574 8.67367 33.6977 8.72914 33.5801C8.77992 33.459 8.96469 33.4258 9.13539 33.5066C9.30727 33.5836 9.40492 33.7449 9.34516 33.8621L9.34555 33.8617ZM10.301 34.9277C10.1889 35.032 9.96899 34.9836 9.81977 34.8184C9.66508 34.6543 9.63617 34.4344 9.75063 34.3285C9.86703 34.2246 10.0803 34.2738 10.235 34.4379C10.3889 34.6043 10.4194 34.8223 10.3014 34.9281L10.301 34.9277ZM11.2315 36.2859C11.087 36.3867 10.8502 36.2926 10.7041 36.0828C10.5596 35.8727 10.5596 35.6207 10.708 35.5203C10.8538 35.4195 11.087 35.5105 11.2354 35.7184C11.3791 35.9312 11.3791 36.1832 11.2315 36.2855V36.2859ZM12.5053 37.5988C12.3764 37.7414 12.1006 37.7031 11.8991 37.509C11.6932 37.3187 11.6358 37.048 11.7651 36.9059C11.8963 36.7629 12.1733 36.8027 12.376 36.9957C12.5819 37.1855 12.644 37.4566 12.5061 37.5984L12.5053 37.5988ZM14.2631 38.3609C14.2057 38.5457 13.9409 38.6297 13.6733 38.5508C13.4065 38.4699 13.2319 38.2539 13.2866 38.0672C13.3413 37.8809 13.608 37.7937 13.8772 37.8777C14.144 37.9582 14.3186 38.173 14.2631 38.3609ZM16.194 38.5019C16.2006 38.6965 15.9741 38.8574 15.694 38.8613C15.4116 38.868 15.183 38.7101 15.1803 38.5187C15.1803 38.3223 15.4022 38.1633 15.6842 38.1578C15.9643 38.1527 16.1944 38.309 16.1944 38.5016L16.194 38.5019ZM17.9901 38.1965C18.0237 38.3859 17.8288 38.5809 17.5502 38.6328C17.2768 38.6836 17.0229 38.5656 16.9877 38.3777C16.9541 38.1832 17.1526 37.9883 17.426 37.9379C17.7049 37.8898 17.9549 38.0043 17.9901 38.1969V38.1965Z" fill="#181616"/>
</g>
</svg>
