<svg width="93" height="40" viewBox="0 0 93 40" fill="none" xmlns="http://www.w3.org/2000/svg">
<path d="M42.5312 6.96253L67.5782 0.468872L55.5186 23.475L54.0343 10.8587L42.5312 6.96253Z" fill="#6A7293"/>
<path fill-rule="evenodd" clip-rule="evenodd" d="M64.7183 8.5787C77.1849 12.2819 87.2819 19.6348 92.783 28.9289C88.5797 18.2805 78.9719 9.60015 66.5845 5.02196L64.7183 8.5787ZM55.7613 2.21566C52.7598 1.74437 49.6599 1.49756 46.4891 1.49756C25.6601 1.49756 7.89085 12.148 0.97168 27.1157C8.58794 15.836 23.1456 7.76066 40.3056 6.21889L55.7613 2.21566Z" fill="#6A7293"/>
<path d="M7.65006 39.5313H3.19727C5.12681 27.8056 13.5253 19.4318 17.4833 16.7107L27.131 35.6351L31.3983 16.7107H44.9422L43.458 20.0503H34.5524L33.4392 25.9874H40.675L39.7473 28.9559H32.8826L30.6562 39.5313H24.9046C24.597 39.5313 22.981 36.4429 21.1251 32.6665H11.1752L12.6595 29.8835H19.7726C18.4517 27.1387 17.1378 24.3382 16.1846 22.2767C10.8412 26.5811 8.2685 35.5732 7.65006 39.5313Z" fill="#6A7293"/>
<path d="M46.241 16.7107L39.7473 39.5313H44.2001L48.6529 22.2767L51.8069 39.5313H55.1465L64.4232 21.7201L61.6402 39.5313H69.6181L73.3288 32.6665H83.162L81.6778 29.8835H74.2565L77.7816 22.2767C84.3123 28.659 86.4398 36.4391 86.6872 39.5313H90.7689C91.6595 33.0005 81.8633 21.5964 76.8539 16.7107L66.093 37.8615L69.6181 16.7107H62.9389L54.0333 32.6665L51.8069 16.7107H46.241Z" fill="#6A7293"/>
</svg>
