<svg width="111" height="32" viewBox="0 0 111 32" fill="none" xmlns="http://www.w3.org/2000/svg">
<g clip-path="url(#clip0_465_3007)">
<mask id="mask0_465_3007" style="mask-type:luminance" maskUnits="userSpaceOnUse" x="1" y="0" width="257" height="32">
<path d="M257.02 0.139893H1.52051V31.8602H257.02V0.139893Z" fill="white"/>
</mask>
<g mask="url(#mask0_465_3007)">
<path d="M56.8296 15.8224C56.8284 16.8953 56.7183 17.9655 56.5007 19.016C56.1578 20.6676 55.5498 22.2525 54.7002 23.7091C54.6136 23.8564 54.527 24.0038 54.4318 24.1424C53.0276 26.3974 51.0728 28.257 48.7518 29.5458C46.4309 30.8347 43.8203 31.5104 41.1662 31.5091H17.1799C15.123 31.5091 13.0862 31.1035 11.1858 30.3154C9.28549 29.5273 7.55877 28.3722 6.10429 26.9158C4.64981 25.4596 3.49607 23.7308 2.7089 21.8281C1.92175 19.9254 1.5166 17.8862 1.5166 15.8267C1.5166 13.7673 1.92175 11.728 2.7089 9.82532C3.49607 7.92261 4.64981 6.19376 6.10429 4.73752C7.55877 3.28126 9.28549 2.1261 11.1858 1.33798C13.0862 0.549866 15.123 0.14423 17.1799 0.14423H25.5461V7.51096H17.1799C14.9749 7.51096 12.8601 8.38796 11.3009 9.9491C9.74166 11.5102 8.86571 13.6276 8.86571 15.8354C8.86571 18.0431 9.74166 20.1605 11.3009 21.7216C12.8601 23.2827 14.9749 24.1598 17.1799 24.1598H41.1619C42.9608 24.1599 44.7111 23.5751 46.1497 22.4936C47.5882 21.412 48.637 19.8921 49.1385 18.1624C49.516 16.8516 49.5694 15.4685 49.2943 14.1324C48.9046 12.2614 47.8834 10.5818 46.4024 9.3759C44.9213 8.1701 43.0708 7.51154 41.1619 7.51096H36.5221V20.537H29.1644V0.139893H41.1575C43.8103 0.145572 46.4183 0.824216 48.7381 2.11245C51.0579 3.4007 53.0138 5.25652 54.4231 7.50664C54.6194 7.81288 54.8012 8.12482 54.9685 8.4426C55.8251 10.0399 56.3964 11.7748 56.6565 13.569C56.7688 14.3149 56.8266 15.068 56.8296 15.8224Z" fill="#6A7293"/>
<path d="M111.805 15.8439V31.4831H104.447V15.8439C104.447 13.6362 103.571 11.5188 102.012 9.95768C100.453 8.39654 98.3376 7.51948 96.1329 7.51948C93.9281 7.51948 91.8131 8.39654 90.2535 9.95768C88.6947 11.5188 87.8184 13.6362 87.8184 15.8439V31.4831H80.4605V15.8439C80.4605 13.6362 79.5849 11.5188 78.0254 9.95768C76.4665 8.39654 74.3515 7.51948 72.1466 7.51948C69.9415 7.51948 67.8268 8.39654 66.2676 9.95768C64.7083 11.5188 63.8324 13.6362 63.8324 15.8439V31.4831H56.4746V15.8439C56.4731 12.6261 57.4604 9.48577 59.3028 6.84912C61.145 4.21249 63.753 2.20727 66.7727 1.10564C69.7923 0.00400083 73.0774 -0.140681 76.1823 0.691221C79.2864 1.52313 82.0603 3.29133 84.1265 5.75581C86.1942 3.29377 88.9681 1.52783 92.0721 0.697397C95.1755 -0.133031 98.4596 0.0122201 101.478 1.11347C104.497 2.21471 107.104 4.21867 108.947 6.85367C110.789 9.48866 111.778 12.6272 111.779 15.8439H111.805Z" fill="#6A7293"/>
<path d="M56.6159 6.3324L47.1133 15.8466L56.6159 25.3608L66.1185 15.8466L56.6159 6.3324Z" fill="white"/>
</g>
</g>
<defs>
<clipPath id="clip0_465_3007">
<rect width="110" height="32" fill="white" transform="translate(0.97168)"/>
</clipPath>
</defs>
</svg>
