<svg width="24" height="24" viewBox="0 0 24 24" fill="none" xmlns="http://www.w3.org/2000/svg" data-reactroot="">
<path stroke-linejoin="round" stroke-linecap="round" stroke-miterlimit="10" stroke-width="1" stroke="#000" d="M6.15 17.46C5.95 17.26 5.95 16.95 6.15 16.75L16.75 6.15C16.95 5.95 17.26 5.95 17.46 6.15C17.66 6.35 17.66 6.66 17.46 6.86L6.85 17.46C6.66 17.66 6.34 17.66 6.15 17.46Z"></path>
<path stroke-linejoin="round" stroke-linecap="round" stroke-miterlimit="10" stroke-width="1" stroke="#000" d="M6.15 6.15C6.35 5.95 6.66 5.95 6.86 6.15L17.47 16.76C17.67 16.96 17.67 17.27 17.47 17.47C17.27 17.67 16.96 17.67 16.76 17.47L6.15 6.85C5.95 6.66 5.95 6.34 6.15 6.15Z"></path>
</svg>
