<svg width="17" height="16" viewBox="0 0 17 16" fill="none" xmlns="http://www.w3.org/2000/svg">
<path id="Union" fill-rule="evenodd" clip-rule="evenodd" d="M9.92314 1.27826C10.4894 1.04371 11.0963 0.922991 11.7092 0.922991C12.322 0.922991 12.9289 1.04371 13.4952 1.27826C14.0614 1.5128 14.5759 1.85658 15.0092 2.28995C15.4426 2.72332 15.7864 3.23782 16.021 3.80405C16.2555 4.37029 16.3762 4.97718 16.3762 5.59007C16.3762 6.20296 16.2555 6.80985 16.021 7.37609C15.7864 7.94225 15.4427 8.45668 15.0094 8.89001C15.0094 8.89007 15.0095 8.88995 15.0094 8.89001L9.11626 14.7842C8.92872 14.9717 8.67437 15.0771 8.40915 15.0771C8.14394 15.0771 7.88958 14.9717 7.70205 14.7842L1.80855 8.88968L1.79319 8.87395C0.950525 7.99216 0.486463 6.81557 0.500301 5.59596C0.514138 4.37635 1.00478 3.21059 1.86723 2.34814C2.72968 1.48569 3.89543 0.995055 5.11504 0.981217C6.33465 0.96738 7.51124 1.43144 8.39303 2.2741L8.40876 2.28946C8.84203 1.85632 9.35712 1.51271 9.92314 1.27826ZM13.595 3.70417C13.3474 3.4565 13.0534 3.26005 12.7298 3.12601C12.4062 2.99198 12.0594 2.92299 11.7092 2.92299C11.3589 2.92299 11.0121 2.99198 10.6885 3.12601C10.3649 3.26005 10.0709 3.4565 9.82327 3.70417L9.11576 4.41068C8.72535 4.80053 8.09296 4.80053 7.70255 4.41068L7.00394 3.71306C6.50077 3.23585 5.83143 2.97322 5.13773 2.98109C4.44066 2.989 3.77437 3.26942 3.28144 3.76236C2.78851 4.25529 2.50808 4.92158 2.50017 5.61865C2.4923 6.31234 2.75494 6.98168 3.23214 7.48485L8.40915 12.6629L13.5945 7.47646C13.8422 7.22881 14.0392 6.93429 14.1732 6.61071C14.3072 6.28713 14.3762 5.94031 14.3762 5.59007C14.3762 5.23983 14.3072 4.89301 14.1732 4.56943C14.0392 4.24585 13.8427 3.95182 13.595 3.70417Z" fill="#BD65A4"/>
</svg>
