<svg width="193" height="42" viewBox="0 0 193 42" fill="none" xmlns="http://www.w3.org/2000/svg">
<path fill-rule="evenodd" clip-rule="evenodd" d="M31.1798 41.0454H14.5163C14.1289 41.0478 13.7425 41.006 13.3648 40.9209L16.5424 24.5328H29.1572L32.3347 40.9235L31.9623 40.9975L31.1798 41.0454ZM13.479 24.5328L10.0696 39.0305C9.81911 38.7601 9.60011 38.4627 9.41673 38.1442L1.08585 23.9063C0.568988 23.0232 0.296875 22.0214 0.296875 21.0017C0.296875 19.9819 0.568988 18.9802 1.08585 18.0971L9.41673 3.85918C9.93347 2.97614 10.6767 2.24284 11.5717 1.73298C12.4667 1.22312 13.482 0.954664 14.5155 0.95459H31.1789C32.2124 0.954664 33.2277 1.22312 34.1227 1.73298C35.0177 2.24284 35.761 2.97614 36.2777 3.85918L44.6103 18.0971C45.1272 18.9802 45.3993 19.9819 45.3993 21.0017C45.3993 22.0214 45.1272 23.0232 44.6103 23.9063L36.2786 38.1442C36.0955 38.4615 35.877 38.7576 35.6274 39.0271L32.218 24.5328H35.1748L34.3795 22.5709H31.7568L30.6863 18.0172H38.9277C37.5494 17.3756 36.5743 16.5876 36.3459 15.47C32.4302 15.4725 30.6445 14.1354 29.395 11.4671C25.067 12.256 20.6291 12.256 16.3012 11.4671C15.0516 14.1354 13.2651 15.4725 9.35024 15.47C9.12011 16.5952 8.13053 17.3882 6.76848 18.0172H15.0099L13.9393 22.5709H11.3158L10.5205 24.5328H13.479ZM17.8056 18.0172H27.8906L28.7736 22.5709H16.9259L17.8056 18.0172Z" fill="#6A7293"/>
<path d="M67.0615 31.8245C65.4178 31.8245 63.8442 31.594 62.3408 31.1329C60.8374 30.6518 59.6447 30.0405 58.7627 29.2988L60.1158 26.2619C60.9577 26.9234 62 27.4746 63.2429 27.9156C64.4857 28.3566 65.7586 28.5771 67.0615 28.5771C68.164 28.5771 69.0561 28.4569 69.7376 28.2163C70.4192 27.9758 70.9203 27.655 71.241 27.2541C71.5618 26.8332 71.7221 26.3621 71.7221 25.8409C71.7221 25.1995 71.4916 24.6883 71.0305 24.3075C70.5695 23.9065 69.9681 23.5958 69.2264 23.3753C68.5048 23.1348 67.693 22.9143 66.7909 22.7138C65.9089 22.5134 65.0169 22.2829 64.1148 22.0223C63.2328 21.7416 62.421 21.3908 61.6793 20.9699C60.9577 20.5289 60.3663 19.9476 59.9053 19.2259C59.4442 18.5043 59.2137 17.5822 59.2137 16.4597C59.2137 15.3171 59.5144 14.2747 60.1158 13.3326C60.7372 12.3704 61.6693 11.6087 62.9121 11.0474C64.175 10.4661 65.7686 10.1754 67.693 10.1754C68.9558 10.1754 70.2087 10.3358 71.4515 10.6565C72.6943 10.9772 73.7768 11.4383 74.6989 12.0396L73.4661 15.0765C72.5239 14.5153 71.5517 14.1043 70.5495 13.8437C69.5472 13.5631 68.585 13.4228 67.6629 13.4228C66.5804 13.4228 65.6984 13.5531 65.0169 13.8137C64.3554 14.0743 63.8643 14.415 63.5435 14.836C63.2429 15.2569 63.0925 15.738 63.0925 16.2793C63.0925 16.9207 63.313 17.4419 63.754 17.8428C64.2151 18.2237 64.8064 18.5243 65.5281 18.7448C66.2697 18.9653 67.0916 19.1858 67.9937 19.4063C68.8957 19.6068 69.7877 19.8373 70.6697 20.0979C71.5718 20.3585 72.3836 20.6993 73.1053 21.1202C73.8469 21.5412 74.4383 22.1125 74.8793 22.8341C75.3403 23.5558 75.5709 24.4678 75.5709 25.5703C75.5709 26.6929 75.2601 27.7352 74.6387 28.6974C74.0374 29.6395 73.1053 30.4013 71.8424 30.9826C70.5795 31.5439 68.9859 31.8245 67.0615 31.8245Z" fill="#6A7293"/>
<path d="M82.5138 21.3307H91.2336V24.2774H82.5138V21.3307ZM83.025 28.4869H92.5867V31.5238H79.2364V14.3248H92.2559V17.3918H83.025V28.4869Z" fill="#6A7293"/>
<path d="M104.53 31.8245C102.726 31.8245 101.113 31.4436 99.6894 30.6819C98.2661 29.9001 97.1436 28.8377 96.3217 27.4947C95.4998 26.1516 95.0889 24.6282 95.0889 22.9243C95.0889 21.2205 95.4998 19.707 96.3217 18.384C97.1436 17.041 98.2661 15.9886 99.6894 15.2269C101.113 14.4451 102.726 14.0542 104.53 14.0542C106.094 14.0542 107.457 14.2948 108.62 14.7758C109.802 15.2369 110.805 15.9686 111.626 16.9708L109.161 19.3161C108.559 18.6145 107.878 18.1034 107.116 17.7827C106.354 17.4419 105.533 17.2715 104.651 17.2715C103.548 17.2715 102.556 17.512 101.674 17.9931C100.812 18.4742 100.13 19.1458 99.6292 20.0077C99.1481 20.8496 98.9076 21.8218 98.9076 22.9243C98.9076 24.0268 99.1481 25.009 99.6292 25.871C100.13 26.733 100.812 27.4045 101.674 27.8856C102.556 28.3667 103.548 28.6072 104.651 28.6072C105.533 28.6072 106.354 28.4368 107.116 28.096C107.878 27.7553 108.559 27.2341 109.161 26.5325L111.626 28.9079C110.805 29.8901 109.802 30.6218 108.62 31.1029C107.437 31.584 106.074 31.8245 104.53 31.8245Z" fill="#6A7293"/>
<path d="M115.27 31.5238V10.4761H124.471C126.756 10.4761 128.761 10.9171 130.485 11.7991C132.209 12.6811 133.552 13.9039 134.514 15.4674C135.476 17.031 135.957 18.8751 135.957 21C135.957 23.1047 135.476 24.9489 134.514 26.5325C133.552 28.096 132.209 29.3188 130.485 30.2008C128.761 31.0828 126.756 31.5238 124.471 31.5238H115.27ZM119.179 28.2163H124.291C125.874 28.2163 127.238 27.9156 128.38 27.3143C129.543 26.7129 130.435 25.871 131.056 24.7885C131.698 23.7061 132.018 22.4432 132.018 21C132.018 19.5366 131.698 18.2738 131.056 17.2114C130.435 16.1289 129.543 15.287 128.38 14.6856C127.238 14.0843 125.874 13.7836 124.291 13.7836H119.179V28.2163Z" fill="#6A7293"/>
<path d="M147.99 31.8245C146.166 31.8245 144.532 31.4436 143.089 30.6819C141.665 29.9001 140.543 28.8377 139.721 27.4947C138.899 26.1516 138.488 24.6282 138.488 22.9243C138.488 21.2205 138.899 19.707 139.721 18.384C140.543 17.041 141.665 15.9886 143.089 15.2269C144.532 14.4451 146.156 14.0542 147.96 14.0542C149.784 14.0542 151.408 14.4451 152.831 15.2269C154.274 15.9886 155.407 17.041 156.228 18.384C157.05 19.707 157.461 21.2205 157.461 22.9243C157.461 24.6282 157.05 26.1516 156.228 27.4947C155.407 28.8377 154.274 29.9001 152.831 30.6819C151.408 31.4436 149.794 31.8245 147.99 31.8245ZM147.96 28.6072C149.062 28.6072 150.034 28.3667 150.876 27.8856C151.738 27.3844 152.41 26.7029 152.891 25.8409C153.372 24.979 153.613 24.0068 153.613 22.9243C153.613 21.8218 153.362 20.8496 152.861 20.0077C152.38 19.1458 151.718 18.4742 150.876 17.9931C150.034 17.512 149.072 17.2715 147.99 17.2715C146.907 17.2715 145.935 17.512 145.073 17.9931C144.211 18.4742 143.53 19.1458 143.029 20.0077C142.547 20.8496 142.307 21.8218 142.307 22.9243C142.307 24.0068 142.547 24.979 143.029 25.8409C143.53 26.7029 144.211 27.3844 145.073 27.8856C145.935 28.3667 146.897 28.6072 147.96 28.6072Z" fill="#6A7293"/>
<path d="M163.544 31.8245C162.342 31.8245 161.249 31.604 160.267 31.163C159.285 30.722 158.503 30.0805 157.922 29.2386L160.237 26.8633C160.658 27.4245 161.139 27.8655 161.68 28.1863C162.221 28.4869 162.813 28.6373 163.454 28.6373C165.098 28.6373 165.92 27.655 165.92 25.6906V17.3918H159.816V14.3248H169.708V25.3598C169.708 27.5448 169.177 29.1685 168.115 30.2309C167.052 31.2933 165.529 31.8245 163.544 31.8245Z" fill="#6A7293"/>
<path d="M182.844 31.8245C181.02 31.8245 179.386 31.4436 177.943 30.6819C176.52 29.9001 175.397 28.8377 174.576 27.4947C173.754 26.1516 173.343 24.6282 173.343 22.9243C173.343 21.2205 173.754 19.707 174.576 18.384C175.397 17.041 176.52 15.9886 177.943 15.2269C179.386 14.4451 181.01 14.0542 182.814 14.0542C184.638 14.0542 186.262 14.4451 187.685 15.2269C189.129 15.9886 190.261 17.041 191.083 18.384C191.905 19.707 192.316 21.2205 192.316 22.9243C192.316 24.6282 191.905 26.1516 191.083 27.4947C190.261 28.8377 189.129 29.9001 187.685 30.6819C186.262 31.4436 184.648 31.8245 182.844 31.8245ZM182.814 28.6072C183.917 28.6072 184.889 28.3667 185.731 27.8856C186.593 27.3844 187.264 26.7029 187.745 25.8409C188.227 24.979 188.467 24.0068 188.467 22.9243C188.467 21.8218 188.216 20.8496 187.715 20.0077C187.234 19.1458 186.573 18.4742 185.731 17.9931C184.889 17.512 183.927 17.2715 182.844 17.2715C181.762 17.2715 180.79 17.512 179.928 17.9931C179.066 18.4742 178.384 19.1458 177.883 20.0077C177.402 20.8496 177.161 21.8218 177.161 22.9243C177.161 24.0068 177.402 24.979 177.883 25.8409C178.384 26.7029 179.066 27.3844 179.928 27.8856C180.79 28.3667 181.752 28.6072 182.814 28.6072Z" fill="#6A7293"/>
</svg>
