<svg width="149" height="42" viewBox="0 0 149 42" fill="none" xmlns="http://www.w3.org/2000/svg">
<g clip-path="url(#clip0_465_2994)">
<path fill-rule="evenodd" clip-rule="evenodd" d="M5.22862 4.88767V6.95899L29.2791 27.3779V29.6436L14.7248 42L0.316406 29.7653V16.466L5.22862 20.6386V27.5116L14.7248 35.5736L23.0438 28.5105L0.316406 9.2127V0H29.2791V20.1247L24.3617 15.952V4.88767H5.22862Z" fill="#6A7293"/>
<path d="M57.3765 20.1271C57.3765 20.8178 57.3331 21.4222 57.2463 21.9403H38.9286C39.2758 23.5808 40.0571 24.8328 41.2291 25.8258C42.4445 26.7755 43.877 27.2504 45.5698 27.2504C46.9588 27.2504 48.1742 26.9482 49.3028 26.387C50.388 25.8258 51.1693 25.0487 51.6468 24.0989H56.9424C56.1177 26.3438 54.6853 28.157 52.6452 29.5385C50.605 30.92 48.2176 31.6108 45.5264 31.6108C42.1841 31.6108 39.3626 30.5315 37.1055 28.3297C34.8483 26.0848 33.7197 23.365 33.7197 20.0839C33.7197 16.8028 34.8483 14.0398 37.1055 11.8381C39.3626 9.6363 42.1841 8.55701 45.5264 8.55701C48.9122 8.55701 51.7336 9.6363 53.9908 11.8381C56.2479 14.0398 57.3765 16.8028 57.3765 20.1271ZM49.6935 14.2989C48.5215 13.3923 47.1325 12.9174 45.5264 12.9174C43.9204 12.9174 42.5313 13.3923 41.3594 14.2989C40.1874 15.2055 39.3626 16.4575 38.972 17.9685H52.1243C51.7336 16.4143 50.9089 15.2055 49.6935 14.2989Z" fill="#6A7293"/>
<path d="M81.6763 31.0927H75.4691L66.6575 21.9402V31.0927H61.7959V0.00891113H66.6575V17.9252L75.2086 9.07501H81.3724L71.2152 20.0407L81.6763 31.0927Z" fill="#6A7293"/>
<path d="M106.766 20.1271C106.766 20.8178 106.723 21.4222 106.636 21.9403H88.3182C88.6655 23.5808 89.4468 24.8328 90.6188 25.8258C91.8342 26.7755 93.2666 27.2504 94.9595 27.2504C96.3485 27.2504 97.5639 26.9482 98.6925 26.387C99.7776 25.8258 100.559 25.0487 101.036 24.0989H106.332C105.507 26.3438 104.075 28.157 102.035 29.5385C99.9947 30.92 97.6073 31.6108 94.9161 31.6108C91.5737 31.6108 88.7523 30.5315 86.4951 28.3297C84.238 26.0848 83.1094 23.365 83.1094 20.0839C83.1094 16.8028 84.238 14.0398 86.4951 11.8381C88.7523 9.6363 91.5737 8.55701 94.9161 8.55701C98.3018 8.55701 101.123 9.6363 103.38 11.8381C105.638 14.0398 106.766 16.8028 106.766 20.1271ZM99.0831 14.2989C97.9111 13.3923 96.5221 12.9174 94.9161 12.9174C93.31 12.9174 91.921 13.3923 90.749 14.2989C89.577 15.2055 88.7523 16.4575 88.3616 17.9685H101.514C101.123 16.4143 100.299 15.2055 99.0831 14.2989Z" fill="#6A7293"/>
<path d="M116.044 12.6584C117.824 10.0681 120.081 8.72974 122.859 8.72974V13.6945C120.689 13.6945 119.039 14.2989 117.824 15.5077C116.652 16.7165 116.044 18.3571 116.044 20.3861V31.0928H111.183V9.07511H116.044V12.6584Z" fill="#6A7293"/>
<path d="M144.11 9.07507H148.972V31.0927H144.11V27.6821C142.157 30.2725 139.596 31.6108 136.34 31.6108C133.215 31.6108 130.611 30.5315 128.571 28.3297C126.487 26.0848 125.445 23.365 125.445 20.0839C125.445 16.8028 126.487 14.0398 128.571 11.8381C130.611 9.6363 133.215 8.55701 136.34 8.55701C139.596 8.55701 142.157 9.85216 144.11 12.4856V9.07507ZM137.295 26.9482C139.249 26.9482 140.855 26.3006 142.157 24.9623C143.459 23.6672 144.11 22.0266 144.11 20.0839C144.11 18.098 143.459 16.5006 142.157 15.1623C140.855 13.8671 139.249 13.2196 137.295 13.2196C135.342 13.2196 133.693 13.8671 132.39 15.1623C131.088 16.5006 130.437 18.098 130.437 20.0839C130.437 22.0266 131.088 23.6672 132.39 24.9623C133.693 26.3006 135.342 26.9482 137.295 26.9482Z" fill="#6A7293"/>
</g>
<defs>
<clipPath id="clip0_465_2994">
<rect width="148.656" height="42" fill="white" transform="translate(0.316406)"/>
</clipPath>
</defs>
</svg>
