<svg width="16" height="16" viewBox="0 0 16 16" fill="none" xmlns="http://www.w3.org/2000/svg">
<path fill-rule="evenodd" clip-rule="evenodd" d="M7.9398 0.685741C8.39239 0.580138 8.85808 0.800261 9.06376 1.21702L10.8913 4.92001L14.9786 5.51709C15.3552 5.5721 15.6679 5.83611 15.7853 6.19813C15.9027 6.56016 15.8044 6.95744 15.5317 7.22298L12.5746 10.103L13.2726 14.1715C13.337 14.5467 13.1828 14.9259 12.8748 15.1496C12.5668 15.3734 12.1584 15.4028 11.8215 15.2256L8.16703 13.3035L4.51254 15.2256C4.17561 15.4028 3.76729 15.3734 3.4593 15.1496C3.1513 14.9259 2.99706 14.5467 3.06143 14.1715L3.75948 10.103L0.802331 7.22298C0.529683 6.95744 0.431397 6.56016 0.548788 6.19813C0.666179 5.83611 0.978894 5.5721 1.35548 5.51709L5.44281 4.92L7.25652 1.24592C7.38195 0.970137 7.62982 0.75807 7.9398 0.685741ZM8.16717 3.91941L7.00372 6.27624C6.85817 6.57109 6.57695 6.77555 6.25158 6.82308L3.64871 7.20331L5.53173 9.03719C5.76764 9.26695 5.87531 9.59812 5.81963 9.92268L5.37537 12.512L7.70152 11.2885C7.99293 11.1353 8.34112 11.1353 8.63254 11.2885L10.9587 12.512L10.5144 9.92268C10.4587 9.59812 10.5664 9.26695 10.8023 9.03719L12.6853 7.20331L10.0825 6.82308C9.75707 6.77554 9.47584 6.57105 9.33029 6.27615L8.16717 3.91941Z" fill="#FF5555"/>
</svg>
