<svg width="1440" height="1305" viewBox="0 0 1440 1305" fill="none" xmlns="http://www.w3.org/2000/svg">
<g opacity="0.2">
<mask id="mask0_213_1725" style="mask-type:alpha" maskUnits="userSpaceOnUse" x="0" y="0" width="1440" height="1305">
<rect width="1440" height="1305" fill="#D9D9D9"/>
</mask>
<g mask="url(#mask0_213_1725)">
</g>
<mask id="mask1_213_1725" style="mask-type:alpha" maskUnits="userSpaceOnUse" x="0" y="0" width="1440" height="1305">
<rect width="1440" height="1305" fill="url(#paint0_linear_213_1725)"/>
</mask>
<g mask="url(#mask1_213_1725)">
<path d="M1132.5 974C1132.5 1181.17 948.042 1349.5 720 1349.5C491.958 1349.5 307.5 1181.17 307.5 974C307.5 766.832 491.958 598.5 720 598.5C948.042 598.5 1132.5 766.832 1132.5 974Z" stroke="#526ED3" stroke-opacity="0.2" stroke-width="5"/>
<path d="M1192.5 974C1192.5 1211.55 981.177 1404.5 720 1404.5C458.823 1404.5 247.5 1211.55 247.5 974C247.5 736.454 458.823 543.5 720 543.5C981.177 543.5 1192.5 736.454 1192.5 974Z" stroke="#526ED3" stroke-opacity="0.2" stroke-width="5"/>
<path d="M1246.5 974C1246.5 1238.61 1011 1453.5 720 1453.5C428.998 1453.5 193.5 1238.61 193.5 974C193.5 709.393 428.998 494.5 720 494.5C1011 494.5 1246.5 709.393 1246.5 974Z" stroke="#526ED3" stroke-opacity="0.2" stroke-width="5"/>
<path d="M1307.5 974C1307.5 1269.54 1044.69 1509.5 720 1509.5C395.311 1509.5 132.5 1269.54 132.5 974C132.5 678.464 395.311 438.5 720 438.5C1044.69 438.5 1307.5 678.464 1307.5 974Z" stroke="#526ED3" stroke-opacity="0.2" stroke-width="5"/>
<path d="M1370.5 974C1370.5 1301.01 1079.49 1566.5 720 1566.5C360.515 1566.5 69.5 1301.01 69.5 974C69.5 646.985 360.515 381.5 720 381.5C1079.49 381.5 1370.5 646.985 1370.5 974Z" stroke="#526ED3" stroke-opacity="0.2" stroke-width="5"/>
<path d="M1438.5 974C1438.5 1335.26 1117.04 1628.5 720 1628.5C322.96 1628.5 1.5 1335.26 1.5 974C1.5 612.743 322.96 319.5 720 319.5C1117.04 319.5 1438.5 612.743 1438.5 974Z" stroke="#526ED3" stroke-opacity="0.2" stroke-width="5"/>
<path d="M1518.5 974C1518.5 1375.57 1161.22 1701.5 720 1701.5C278.777 1701.5 -78.5 1375.57 -78.5 974C-78.5 572.426 278.777 246.5 720 246.5C1161.22 246.5 1518.5 572.426 1518.5 974Z" stroke="#526ED3" stroke-opacity="0.2" stroke-width="5"/>
<path d="M1595.5 974C1595.5 1414.23 1203.75 1771.5 720 1771.5C236.251 1771.5 -155.5 1414.23 -155.5 974C-155.5 533.767 236.251 176.5 720 176.5C1203.75 176.5 1595.5 533.767 1595.5 974Z" stroke="#526ED3" stroke-opacity="0.2" stroke-width="5"/>
<path d="M1675.5 974C1675.5 1454.55 1247.93 1844.5 720 1844.5C192.068 1844.5 -235.5 1454.55 -235.5 974C-235.5 493.45 192.068 103.5 720 103.5C1247.93 103.5 1675.5 493.45 1675.5 974Z" stroke="#526ED3" stroke-opacity="0.2" stroke-width="5"/>
<path d="M1756.5 974C1756.5 1495.42 1292.67 1918.5 720 1918.5C147.334 1918.5 -316.5 1495.42 -316.5 974C-316.5 452.58 147.334 29.5 720 29.5C1292.67 29.5 1756.5 452.58 1756.5 974Z" stroke="#526ED3" stroke-opacity="0.2" stroke-width="5"/>
<path d="M1845.5 974C1845.5 1540.15 1341.82 1999.5 720 1999.5C98.18 1999.5 -405.5 1540.15 -405.5 974C-405.5 407.845 98.18 -51.5 720 -51.5C1341.82 -51.5 1845.5 407.845 1845.5 974Z" stroke="#526ED3" stroke-opacity="0.2" stroke-width="5"/>
<path d="M1945.5 974C1945.5 1590.41 1397.05 2090.5 720 2090.5C42.9512 2090.5 -505.5 1590.41 -505.5 974C-505.5 357.588 42.9512 -142.5 720 -142.5C1397.05 -142.5 1945.5 357.588 1945.5 974Z" stroke="#526ED3" stroke-opacity="0.2" stroke-width="5"/>
</g>
</g>
<defs>
<linearGradient id="paint0_linear_213_1725" x1="720" y1="962.5" x2="720" y2="1305" gradientUnits="userSpaceOnUse">
<stop offset="0.554121" stop-color="white"/>
<stop offset="1" stop-color="white" stop-opacity="0"/>
</linearGradient>
</defs>
</svg>
