<svg width="81" height="80" viewBox="0 0 81 80" fill="none" xmlns="http://www.w3.org/2000/svg">
<circle cx="40.5" cy="40" r="40" fill="#FF97B8" fill-opacity="0.16"/>
<path d="M62.2932 31.9451L52.2932 27.1239C51.949 26.9591 51.551 26.9591 51.2068 27.1239L41.2068 31.9451C40.7747 32.1538 40.5 32.5914 40.5 33.0712C40.5 39.58 43.47 45.7 48.6494 49.8613L50.9675 51.7241C51.1958 51.9078 51.4729 52 51.75 52C52.0271 52 52.3042 51.9078 52.5325 51.7241L54.8506 49.8613C60.03 45.7 63 39.58 63 33.0712C63 32.5914 62.7253 32.1538 62.2932 31.9451ZM51.7878 45.75C51.0969 45.75 50.5317 45.1903 50.5317 44.5C50.5317 43.8097 51.0847 43.25 51.7744 43.25H51.7878C52.4775 43.25 53.0378 43.8097 53.0378 44.5C53.0378 45.1903 52.4775 45.75 51.7878 45.75ZM53.9668 38.7755C53.6055 39.0404 53 39.6056 53 40.4216V40.75C53 41.4403 52.4409 42 51.75 42C51.0591 42 50.5 41.4403 50.5 40.75V40.4216C50.5 39.0197 51.2251 37.6848 52.4885 36.7595C52.8132 36.5209 53 36.1528 53 35.75C53 35.0609 52.4397 34.5 51.75 34.5C51.0603 34.5 50.5 35.0609 50.5 35.75C50.5 36.4403 49.9409 37 49.25 37C48.5591 37 48 36.4403 48 35.75C48 33.6821 49.6821 32 51.75 32C53.8179 32 55.5 33.6821 55.5 35.75C55.5 36.9396 54.9263 38.0706 53.9668 38.7755Z" fill="#BD65A4"/>
<path d="M50.1838 52.6976L47.8669 50.8354C42.3909 46.436 39.25 39.9614 39.25 33.0712C39.25 32.1178 39.8042 31.234 40.6636 30.8196L50.6636 25.9978C51.0029 25.8354 51.3777 25.7506 51.75 25.7506C52.1223 25.7506 52.4971 25.8354 52.8328 25.9966L53 26.0772V23.25C53 22.5597 52.4409 22 51.75 22H29.25C28.5591 22 28 22.5597 28 23.25V55.75C28 56.4403 28.5591 57 29.25 57H51.75C52.4409 57 53 56.4403 53 55.75V52.9106C52.622 53.1294 52.1901 53.25 51.75 53.25C51.1824 53.25 50.6257 53.0541 50.1838 52.6976ZM36.3838 51.6338L33.8838 54.1338C33.6396 54.3779 33.3198 54.5 33 54.5C32.6802 54.5 32.3604 54.3779 32.1162 54.1338L30.8662 52.8838C30.3779 52.3955 30.3779 51.6045 30.8662 51.1162C31.3545 50.6279 32.1455 50.6279 32.6338 51.1162L33 51.4824L34.6162 49.8662C35.1045 49.3779 35.8955 49.3779 36.3838 49.8662C36.8721 50.3545 36.8721 51.1455 36.3838 51.6338ZM36.3838 44.8662C36.8721 45.3545 36.8721 46.1455 36.3838 46.6338C36.1396 46.8779 35.8198 47 35.5 47C35.1802 47 34.8604 46.8779 34.6162 46.6338L33.625 45.6426L32.6338 46.6338C32.3896 46.8779 32.0698 47 31.75 47C31.4302 47 31.1104 46.8779 30.8662 46.6338C30.3779 46.1455 30.3779 45.3545 30.8662 44.8662L31.8574 43.875L30.8662 42.8838C30.3779 42.3955 30.3779 41.6045 30.8662 41.1162C31.3545 40.6279 32.1455 40.6279 32.6338 41.1162L33.625 42.1074L34.6162 41.1162C35.1045 40.6279 35.8955 40.6279 36.3838 41.1162C36.8721 41.6045 36.8721 42.3955 36.3838 42.8838L35.3926 43.875L36.3838 44.8662ZM36.3838 34.1338L33.8838 36.6338C33.6396 36.8779 33.3198 37 33 37C32.6802 37 32.3604 36.8779 32.1162 36.6338L30.8662 35.3838C30.3779 34.8955 30.3779 34.1045 30.8662 33.6162C31.3545 33.1279 32.1455 33.1279 32.6338 33.6162L33 33.9824L34.6162 32.3662C35.1045 31.8779 35.8955 31.8779 36.3838 32.3662C36.8721 32.8545 36.8721 33.6455 36.3838 34.1338ZM36.3838 26.6338L33.8838 29.1338C33.6396 29.3779 33.3198 29.5 33 29.5C32.6802 29.5 32.3604 29.3779 32.1162 29.1338L30.8662 27.8838C30.3779 27.3955 30.3779 26.6045 30.8662 26.1162C31.3545 25.6279 32.1455 25.6279 32.6338 26.1162L33 26.4824L34.6162 24.8662C35.1045 24.3779 35.8955 24.3779 36.3838 24.8662C36.8721 25.3545 36.8721 26.1455 36.3838 26.6338Z" fill="#BD65A4"/>
</svg>
