<svg width="202" height="202" viewBox="0 0 202 202" fill="none" xmlns="http://www.w3.org/2000/svg">
<g id="JS">
<g id="Ellipse" filter="url(#filter0_d_1_7247)">
<circle cx="100.563" cy="70.563" r="40.468" transform="rotate(15 100.563 70.563)" fill="white"/>
</g>
<g id="Group 1000004719">
<path id="Vector" d="M76 71C76 57.193 87.1928 46 101 46C114.807 46 126 57.193 126 71C126 84.807 114.807 96 101 96C87.1928 96 76 84.807 76 71Z" fill="#F0DB4F"/>
<path id="Vector_2" d="M113.587 73.9929C113.291 72.1497 112.089 70.6016 108.529 69.158C107.293 68.5897 105.914 68.1827 105.503 67.2455C105.357 66.7001 105.338 66.3929 105.43 66.0627C105.695 64.9912 106.974 64.6572 107.988 64.9644C108.641 65.1833 109.259 65.6864 109.632 66.489C111.375 65.3601 111.371 65.3675 112.589 64.5917C112.143 63.9007 111.905 63.5819 111.613 63.2862C110.565 62.115 109.136 61.5119 106.851 61.558L105.661 61.7119C104.52 62.0001 103.433 62.5988 102.796 63.4014C100.884 65.5715 101.429 69.3694 103.756 70.9324C106.049 72.6532 109.417 73.0447 109.847 74.6538C110.266 76.6238 108.399 77.2615 106.544 77.0349C105.177 76.7506 104.417 76.0558 103.595 74.7923C102.082 75.6678 102.082 75.6678 100.526 76.5625C100.895 77.369 101.283 77.734 101.901 78.4327C104.828 81.4012 112.151 81.2553 113.465 76.7622C113.518 76.608 113.872 75.5791 113.587 73.9929ZM98.456 61.7959H94.6771L94.6616 71.5656C94.6616 73.6433 94.7691 75.5481 94.4312 76.1319C93.8784 77.2802 92.4458 77.1379 91.7929 76.9152C91.1284 76.5886 90.7905 76.1242 90.399 75.4678C90.2915 75.2793 90.2108 75.1334 90.1837 75.1221L87.1113 77.0036C87.6222 78.0522 88.3748 78.9623 89.3388 79.5535C90.7789 80.4178 92.7143 80.6828 94.7385 80.218C96.0558 79.8343 97.1925 79.0394 97.7876 77.8295C98.648 76.2433 98.4634 74.3233 98.4557 72.1998C98.475 68.7352 98.456 65.2714 98.456 61.7959Z" fill="#323330"/>
</g>
</g>
<defs>
<filter id="filter0_d_1_7247" x="0.0849609" y="0.0849609" width="200.956" height="200.956" filterUnits="userSpaceOnUse" color-interpolation-filters="sRGB">
<feFlood flood-opacity="0" result="BackgroundImageFix"/>
<feColorMatrix in="SourceAlpha" type="matrix" values="0 0 0 0 0 0 0 0 0 0 0 0 0 0 0 0 0 0 127 0" result="hardAlpha"/>
<feOffset dy="30"/>
<feGaussianBlur stdDeviation="30"/>
<feComposite in2="hardAlpha" operator="out"/>
<feColorMatrix type="matrix" values="0 0 0 0 0.344915 0 0 0 0 0.309028 0 0 0 0 0.432639 0 0 0 0.15 0"/>
<feBlend mode="normal" in2="BackgroundImageFix" result="effect1_dropShadow_1_7247"/>
<feBlend mode="normal" in="SourceGraphic" in2="effect1_dropShadow_1_7247" result="shape"/>
</filter>
</defs>
</svg>
