<svg width="191" height="191" viewBox="0 0 191 191" fill="none" xmlns="http://www.w3.org/2000/svg">
<g filter="url(#filter0_d_1_7292)">
<circle cx="95.8661" cy="65.9838" r="35" transform="rotate(-15 95.8661 65.9838)" fill="white"/>
</g>
<path d="M93.0639 62.5227C93.2084 62.6282 93.3842 62.6907 93.5756 62.6907C94.0444 62.6907 94.4272 62.3196 94.4467 61.8586L94.4663 61.8469L94.7592 56.6672C94.4077 56.7102 94.0561 56.7688 93.7045 56.8469C91.7788 57.2844 90.1108 58.2336 88.8061 59.5149L93.0522 62.5266L93.0639 62.5227ZM92.4975 70.1125C92.448 69.8933 92.3152 69.7018 92.1271 69.5786C91.9391 69.4554 91.7105 69.4102 91.4897 69.4524L91.4819 69.4407L86.3842 70.304C87.1491 72.4219 88.5924 74.2278 90.4897 75.4407L92.4663 70.6672L92.4506 70.6477C92.517 70.4836 92.5405 70.3 92.4975 70.1125ZM90.8022 66.4368C90.9741 66.3899 91.1342 66.2883 91.2553 66.1399C91.5483 65.7727 91.4975 65.2454 91.1459 64.9407L91.1498 64.9211L87.2709 61.4524C86.0881 63.3784 85.5797 65.6431 85.8256 67.8899L90.7983 66.4563L90.8022 66.4368ZM94.5678 67.9602L95.9975 68.6477L97.4272 67.9641L97.7788 66.4211L96.7905 65.1868H95.2045L94.2123 66.4211L94.5678 67.9602ZM97.5366 61.8391C97.5444 62.0188 97.6069 62.1946 97.728 62.343C98.0209 62.7102 98.5483 62.7766 98.9233 62.5032L98.9389 62.511L103.158 59.5188C101.564 57.9602 99.4858 56.9407 97.2397 56.6672L97.5327 61.8391H97.5366ZM100.498 69.429C100.431 69.4172 100.365 69.4094 100.298 69.4133C100.185 69.4172 100.072 69.4485 99.9663 69.4993C99.764 69.5968 99.6072 69.7686 99.5286 69.979C99.45 70.1893 99.4556 70.4219 99.5444 70.6282L99.5366 70.636L101.533 75.4563C103.458 74.2297 104.896 72.3977 105.65 70.2844L100.509 69.4133L100.498 69.429ZM96.7631 71.9836C96.6855 71.8413 96.57 71.7232 96.4293 71.6425C96.2886 71.5618 96.1283 71.5217 95.9663 71.5266C95.6655 71.5383 95.3803 71.7063 95.228 71.9875H95.2241L92.7163 76.5188C94.5119 77.1293 96.4419 77.228 98.2905 76.804C98.6342 76.7258 98.9702 76.6321 99.2944 76.5227L96.7827 71.9797H96.7631V71.9836Z" fill="#486BB3"/>
<path d="M119.65 70.9954L115.572 53.2883C115.465 52.829 115.257 52.3997 114.961 52.0324C114.666 51.6652 114.291 51.3694 113.865 51.1672L97.3649 43.2844C96.8876 43.0575 96.3614 42.9528 95.8336 42.9797C95.4138 43.0004 95.0023 43.1039 94.6227 43.2844L78.1227 51.1672C77.6975 51.3704 77.3233 51.6665 77.0279 52.0336C76.7324 52.4007 76.5232 52.8295 76.4156 53.2883L72.3492 70.9993C72.2548 71.4073 72.2442 71.8303 72.318 72.2426C72.3919 72.6549 72.5487 73.0478 72.7789 73.3977C72.8336 73.4837 72.8961 73.5657 72.9586 73.6477L84.3805 87.8469C84.6776 88.2153 85.0537 88.5123 85.4811 88.7158C85.9084 88.9193 86.3759 89.0242 86.8492 89.0227L105.166 89.0188C106.127 89.0188 107.033 88.5852 107.634 87.843L119.052 73.6399C119.345 73.2725 119.55 72.8439 119.654 72.386C119.757 71.9281 119.756 71.4527 119.65 70.9954ZM113.373 70.7805C113.252 71.3079 112.685 71.6282 112.099 71.5032C112.095 71.5032 112.088 71.5032 112.084 71.4993C112.076 71.4993 112.072 71.4954 112.064 71.4915C111.982 71.4719 111.88 71.4563 111.81 71.4368C111.474 71.3469 111.228 71.2102 110.923 71.093C110.271 70.8587 109.728 70.6633 109.201 70.5852C108.931 70.5657 108.795 70.6907 108.646 70.7883C108.576 70.7727 108.353 70.7337 108.224 70.7141C107.279 73.6868 105.263 76.2649 102.533 77.8743C102.58 77.9876 102.662 78.2297 102.697 78.2727C102.634 78.4407 102.541 78.5969 102.623 78.8547C102.814 79.3508 103.123 79.8391 103.498 80.4212C103.677 80.6907 103.865 80.8977 104.029 81.2102C104.068 81.2844 104.119 81.3977 104.158 81.4758C104.412 82.0188 104.224 82.6438 103.736 82.8782C103.244 83.1165 102.634 82.8665 102.369 82.3196C102.33 82.2415 102.279 82.1399 102.248 82.0657C102.107 81.7454 102.06 81.4719 101.963 81.1594C101.74 80.5032 101.552 79.9602 101.287 79.4993C101.134 79.2766 100.951 79.2493 100.783 79.1946C100.752 79.1399 100.634 78.9251 100.572 78.8157C100.025 79.0227 99.4625 79.1946 98.8766 79.3274C96.3141 79.9094 93.7477 79.6751 91.4586 78.7922L91.236 79.1985C91.068 79.2415 90.9078 79.2883 90.8102 79.4055C90.4508 79.8352 90.3063 80.5227 90.0446 81.179C89.9469 81.4876 89.9 81.7649 89.7594 82.0852C89.7281 82.1594 89.6735 82.261 89.6383 82.3352V82.3391L89.6344 82.343C89.3727 82.886 88.7633 83.136 88.2711 82.9016C87.7828 82.6672 87.5992 82.0422 87.8492 81.4993C87.8883 81.4212 87.9352 81.3079 87.9742 81.2337C88.1383 80.9251 88.3219 80.7141 88.5055 80.4446C88.8805 79.8587 89.2086 79.3352 89.4 78.8391C89.4469 78.6751 89.3766 78.4485 89.3141 78.2805L89.4938 77.8508C86.8649 76.2922 84.7906 73.8118 83.7985 70.7376L83.3688 70.8118C83.2516 70.7454 83.0211 70.593 82.8024 70.6126C82.275 70.6907 81.7321 70.886 81.0797 71.1204C80.775 71.2376 80.5328 71.3704 80.193 71.4602C80.1227 71.4797 80.0211 71.4993 79.9391 71.5188C79.9313 71.5188 79.9274 71.5227 79.9196 71.5266C79.9156 71.5266 79.9078 71.5266 79.9039 71.5305C79.318 71.6555 78.7516 71.3352 78.6305 70.8079C78.5094 70.2805 78.8844 69.7454 79.4664 69.6047C79.4703 69.6047 79.4781 69.6008 79.4821 69.6008C79.486 69.6008 79.486 69.6008 79.4899 69.5969C79.5719 69.5774 79.6774 69.5501 79.7555 69.5344C80.0992 69.468 80.3805 69.4837 80.7047 69.4602C81.3961 69.386 81.9664 69.3274 82.4742 69.1672C82.6344 69.1008 82.7906 68.8782 82.9 68.7376L83.3141 68.6165C82.8492 65.4055 83.6344 62.2571 85.3297 59.7063L85.0133 59.4251C84.9938 59.3001 84.9664 59.0188 84.8141 58.8547C84.4274 58.4915 83.9352 58.1868 83.3453 57.8235C83.0641 57.6594 82.8063 57.554 82.525 57.343C82.4664 57.3001 82.3844 57.2297 82.3219 57.179C82.318 57.1751 82.3102 57.1712 82.3063 57.1672C81.8336 56.7883 81.7242 56.136 82.0641 55.7102C82.2555 55.4719 82.5485 55.3508 82.8492 55.3626C83.0836 55.3704 83.3297 55.4563 83.5367 55.6204C83.6031 55.6751 83.6969 55.7454 83.7555 55.7962C84.0211 56.0227 84.1813 56.2493 84.4039 56.4876C84.8922 56.9837 85.2945 57.3938 85.736 57.6907C85.9664 57.8274 86.1461 57.7727 86.3219 57.7493C86.3805 57.7922 86.568 57.929 86.6774 58.0032C88.357 56.218 90.568 54.8977 93.1305 54.3157C93.7281 54.179 94.3219 54.0891 94.9156 54.0422L94.9391 53.6243C95.0719 53.4954 95.2164 53.3157 95.2594 53.1126C95.3024 52.5813 95.2321 52.011 95.15 51.3196C95.1031 50.9993 95.0289 50.7297 95.0133 50.3821C95.0094 50.3118 95.0133 50.2102 95.0172 50.1282C95.0172 50.1204 95.0133 50.1087 95.0133 50.1008C95.0133 49.4954 95.4547 49.0032 96.0016 49.0032C96.5485 49.0032 96.9899 49.4954 96.9899 50.1008C96.9899 50.1868 96.9938 50.304 96.9938 50.3821C96.982 50.7297 96.9039 50.9993 96.857 51.3196C96.775 52.0071 96.7008 52.5813 96.7438 53.1126C96.7828 53.3782 96.9391 53.4837 97.068 53.6047C97.0719 53.6751 97.0836 53.9133 97.0914 54.0462C100.232 54.3235 103.146 55.761 105.291 58.0071L105.666 57.7376C105.795 57.7454 106.072 57.7844 106.263 57.6712C106.705 57.3743 107.107 56.9602 107.595 56.468C107.818 56.2297 107.982 56.0071 108.248 55.7766C108.306 55.7258 108.4 55.6555 108.466 55.6008C108.939 55.2219 109.599 55.2649 109.939 55.6907C110.279 56.1165 110.17 56.7688 109.697 57.1477C109.63 57.2024 109.545 57.2766 109.478 57.3235C109.197 57.5305 108.939 57.636 108.658 57.804C108.068 58.1672 107.576 58.4719 107.189 58.8352C107.005 59.0305 107.021 59.218 107.002 59.3938C106.947 59.4446 106.755 59.6165 106.65 59.7063C107.524 61.0067 108.152 62.4565 108.502 63.9837C108.861 65.5422 108.916 67.0969 108.709 68.593L109.107 68.7102C109.177 68.8118 109.326 69.0579 109.533 69.1399C110.041 69.3001 110.611 69.3587 111.302 69.4329C111.627 69.4602 111.908 69.4446 112.252 69.5071C112.334 69.5227 112.455 69.554 112.537 69.5735C113.123 69.718 113.494 70.2532 113.373 70.7805Z" fill="#486BB3"/>
<path d="M104.701 61.4524L100.841 64.9055L100.845 64.9172C100.712 65.0344 100.611 65.1907 100.568 65.3782C100.462 65.8352 100.74 66.2883 101.185 66.4133L101.189 66.4329L106.185 67.8704C106.29 66.7922 106.228 65.675 105.97 64.5579C105.712 63.429 105.279 62.386 104.701 61.4524Z" fill="#486BB3"/>
<defs>
<filter id="filter0_d_1_7292" x="0.857422" y="0.975098" width="190.018" height="190.017" filterUnits="userSpaceOnUse" color-interpolation-filters="sRGB">
<feFlood flood-opacity="0" result="BackgroundImageFix"/>
<feColorMatrix in="SourceAlpha" type="matrix" values="0 0 0 0 0 0 0 0 0 0 0 0 0 0 0 0 0 0 127 0" result="hardAlpha"/>
<feOffset dy="30"/>
<feGaussianBlur stdDeviation="30"/>
<feComposite in2="hardAlpha" operator="out"/>
<feColorMatrix type="matrix" values="0 0 0 0 0.344915 0 0 0 0 0.309028 0 0 0 0 0.432639 0 0 0 0.15 0"/>
<feBlend mode="normal" in2="BackgroundImageFix" result="effect1_dropShadow_1_7292"/>
<feBlend mode="normal" in="SourceGraphic" in2="effect1_dropShadow_1_7292" result="shape"/>
</filter>
</defs>
</svg>
