<svg width="81" height="80" viewBox="0 0 81 80" fill="none" xmlns="http://www.w3.org/2000/svg">
<circle cx="40.5" cy="40" r="40" fill="#85DB84" fill-opacity="0.16"/>
<path d="M57.0088 29.9992L41.4532 21.2492C40.8608 20.9169 40.1392 20.9169 39.5468 21.2492L23.9912 29.9992C23.3788 30.3439 23 30.9914 23 31.694C23 41.4333 27.3873 50.0523 35.6883 56.6167L39.2933 59.4688C39.6474 59.7488 40.0737 59.8884 40.5 59.8884C40.9263 59.8884 41.3526 59.7488 41.7067 59.4688L45.3108 56.6167C53.6127 50.0523 58 41.4333 58 31.694C58 30.9914 57.6212 30.3439 57.0088 29.9992ZM48.0005 35.6128L42.1672 45.335C41.8596 45.8477 41.3317 46.1914 40.7374 46.2645C40.6586 46.274 40.5788 46.2787 40.5 46.2787C39.9873 46.2787 39.4917 46.0765 39.1252 45.7091L35.2363 41.8202C34.4768 41.0606 34.4768 39.8302 35.2363 39.0706C35.9959 38.3111 37.2263 38.3111 37.9859 39.0706L40.1136 41.1983L44.6661 33.6114C45.2177 32.6895 46.4131 32.3904 47.334 32.9449C48.255 33.4974 48.5531 34.6918 48.0005 35.6128Z" fill="#4AC99B"/>
</svg>
