<svg width="50" height="50" viewBox="0 0 50 50" fill="none" xmlns="http://www.w3.org/2000/svg">
<path d="M25 0.78125C11.6406 0.78125 0.78125 11.6406 0.78125 25C0.78125 38.3594 11.6406 49.2188 25 49.2188C38.3594 49.2188 49.2188 38.3594 49.2188 25C49.2188 11.6406 38.3594 0.78125 25 0.78125ZM34.9219 37.0312C34.4531 37.0312 34.1016 36.8359 33.5938 36.4453L21.0938 26.3672L16.9141 36.8359H13.2812L23.8672 11.4062C24.1406 10.7422 24.7266 10.3906 25.3906 10.3906C26.0547 10.3906 26.6016 10.7422 26.875 11.4062L36.5234 34.6094C36.6406 34.8828 36.6797 35.1562 36.6797 35.3125C36.7188 36.3281 35.8984 37.0312 34.9219 37.0312Z" fill="#1A1918"/>
<path d="M25.3906 15.5861L31.6797 31.0548L22.1875 23.5939L25.3906 15.5861Z" fill="#1A1918"/>
</svg>
