<svg width="50" height="50" viewBox="0 0 50 50" fill="none" xmlns="http://www.w3.org/2000/svg">
<g id="Logos/csharp-plain">
<path id="Vector" d="M45.8984 13.0859L46.0156 13.0078C45.7812 12.5781 45.4297 12.1875 45.0781 11.9922L26.2109 1.13281C25.8984 0.9375 25.4688 0.859375 25 0.859375C24.5312 0.859375 24.1016 0.976563 23.7891 1.13281L5.03906 12.0312C4.375 12.4219 3.90625 13.3984 3.90625 14.1406V35.8984C3.90625 36.3281 3.98437 36.7969 4.25781 37.2266L4.17969 37.2656C4.375 37.5781 4.64844 37.8516 4.92188 38.0078L23.75 48.9062C24.0625 49.1016 24.4922 49.1797 24.9609 49.1797C25.4297 49.1797 25.8594 49.0625 26.1719 48.9062L44.9219 38.0078C45.5859 37.6172 46.0547 36.6406 46.0547 35.8984V14.1016C46.0938 13.7891 46.0547 13.4375 45.8984 13.0859ZM25 40.4297C16.4844 40.4297 9.57031 33.5156 9.57031 25C9.57031 16.4844 16.4844 9.57031 25 9.57031C30.7422 9.57031 35.7422 12.7344 38.3984 17.3828L33.3203 20.3125C31.6797 17.3828 28.5547 15.4297 25 15.4297C19.7266 15.4297 15.4297 19.7266 15.4297 25C15.4297 30.2734 19.7266 34.5703 25 34.5703C28.5547 34.5703 31.6797 32.6172 33.3203 29.7266L38.3594 32.6953C35.7031 37.3047 30.7031 40.4297 25 40.4297ZM44.9219 24.2188H43.6719L43.3203 25.7812H44.9219V27.7344H42.9688L42.5 30.0781H40.5859L41.0547 27.7344H39.5703L39.1016 30.0781H37.2266L37.6953 27.7344H36.7188V25.7812H38.0859L38.4375 24.2188H36.7188V22.2656H38.7891L39.2578 19.9219H41.1719L40.7031 22.2656H42.1875L42.6562 19.9219H44.5312L44.0625 22.2656H44.9219V24.2188ZM39.9609 25.7812H41.4453L41.7969 24.2188H40.3125L39.9609 25.7812Z" fill="#68217A"/>
</g>
</svg>
