<svg width="50" height="50" viewBox="0 0 50 50" fill="none" xmlns="http://www.w3.org/2000/svg">
<path d="M5.89492 16.2656H8.6293V28.923C7.22695 29.1895 6.19687 29.2961 5.07852 29.2961C1.74023 29.2961 0 27.7867 0 24.8922C0 22.1047 1.84687 20.2938 4.70547 20.2938C5.14922 20.2938 5.48672 20.3289 5.89492 20.4355V16.2656ZM5.89492 22.6367C5.57539 22.5305 5.30898 22.4949 4.97187 22.4949C3.58672 22.4949 2.78789 23.3473 2.78789 24.8387C2.78789 26.2945 3.55117 27.0938 4.95391 27.0938C5.25586 27.0938 5.50469 27.0758 5.89531 27.0227L5.89492 22.6367Z" fill="#092E20"/>
<path d="M12.9791 20.4882V26.8273C12.9791 29.0109 12.8193 30.0585 12.34 30.964C11.8959 31.8347 11.31 32.3847 10.1025 32.9886L7.56348 31.7812C8.7709 31.2128 9.35645 30.716 9.72949 29.9523C10.1201 29.171 10.2451 28.2656 10.2451 25.8859V20.4882H12.9791ZM10.2447 16.28H12.9791V19.0855H10.2447V16.28ZM14.6311 21.1097C15.8381 20.5417 16.9924 20.2933 18.2533 20.2933C19.6557 20.2933 20.5791 20.666 20.9877 21.3941C21.2182 21.8023 21.2893 22.3351 21.2893 23.4714V29.0289C20.0643 29.2066 18.5197 29.3308 17.383 29.3308C15.0928 29.3308 14.0627 28.5316 14.0627 26.7562C14.0627 24.8382 15.4299 23.9507 18.7857 23.6664V23.0628C18.7857 22.5656 18.5373 22.3882 17.8447 22.3882C16.833 22.3882 15.6963 22.6722 14.6307 23.223V21.1097H14.6311ZM18.91 25.4601C17.099 25.6375 16.5131 25.9218 16.5131 26.632C16.5131 27.1644 16.8506 27.4132 17.5963 27.4132C18.0045 27.4132 18.3775 27.3781 18.91 27.289V25.4601ZM22.6217 20.9144C24.2373 20.4886 25.5689 20.2933 26.9186 20.2933C28.3213 20.2933 29.3334 20.6125 29.9373 21.2343C30.5057 21.8203 30.683 22.4589 30.683 23.8265V29.1886H27.9486V23.9335C27.9486 22.8859 27.5932 22.4953 26.6166 22.4953C26.2439 22.4953 25.9068 22.5304 25.3561 22.6906V29.189H22.6217V20.9144ZM31.7455 30.68C32.7045 31.1773 33.6631 31.4082 34.6752 31.4082C36.4682 31.4082 37.2318 30.68 37.2318 28.9398V28.8867C36.6994 29.1531 36.1666 29.2597 35.4564 29.2597C33.0592 29.2597 31.5322 27.6792 31.5322 25.1757C31.5322 22.0683 33.7873 20.3105 37.7822 20.3105C38.9541 20.3105 40.0373 20.4347 41.3514 20.7011L40.415 22.6738C39.6869 22.5316 40.3564 22.6542 39.8064 22.6011V22.8855L39.8416 24.0394L39.8596 25.5308C39.8775 25.9039 39.8775 26.2769 39.8951 26.6496V27.3957C39.8951 29.7394 39.6998 30.8398 39.1139 31.7453C38.2615 33.0773 36.7881 33.7343 34.6928 33.7343C33.6271 33.7343 32.7045 33.5742 31.7451 33.2015V30.6796L31.7455 30.68ZM37.1791 22.5121H36.8947C36.3623 22.4945 35.7408 22.6363 35.3143 22.9027C34.6576 23.2757 34.3201 23.9503 34.3201 24.9093C34.3201 26.2765 34.9947 27.0578 36.2021 27.0578C36.5752 27.0578 36.8771 26.9867 37.2318 26.8804V25.939C37.2318 25.6199 37.2143 25.2644 37.2143 24.8917L37.1967 23.6312L37.1787 22.7253V22.5125L37.1791 22.5121ZM45.5963 20.2578C48.3307 20.2578 49.9998 21.98 49.9998 24.7675C49.9998 27.6265 48.26 29.4199 45.4897 29.4199C42.7553 29.4199 41.0686 27.6972 41.0686 24.9277C41.0686 22.0507 42.8088 20.2574 45.5963 20.2574V20.2578ZM45.5428 27.2179C46.5904 27.2179 47.2123 26.3476 47.2123 24.8386C47.2123 23.3472 46.6084 22.4593 45.5611 22.4593C44.4775 22.4593 43.8561 23.3296 43.8561 24.8382C43.8561 26.348 44.4775 27.2179 45.5428 27.2179Z" fill="#092E20"/>
</svg>
