<svg width="50" height="50" viewBox="0 0 50 50" fill="none" xmlns="http://www.w3.org/2000/svg">
<path d="M48.7501 20.3516C47.0704 19.375 44.8438 19.2578 42.9688 19.8047C42.7345 17.7734 41.4063 16.0156 39.8438 14.7656L39.2188 14.2578L38.672 14.8828C37.6173 16.0937 37.3048 18.125 37.461 19.6875C37.5782 20.8203 37.9298 21.9922 38.6329 22.9297C38.086 23.2422 37.5001 23.6719 36.9532 23.8672C35.8595 24.2578 34.6485 24.6484 33.4766 24.6484H30.8595V19.1406H25.7813V9.375H19.922V14.0625H10.1563V19.1406H5.07821V24.6094H0.703213L0.625088 25.1953C0.429775 27.6953 0.742275 30.1172 1.79696 32.4219L2.22665 33.2812L2.26571 33.3594C5.35165 38.5938 10.7423 40.7812 16.6407 40.7812C28.047 40.7812 37.461 35.6641 41.7579 24.9219C44.6485 25.0781 47.6173 24.2188 49.0235 21.4453L49.3751 20.7422L48.7501 20.3516ZM10.9376 15.2344H14.8438V19.5312H10.9376V15.2344ZM16.0548 32.5C16.0548 33.1641 15.5079 33.7109 14.8438 33.7109C14.1798 33.7109 13.6329 33.1641 13.6329 32.5C13.6329 31.8359 14.1798 31.2891 14.8438 31.2891C15.5079 31.3281 16.0548 31.8359 16.0548 32.5ZM10.9376 20.3125H14.8438V24.6094H10.9376V20.3125ZM5.85946 20.3125H10.1563V24.6094H5.85946V20.3125ZM16.6798 39.9219C10.5079 39.8828 7.18759 37.8125 4.45321 35.0781C5.27353 35.1172 6.05478 35.1562 6.7579 35.1562C7.3829 35.1562 8.0079 35.1562 8.59384 35.1172C10.1173 35.0391 11.4454 34.8438 12.5391 34.5312C13.4376 36.6016 15.0782 38.5156 18.0079 39.9219H16.6798ZM19.922 24.6094H15.6251V20.3125H19.922V24.6094ZM19.922 19.5312H15.6251V15.2344H19.922V19.5312ZM25.0001 24.6094H20.7032V20.3125H25.0001V24.6094ZM25.0001 19.5312H20.7032V15.2344H25.0001V19.5312ZM25.0001 14.4531H20.7032V10.1562H25.0001V14.4531ZM30.0782 24.6094H25.7813V20.3125H30.0782V24.6094ZM15.1563 31.7187C15.0782 31.6797 14.961 31.6406 14.8438 31.6406C14.3751 31.6406 13.9845 32.0312 13.9845 32.5C13.9845 32.9687 14.3751 33.3594 14.8438 33.3594C15.3126 33.3594 15.7032 32.9687 15.7032 32.5C15.7032 32.3828 15.6642 32.2656 15.6251 32.1875C15.547 32.3047 15.4688 32.3828 15.3126 32.3828C15.1173 32.3828 14.961 32.2266 14.961 32.0312C15.0001 31.875 15.0782 31.7578 15.1563 31.7187Z" fill="#019BC6"/>
</svg>
