<svg width="50" height="50" viewBox="0 0 50 50" fill="none" xmlns="http://www.w3.org/2000/svg">
<path d="M15.7557 30.5422H15.0975V26.7726C15.0975 26.475 15.117 26.1125 15.1521 25.6847H15.1373C15.0756 25.9347 15.0189 26.116 14.9693 26.2281L13.0545 30.5422H12.7338L10.8154 26.2593C10.7615 26.1398 10.7049 25.9472 10.6475 25.6847H10.6334C10.6537 25.9097 10.665 26.2742 10.665 26.7801V30.5422H10.0299V24.9285H10.899L12.6213 28.8429C12.751 29.1375 12.835 29.3617 12.8756 29.5148H12.9025C12.9854 29.2828 13.075 29.0533 13.1713 28.8265L14.9311 24.9285H15.7553V30.5422H15.7557ZM17.7822 30.5422H17.142V26.5332H17.7822V30.5422ZM17.8928 25.0961C17.8928 25.2144 17.8514 25.3129 17.7689 25.3941C17.7301 25.4337 17.6837 25.465 17.6323 25.4859C17.581 25.5069 17.5259 25.5171 17.4705 25.516C17.4159 25.5169 17.3617 25.5069 17.3109 25.4867C17.2602 25.4666 17.2139 25.4365 17.1748 25.3984C17.1344 25.3594 17.1026 25.3123 17.0815 25.2603C17.0604 25.2082 17.0506 25.1522 17.0525 25.0961C17.0525 24.9804 17.0932 24.8816 17.1748 24.8015C17.2564 24.7215 17.3561 24.6824 17.4705 24.6824C17.5877 24.6824 17.6881 24.7211 17.7689 24.8015C17.8514 24.8816 17.8928 24.9804 17.8928 25.0961ZM21.7826 30.3566C21.4756 30.5453 21.1084 30.6386 20.6842 30.6386C20.1092 30.6386 19.6471 30.448 19.2932 30.0668C18.9498 29.6969 18.7771 29.2195 18.7771 28.6344C18.7771 27.9777 18.9646 27.4461 19.3436 27.0418C19.7201 26.6371 20.2268 26.4351 20.8639 26.4351C21.2123 26.4351 21.5213 26.5031 21.7916 26.6386V27.2976C21.4924 27.0875 21.176 26.9832 20.8365 26.9832C20.4283 26.9832 20.0959 27.1258 19.8385 27.4101C19.5701 27.7011 19.4346 28.0906 19.4346 28.5761C19.4346 29.0426 19.5584 29.4121 19.8049 29.6843C20.0521 29.9554 20.3814 30.0914 20.7963 30.0914C21.1467 30.0914 21.4752 29.9761 21.7822 29.7469V30.3566H21.7826ZM24.8451 27.1836C24.7322 27.0965 24.5693 27.0543 24.3549 27.0543C24.0939 27.0543 23.8748 27.1707 23.6975 27.4062C23.4959 27.6691 23.3963 28.0328 23.3963 28.498V30.5418H22.7541V26.5332H23.3963V27.3597H23.4115C23.5057 27.0672 23.6514 26.8422 23.8459 26.6828C24.0187 26.5403 24.236 26.4628 24.46 26.4636C24.6311 26.4636 24.7576 26.482 24.8443 26.5183L24.8451 27.1836ZM28.4209 28.5449C28.4209 28.032 28.3053 27.6398 28.0732 27.3707C27.8486 27.1121 27.5342 26.9832 27.1295 26.9832C26.7307 26.9832 26.4104 27.1136 26.1713 27.375C25.9186 27.6543 25.792 28.0488 25.792 28.5605C25.792 29.0402 25.9123 29.4168 26.1553 29.6851C26.3967 29.9554 26.7217 30.091 27.1295 30.091C27.5514 30.091 27.8744 29.9535 28.0959 29.6804C28.3127 29.4133 28.4209 29.0351 28.4209 28.5449ZM29.0791 28.5226C29.0791 29.1613 28.8986 29.6746 28.5393 30.0594C28.1783 30.4457 27.6928 30.6386 27.0822 30.6386C26.4807 30.6386 26.0014 30.4457 25.6506 30.0594C25.3064 29.6871 25.1338 29.1957 25.1338 28.5844C25.1338 27.8867 25.3291 27.3492 25.7209 26.9676C26.0838 26.6136 26.5686 26.4351 27.1764 26.4351C27.774 26.4351 28.2412 26.6215 28.5775 26.9906C28.9107 27.3617 29.0791 27.8726 29.0791 28.5226ZM32.2611 29.4695C32.2611 29.7976 32.1389 30.0695 31.8932 30.2863C31.6248 30.5211 31.2564 30.6383 30.7932 30.6383C30.4139 30.6383 30.0814 30.559 29.799 30.3969V29.707C30.1131 29.9625 30.46 30.091 30.8408 30.091C31.349 30.091 31.6033 29.9039 31.6033 29.5308C31.6055 29.4579 31.5915 29.3854 31.5624 29.3185C31.5333 29.2516 31.4898 29.1919 31.435 29.1437C31.3221 29.0414 31.1025 28.9187 30.7768 28.7754C30.4412 28.6285 30.2018 28.4777 30.0607 28.3211C29.8912 28.1351 29.8061 27.8941 29.8061 27.5969C29.8061 27.264 29.9393 26.9871 30.2021 26.7668C30.4658 26.5453 30.8045 26.4347 31.2201 26.4347C31.5385 26.4347 31.824 26.4968 32.0771 26.6226V27.2687C31.8127 27.0781 31.5104 26.9828 31.1674 26.9828C30.9549 26.9828 30.7842 27.0359 30.6568 27.1386C30.5283 27.2441 30.4639 27.3785 30.4639 27.5426C30.4639 27.7203 30.5178 27.8582 30.6248 27.957C30.7201 28.048 30.9221 28.1597 31.2268 28.2898C31.5689 28.4332 31.8162 28.582 31.967 28.734C32.1623 28.9269 32.2611 29.1719 32.2611 29.4695ZM36.183 28.5449C36.183 28.032 36.067 27.6398 35.8346 27.3707C35.61 27.1121 35.2951 26.9832 34.8912 26.9832C34.4924 26.9832 34.1721 27.1136 33.9318 27.375C33.6795 27.6543 33.5533 28.0488 33.5533 28.5605C33.5533 29.0402 33.674 29.4168 33.9143 29.6851C34.1588 29.9554 34.4842 30.091 34.8912 30.091C35.3139 30.091 35.6357 29.9535 35.8576 29.6804C36.0744 29.4133 36.183 29.0351 36.183 28.5449ZM36.8424 28.5226C36.8424 29.1613 36.6604 29.6746 36.3002 30.0594C35.9408 30.4457 35.4553 30.6386 34.8443 30.6386C34.242 30.6386 33.7631 30.4457 33.4119 30.0594C33.0678 29.6871 32.8951 29.1957 32.8951 28.5844C32.8951 27.8867 33.092 27.3492 33.4818 26.9676C33.8443 26.6136 34.3299 26.4351 34.9381 26.4351C35.5361 26.4351 36.0025 26.6215 36.3381 26.9906C36.6721 27.3617 36.8424 27.8726 36.8424 28.5226ZM39.6697 25.1711C39.5392 25.0996 39.3923 25.0633 39.2436 25.0656C38.7943 25.0656 38.5713 25.3484 38.5713 25.9152V26.5332H39.5107V27.0769H38.5713V30.5422H37.9287V27.0769H37.2471V26.5332H37.9287V25.8832C37.9287 25.4422 38.0639 25.0957 38.3389 24.8465C38.5744 24.6297 38.8623 24.5219 39.2049 24.5219C39.4033 24.5219 39.5572 24.5457 39.6693 24.5914V25.1711H39.6697ZM42.2025 30.5019C42.051 30.5886 41.8494 30.632 41.5998 30.632C40.9002 30.632 40.5502 30.2375 40.5502 29.4488V27.0777H39.8623V26.5332H40.5502V25.5551L41.1932 25.3469V26.5332H42.2021V27.0777H41.1932V29.3398C41.1932 29.6086 41.2369 29.8008 41.3291 29.9121C41.4217 30.0273 41.5732 30.0836 41.7873 30.0836C41.9471 30.0836 42.0854 30.041 42.2025 29.9543V30.5019ZM7.51426 46.1883C7.51426 46.5027 7.40254 46.7742 7.17559 47.0035C7.0698 47.1143 6.94226 47.202 6.80096 47.2612C6.65966 47.3203 6.50766 47.3496 6.35449 47.3472C6.20436 47.3494 6.05545 47.3199 5.91748 47.2607C5.7795 47.2015 5.65555 47.1138 5.55371 47.0035C5.44767 46.8961 5.36402 46.7688 5.30762 46.6288C5.25123 46.4889 5.22321 46.3391 5.2252 46.1883C5.2252 45.8652 5.33418 45.5926 5.55371 45.3668C5.6561 45.2575 5.78026 45.1709 5.91819 45.1125C6.05612 45.0542 6.20476 45.0254 6.35449 45.0281C6.67598 45.0281 6.94981 45.1422 7.17559 45.3711C7.40254 45.6008 7.51426 45.8734 7.51426 46.1883ZM21.8818 47.1117H19.7889L12.192 35.3797C12.0093 35.0872 11.8551 34.7778 11.7314 34.4558H11.6689C11.7232 34.7699 11.7506 35.4445 11.7506 36.4773V47.1117H10.0256V32.3929H12.2646L19.6338 43.9398C19.9271 44.398 20.1279 44.7261 20.2295 44.9238H20.2701C20.2018 44.5008 20.1662 43.7785 20.1662 42.7597V32.3929H21.8811V47.1117H21.8818ZM32.942 47.1117H25.1408V32.3929H32.6033V33.9527H26.865V38.8488H32.1822V40.4093H26.8646V45.5515H32.942V47.1117ZM44.7744 33.9527H40.5346V47.1121H38.81V33.9527H34.5619V32.3922H44.7744V33.9527Z" fill="#1384C8"/>
<path fill-rule="evenodd" clip-rule="evenodd" d="M32.0734 18.0976C32.2605 17.6164 32.4726 17.1426 32.6308 16.6519C33.5246 13.8797 34.4097 11.1051 35.289 8.3281C35.6269 7.2613 35.9972 6.21091 36.6621 5.29412C37.7137 3.84529 39.1785 3.0863 40.9121 2.82107C41.595 2.71961 42.2842 2.66661 42.9746 2.66248C45.032 2.64294 47.0902 2.65662 49.148 2.65857C49.2574 2.65857 49.3668 2.6699 49.5219 2.67888C49.4715 2.79763 49.4441 2.88396 49.4004 2.96169C48.6367 4.32654 47.8879 5.69958 47.1015 7.05076C45.7324 9.4031 44.3609 11.7547 42.9488 14.0812C42.0429 15.573 41.0605 17.0187 39.9461 18.3679C39.1238 19.3633 38.2582 20.3148 37.1547 21.0125C36.4027 21.4879 35.5996 21.766 34.6879 21.7613C31.4543 21.7437 28.2207 21.7566 24.9871 21.7519C24.0258 21.7504 23.2027 21.3844 22.5043 20.7351C21.5031 19.8051 20.9054 18.6211 20.4164 17.3726C19.5242 15.0933 19.0246 12.7043 18.4512 10.3359C18.1824 9.22732 17.8769 8.12732 17.5859 7.02419C17.5672 6.95271 17.5304 6.88591 17.4883 6.78318L17.2629 6.9949C16.0019 8.24763 14.8914 9.6281 13.8976 11.0957C13.6269 11.4957 13.5359 12.023 13.3847 12.4984C12.8285 14.2445 12.3215 16.0074 11.7191 17.7371C11.1422 19.3941 10.1078 20.7121 8.491 21.491C7.5535 21.9455 6.52908 22.1926 5.48748 22.2156C3.93279 22.25 2.37732 22.2539 0.822245 22.2679C0.45037 22.2715 0.433183 22.241 0.530058 21.8812C1.19685 19.4054 2.04178 16.9929 3.10037 14.6578C4.19178 12.2488 5.47732 9.95154 7.09685 7.85349C8.19959 6.42498 9.41756 5.10701 10.9418 4.11052C11.7148 3.60544 12.5367 3.20623 13.4719 3.10115C13.6258 3.08357 13.7816 3.07263 13.9363 3.07263C17.248 3.07107 20.5597 3.10466 23.8711 3.0574C25.6472 3.03201 26.9332 3.78201 27.8961 5.21169C28.4949 6.10076 28.9234 7.07146 29.284 8.07419C30.0109 10.0969 30.4629 12.1941 30.9734 14.2765C31.2656 15.4683 31.591 16.6519 31.9027 17.839C31.9262 17.9281 31.964 18.0133 31.9957 18.1L32.0734 18.0976Z" fill="#1384C8"/>
</svg>
