<svg width="50" height="50" viewBox="0 0 50 50" fill="none" xmlns="http://www.w3.org/2000/svg">
<path d="M23.9043 0H25.8391C30.8852 0.208984 35.8734 1.91016 39.9184 4.95156C43.75 7.79883 46.7438 11.7629 48.4055 16.243C49.359 18.7379 49.8367 21.3914 50 24.0523V25.6973C49.8383 30.1086 48.5687 34.4941 46.1992 38.2293C43.5426 42.4852 39.5891 45.9363 34.9777 47.9277C31.9589 49.2368 28.7126 49.9408 25.4227 50H24.5852C20.0012 49.9254 15.4406 48.5703 11.5785 46.0969C7.20508 43.3184 3.72148 39.1496 1.80195 34.3324C0.738672 31.7148 0.172266 28.9141 0 26.0984V24.1621C0.196875 18.541 2.32539 12.9867 6.01953 8.73398C9.05 5.19922 13.0859 2.53125 17.534 1.14727C19.5984 0.496094 21.7484 0.160156 23.9043 0ZM9.84023 14.6574C9.82852 19.4047 9.83594 24.1516 9.83594 28.8973C10.3945 28.9016 10.9531 28.9016 11.5129 28.9016C11.4836 24.8262 11.5523 20.752 11.4715 16.6777C11.659 17.032 11.8301 17.3965 12.0438 17.7352C14.4668 21.4492 16.8379 25.1953 19.2613 28.9062C19.9402 28.8973 20.6191 28.8973 21.298 28.9078C21.2969 24.1578 21.2953 19.4078 21.2996 14.6578C20.7462 14.6524 20.1928 14.6509 19.6395 14.6531C19.6688 18.6844 19.5863 22.7156 19.6883 26.7426C17.1465 22.6988 14.5707 18.6781 11.9949 14.6547C11.2767 14.6503 10.5584 14.6512 9.84023 14.6574ZM25.0137 14.6531C24.9633 19.4031 25.0121 24.1531 24.9953 28.9016C27.5223 28.8957 30.0492 28.9109 32.5773 28.8938C32.5683 28.3792 32.5714 27.8644 32.5867 27.35C30.6289 27.3438 28.6699 27.3527 26.7105 27.3422C26.6816 25.6977 26.709 24.0508 26.6949 22.4059C28.4117 22.3754 30.1285 22.4105 31.8434 22.3875C31.8391 21.8887 31.8391 21.3898 31.8359 20.8906C30.1223 20.9457 28.409 20.8695 26.6937 20.8953C26.6984 19.3238 26.7016 17.7508 26.7016 16.1773C28.5371 16.1773 30.3727 16.1695 32.2066 16.182C32.2035 15.6738 32.2066 15.1641 32.2129 14.6562C29.8125 14.65 27.4121 14.6531 25.0137 14.6531ZM33.8426 14.6742C33.8441 15.1688 33.8441 15.6617 33.8457 16.1547C35.2082 16.1391 36.5691 16.1973 37.9316 16.1684C37.9227 20.4117 37.9332 24.652 37.9273 28.8926C38.4977 28.9094 39.0719 28.9062 39.6422 28.8574C39.5953 26.5168 39.6883 24.1746 39.5813 21.8352C39.6074 20.7809 39.5539 19.7281 39.627 18.675C39.6684 17.8391 39.5188 17.0043 39.6133 16.1684C40.9867 16.1867 42.3613 16.1742 43.7344 16.1742C43.7281 15.6751 43.7379 15.1759 43.7637 14.6773C40.4555 14.6363 37.1477 14.6406 33.8426 14.6742ZM5.29297 26.9898C4.5207 27.3453 4.47031 28.5613 5.23477 28.9535C5.90664 29.4145 6.91641 28.8086 6.88594 28.0121C6.93789 27.2293 5.99141 26.5715 5.29297 26.9898ZM16.7109 32.9621C15.0402 34.3172 15.0602 37.3352 16.9062 38.5285C17.9484 39.1906 19.2898 39.0535 20.3914 38.6125C20.3961 38.3699 20.402 38.1285 20.4109 37.8859C19.3676 38.4309 17.907 38.5422 17.0223 37.6477C15.8641 36.3832 16.125 34.027 17.6523 33.1648C18.516 32.7102 19.5691 32.843 20.4203 33.2582C20.4176 33.0004 20.4188 32.7426 20.4203 32.4848C19.2105 32.0555 17.7164 32.0785 16.7109 32.9621ZM23.4324 34.0207C22.6941 34.1066 21.9645 34.4973 21.6227 35.1793C21.1332 36.1543 21.1895 37.4711 21.9602 38.2887C22.7551 39.1859 24.2824 39.1949 25.1555 38.4047C26.1027 37.5031 26.2098 35.8781 25.4512 34.825C25.0027 34.1887 24.1727 33.9723 23.4324 34.0211M30.4195 35.0844C29.7711 36.2105 29.8992 37.9164 31.0438 38.6824C31.8965 39.159 32.9707 39.0074 33.807 38.5621C33.8055 38.3211 33.8086 38.0797 33.8191 37.8402C33.1602 38.2582 32.2812 38.5652 31.5488 38.1437C31.0375 37.8617 30.8832 37.2621 30.8012 36.7277C31.9242 36.7125 33.0457 36.6957 34.1703 36.6988C34.141 35.9848 34.1242 35.1777 33.6039 34.6254C32.7449 33.6762 31.0086 33.9781 30.4195 35.0844ZM27.1328 34.1719V38.8625C27.3875 38.8625 27.6453 38.8625 27.9035 38.8641C27.9125 38.0066 27.8879 37.1477 27.9125 36.2883C27.9188 35.7922 28.1184 35.2891 28.4922 34.9547C28.8051 34.7184 29.2277 34.8492 29.5863 34.8586C29.5816 34.6102 29.5785 34.3625 29.5773 34.1156C28.877 33.9602 28.2742 34.3703 27.9203 34.9426C27.9125 34.6953 27.9047 34.448 27.9004 34.2027C27.6441 34.1934 27.3875 34.1828 27.1328 34.1719Z" fill="#623697"/>
<path d="M22.9523 34.8527C23.5976 34.5383 24.5238 34.6926 24.884 35.3605C25.2941 36.0976 25.2851 37.0726 24.8305 37.7867C24.2367 38.6797 22.6715 38.4844 22.2824 37.4969C21.8887 36.6148 22.0414 35.3547 22.9523 34.8523V34.8527ZM30.875 36.0992C30.8929 35.4844 31.3219 34.8738 31.9398 34.7398C32.3211 34.6758 32.759 34.7426 33.023 35.0496C33.2855 35.3285 33.3406 35.7191 33.4058 36.0808C32.5621 36.0855 31.7183 36.0687 30.8746 36.0992H30.875Z" fill="#623697"/>
</svg>
