<svg width="50" height="50" viewBox="0 0 50 50" fill="none" xmlns="http://www.w3.org/2000/svg">
<path d="M35.5803 9.73784C33.099 8.19253 30.7584 7.58394 28.4178 6.03901C26.9658 5.05581 24.9533 2.71479 23.267 0.701904C22.9396 3.93237 21.9564 5.24331 20.8334 6.17925C18.4455 8.05229 16.9471 8.61362 14.8873 9.73745C13.1549 10.6269 3.74512 16.2449 3.74512 28.3234C3.74512 40.4027 13.9045 49.2972 25.1869 49.2972C36.4709 49.2972 46.2549 41.1042 46.2549 28.698C46.2549 16.2917 37.0787 10.6738 35.5803 9.73784ZM35.851 44.8917C35.6166 45.1261 33.4631 46.6242 30.9354 46.8582C28.4068 47.0921 24.9897 47.2332 22.9291 45.3601C22.6018 45.032 22.6955 44.5644 22.9291 44.3769C23.1635 44.1898 23.351 44.0488 23.6318 44.0488C23.9127 44.0488 23.8662 44.0488 24.0064 44.1425C24.9424 44.8914 26.3471 45.5003 29.3432 45.5003C32.34 45.5003 34.4463 44.6574 35.3826 43.9554C35.8045 43.6273 35.9916 43.9089 36.0381 44.0957C36.0854 44.2832 36.1791 44.5644 35.851 44.8917ZM27.658 40.6316C28.1729 40.1632 29.0162 39.4148 29.8119 39.0867C30.6076 38.7593 31.0295 38.8058 31.7779 38.8058C32.5272 38.8058 33.3229 38.8523 33.8854 39.2273C34.4471 39.6015 34.7748 40.4445 34.9619 40.9124C35.149 41.3804 34.9619 41.6613 34.5873 41.8484C34.26 42.0359 34.2127 41.9421 33.8854 41.3343C33.5572 40.7253 33.2764 40.1167 31.6377 40.1167C29.999 40.1167 29.4838 40.6785 28.6881 41.3343C27.8924 41.9898 27.6115 42.2238 27.3307 41.8484C27.0498 41.4742 27.1428 41.0999 27.658 40.6316ZM40.0647 41.0062C38.3795 40.866 35.008 35.6222 32.8541 35.5289C30.1397 35.4351 24.2396 41.1933 19.6049 41.1933C16.7963 41.1933 15.9537 40.7726 15.017 40.1632C13.6123 39.1804 12.9104 37.682 12.9572 35.6222C13.0041 31.9703 16.4217 28.5527 20.7287 28.5058C26.2064 28.4597 29.9982 33.9367 32.7611 33.8898C35.1018 33.8433 39.5963 29.2554 41.7967 29.2554C44.1373 29.2554 44.7936 31.6898 44.7936 33.141C44.7936 34.5921 44.3252 37.214 43.2014 38.8523C42.0775 40.491 41.3756 41.0999 40.0647 41.0062Z" fill="#0073BA"/>
</svg>
