<svg width="50" height="51" viewBox="0 0 50 51" fill="none" xmlns="http://www.w3.org/2000/svg">
<path d="M22.1926 50.8383C21.4492 50.7496 20.6695 50.6351 20.4605 50.5836C20.153 50.5107 19.8437 50.4455 19.5328 50.3883C19.1778 50.3194 18.8256 50.2369 18.477 50.141C16.8578 49.6769 16.7418 49.639 15.5211 49.1398C14.398 48.682 12.3289 47.6125 11.6211 47.1258C11.4273 46.9914 11.2461 46.8832 11.2184 46.8832C11.191 46.8832 10.7379 46.5644 10.2113 46.175C6.86367 43.6972 4.35039 40.6894 2.53437 36.9847C2.22187 36.3484 1.9668 35.784 1.9668 35.7308C1.9668 35.6785 1.91055 35.5336 1.8418 35.4117C1.7 35.1582 1.49805 34.6121 1.33516 34.0476C1.26512 33.8078 1.18365 33.5715 1.09102 33.3394C1.01484 33.1597 0.953516 32.941 0.953516 32.8527C0.953516 32.764 0.877344 32.4758 0.784375 32.2101C0.691406 31.9465 0.616406 31.6351 0.616406 31.5187C0.616406 31.4031 0.543359 31.0031 0.453125 30.6297C0.233594 29.7078 0 27.3199 0 25.9816C0 24.6449 0.233594 22.257 0.453125 21.3355C0.542969 20.9617 0.616406 20.5543 0.616406 20.4293C0.616406 20.3039 0.673047 20.0582 0.741406 19.8824C0.811719 19.7074 0.901563 19.3929 0.942969 19.184C0.985938 18.975 1.08359 18.6148 1.16289 18.3812L1.39336 17.707C1.5625 17.2019 1.71953 16.7746 1.79453 16.6082C1.8375 16.5152 2.00508 16.1355 2.16836 15.7644C2.43242 15.1648 2.99844 14.034 3.3293 13.4422C3.45 13.2254 3.4957 13.1535 4.14883 12.1328C5.18359 10.5125 6.95195 8.49646 8.59805 7.05935C9.17812 6.55271 11.116 5.08162 11.2031 5.08162C11.2273 5.08162 11.4102 4.97185 11.6105 4.83748C12.1367 4.48513 12.6527 4.18591 13.3254 3.8488C13.5668 3.72939 13.806 3.60528 14.0426 3.47654C14.1539 3.41248 14.3629 3.31638 15.4359 2.83591C15.6723 2.73044 15.927 2.63435 16.6609 2.37771C16.8227 2.32146 17.1477 2.20232 17.3797 2.11521C17.6133 2.02849 17.8879 1.95662 17.9902 1.95662C18.091 1.95662 18.3563 1.8863 18.5793 1.79958C18.802 1.71248 19.2063 1.61326 19.4793 1.57966C19.7512 1.54763 20.1125 1.47146 20.282 1.41169C20.45 1.35388 20.9109 1.27888 21.3059 1.24568C21.8206 1.19918 22.3339 1.13861 22.8453 1.06404C23.8953 0.910132 26.1781 0.910132 27.2172 1.06404C27.708 1.13447 28.2004 1.19243 28.6941 1.23787C29.0664 1.26873 29.541 1.34646 29.75 1.41052C29.959 1.47302 30.3207 1.55115 30.5527 1.57966C30.7848 1.61052 31.1754 1.70662 31.4207 1.7949C31.6668 1.88474 31.9457 1.95662 32.0418 1.95662C32.1379 1.95662 32.3363 2.01013 32.4813 2.07732C32.6277 2.14294 32.9375 2.25271 33.1711 2.32146C33.4031 2.39177 33.8012 2.53044 34.0578 2.63279C34.3125 2.73474 34.6543 2.86912 34.8176 2.93005C35.1184 3.04333 37.341 4.15544 37.6434 4.3449C40.0969 5.87498 41.359 6.87459 43.0559 8.62771C45.102 10.7426 46.4602 12.7566 47.8426 15.7215C47.9402 15.9308 48.0895 16.2406 48.175 16.4082C48.259 16.5777 48.3293 16.7761 48.3293 16.8496C48.3293 16.9238 48.3996 17.1465 48.4863 17.3453C48.7215 17.8855 48.9227 18.5004 49.0176 18.9703C49.0645 19.2008 49.1516 19.4859 49.2109 19.6035C49.2707 19.7207 49.3406 20.0187 49.3684 20.2629C49.3957 20.5066 49.4766 20.9066 49.5453 21.1492C49.9437 22.5285 50.1418 26.5922 49.9008 28.3894C49.8293 28.9234 49.7484 29.5691 49.7211 29.8238C49.675 30.2601 49.4445 31.3879 49.2477 32.1461L49.0445 32.9488C48.6617 34.4945 47.7156 36.6965 46.5605 38.7336C46.1027 39.5422 44.568 41.7289 44.2781 41.9851C44.252 42.0078 44.1223 42.1609 43.991 42.3222C43.8598 42.4855 43.4387 42.9418 43.0574 43.3355C41.3773 45.0703 40.0223 46.1429 37.6434 47.6203C37.3613 47.7957 34.9688 48.9644 34.5215 49.1461C34.2895 49.239 33.902 49.3961 33.6609 49.4937C33.4215 49.5902 33.1543 49.6711 33.0703 49.6726C32.9863 49.6738 32.7652 49.7488 32.5789 49.8386C32.393 49.9285 32.1562 50.0035 32.0512 50.0051C31.9473 50.0066 31.6437 50.0801 31.3766 50.1683C31.1098 50.2582 30.7387 50.3547 30.5523 50.3832C30.3664 50.4125 29.9684 50.4918 29.666 50.559C29.3641 50.6261 28.4512 50.7574 27.6398 50.8504C25.83 51.0615 24.0015 51.0574 22.1926 50.8383ZM24.0297 45.9554C24.1469 45.864 24.2676 45.682 24.2996 45.5543C24.3699 45.2719 35.7191 22.5191 35.9328 22.234C36.1129 21.9929 36.1297 21.607 35.9648 21.4711C35.8781 21.398 34.7914 21.375 31.8906 21.3797C29.7148 21.3844 27.8855 21.3859 27.8258 21.3843C27.7375 21.3812 27.7191 19.9273 27.7281 13.7C27.7344 9.47459 27.7145 5.97888 27.684 5.93044C27.6535 5.88123 27.5344 5.84177 27.4184 5.84177C27.2551 5.84177 27.1789 5.91209 27.0785 6.1574C26.8891 6.61365 26.3656 7.64958 23.8176 12.5969C23.2883 13.6235 22.7603 14.6509 22.2336 15.6789C21.782 16.5625 21.0695 17.9496 20.6527 18.7609C19.5309 20.9419 18.4113 23.124 17.2941 25.3074C15.3672 29.0715 15.134 29.5203 15.0512 29.6195C14.891 29.8133 14.8039 30.2601 14.8941 30.4281C14.9762 30.582 15.1398 30.5883 19.2078 30.582C21.5332 30.5793 23.4512 30.5914 23.4711 30.6094C23.5246 30.6644 23.5047 45.1836 23.4496 45.5297C23.4133 45.757 23.4375 45.8773 23.5414 45.9812C23.7211 46.1613 23.7703 46.1597 24.0297 45.9554Z" fill="#049688"/>
</svg>
