<svg width="50" height="50" viewBox="0 0 50 50" fill="none" xmlns="http://www.w3.org/2000/svg">
<path d="M17.3592 39.3086C15.7068 38.0078 13.9451 36.7617 12.7381 35.0078C10.2029 31.9141 8.2498 28.3281 6.91777 24.5625C6.10917 22.1133 5.83574 19.4883 4.79277 17.1328C3.70683 15.4219 4.98027 13.5547 6.85136 13.0117C7.68339 12.8516 9.15214 12.0625 7.38261 12.6289C5.79667 13.793 5.64433 11.5703 7.26933 11.4297C8.37871 11.2813 8.78886 10.375 8.40996 9.5547C7.21855 8.77735 11.3006 7.92189 9.24589 6.76173C7.10527 4.45314 12.2381 4.00782 10.9725 6.63282C10.6717 8.64845 14.5584 6.26173 13.656 8.58985C14.574 9.70704 17.0935 8.84376 17.0271 10.4141C18.3631 10.5078 18.824 11.6289 20.074 11.7149C21.3748 12.3008 23.7303 12.7656 24.1717 14.2305C22.8826 15.25 19.8943 12.1211 19.7537 14.9492C20.1443 19.125 20.0428 23.4258 21.5701 27.4024C22.2928 29.8086 24.0428 31.7031 25.6248 33.5781C27.1404 35.4141 29.1873 36.707 31.281 37.7969C33.1131 38.6602 35.0896 39.2344 37.0896 39.5938C37.8982 38.9727 39.3318 36.6719 40.5935 37.6406C40.656 38.7344 38.0857 39.9219 40.4725 39.8047C41.8748 39.3828 42.8475 40.8867 44.0037 39.5274C45.0662 40.7891 48.4256 38.7227 47.6678 41.2969C46.6443 41.957 45.1521 41.5586 44.1248 42.4688C42.4334 41.625 41.0896 43.2227 39.2185 43.0234C37.1404 43.3945 35.0271 43.5469 32.9178 43.5469C29.4607 43.2734 25.9295 43.1602 22.6443 41.957C20.7928 41.418 18.9842 40.3633 17.3592 39.3086ZM20.2771 40.5742C22.0857 41.3555 23.8553 42.1797 25.8357 42.4297C28.9803 42.8672 32.2303 43.5391 35.3865 42.9258C33.9568 42.2813 32.4803 43.1758 31.0584 42.4649C29.3514 42.832 27.5193 42.3711 25.785 42.1445C23.8123 41.2656 21.6834 40.6602 19.8357 39.5195C17.5271 38.6758 21.031 40.6016 21.6521 40.7578C23.0935 41.5781 20.0662 40.3359 19.6365 39.9961C18.4295 39.3164 18.2732 39.4609 19.5154 40.1484C19.7654 40.293 20.0154 40.4492 20.2771 40.5742ZM16.8357 38.1406C18.5896 38.7891 16.8279 36.9063 16.0271 37.0156C15.6717 36.3984 14.6678 36.0078 15.3748 35.6758C14.1014 36.1172 14.0389 33.9961 13.4412 34.2969C12.0935 33.8711 12.9178 32.3633 11.3123 31.4375C11.1678 30.4609 9.71855 29.6172 9.25761 28.1445C9.05449 27.3906 7.62089 25.2305 8.4998 27.2422C9.2498 29.1797 10.5662 30.8399 11.6639 32.4961C12.5154 34.0742 13.5232 35.7227 15.0701 36.707C15.5936 37.2149 16.0975 37.9844 16.8357 38.1406ZM11.785 32.5977C11.8475 32.332 12.1053 33.168 11.785 32.5977V32.5977ZM18.9334 38.918C18.3748 38.6992 19.324 38.7461 18.9334 38.918V38.918ZM19.8865 39.2656C19.4529 39.5352 19.7889 38.7852 19.8865 39.2656V39.2656ZM21.0779 39.7617C20.2029 39.4219 21.6443 39.2227 21.0779 39.7617V39.7617ZM23.117 40.8984C22.0154 40.707 23.4646 40.3906 23.117 40.8984V40.8984ZM19.199 38.168C18.0623 38.1602 20.0779 37.5977 19.199 38.168V38.168ZM20.0935 38.6133C19.7732 38.7461 20.0662 38.3125 20.0935 38.6133V38.6133ZM24.5584 41.3984C25.2771 41.8516 28.7498 42.3906 26.574 41.5859C26.2107 41.6641 22.5389 40.5469 24.5584 41.3984ZM17.4685 35.8789C16.3553 35.5469 17.3982 35.5781 17.4685 35.8789V35.8789ZM19.5467 37.0899C18.4256 36.8008 20.0896 36.7149 19.5467 37.0899V37.0899ZM21.2967 38.1641C20.035 37.8711 22.0701 37.8711 21.2967 38.1641V38.1641ZM16.6209 34.957C17.4646 35.6016 20.0193 35.0391 17.91 34.5703C16.9529 34.0586 14.7889 33.7109 16.2615 34.8789L16.6209 34.957ZM22.4803 38.5352C21.0076 38.1914 22.8318 37.9375 22.4803 38.5352V38.5352ZM20.699 37.1172C22.7576 37.6992 18.9685 35.8125 20.1912 36.9024L20.4646 37.0274L20.699 37.1172ZM24.2693 39.1797C22.5076 38.9141 26.2185 39.1992 24.2693 39.1797V39.1797ZM15.8709 33.8281C15.3904 33.8594 15.7967 33.4649 15.8709 33.8281V33.8281ZM27.5662 41.0313C26.9334 41.5195 27.6209 40.375 27.5662 41.0313V41.0313ZM19.199 35.8672C18.5896 35.8516 19.0818 35.5234 19.199 35.8672V35.8672ZM16.0584 33.6016C14.5232 33.1094 17.1756 33.5352 16.0584 33.6016V33.6016ZM12.3318 31.1953C11.1131 30.2305 12.1912 30.6563 12.3318 31.1953V31.1953ZM22.1092 37.3984C21.906 37.1641 22.0115 37.4492 22.1092 37.3984V37.3984ZM28.1951 41.1328C27.8631 41.2695 28.1756 40.7774 28.1951 41.1328V41.1328ZM21.5701 36.8438C20.617 36.7031 21.6795 36.3828 21.5701 36.8438V36.8438ZM17.0389 33.9688C15.7029 33.4063 17.8709 33.8789 17.0389 33.9688V33.9688ZM24.7068 38.7344C23.4412 38.4844 26.0037 38.2188 24.7068 38.7344V38.7344ZM20.7185 36.0274C22.2146 36.2188 18.9373 35.0078 20.3904 35.918L20.7185 36.0274ZM25.9178 39.2266C27.3162 38.3906 26.8553 41.1836 28.2889 39.4609C29.7029 38.4297 27.0662 40.7383 28.8084 39.6445C30.0701 38.8008 31.9295 40.043 33.1053 40.4492C33.949 40.4063 34.7732 41.1797 35.6404 40.7109C37.3084 40.2617 32.3748 40.043 33.6678 39.2461C32.1404 39.6914 31.0115 38.7149 30.2615 37.7383C28.5467 37.3438 26.5662 36.4688 25.7107 34.9492C25.3631 34.3789 26.2146 35.0313 25.41 34.0977C24.3787 33.1797 23.8631 32.1367 23.1717 31.0195C22.3435 30.5781 22.2459 29.2774 22.1639 30.9766C22.1717 29.9063 21.1639 29.1836 20.9178 29.4844C20.9139 28.4531 21.9959 28.9688 21.2381 28.207C21.074 27.1367 20.5389 26.0234 20.3787 24.8164C20.1287 24.2344 20.3435 22.9883 19.5232 24.3047C19.2264 25.6992 19.4256 22.5938 19.8904 23.6172C20.4998 22.5742 19.6717 22.6953 19.6365 22.8399C20.035 21.957 19.8865 20.707 19.531 21.1836C19.742 20.25 19.867 17.7461 19.2146 18.1914C19.6092 17.2149 19.9646 13.7227 18.2498 15.0547C17.5545 15.0664 16.3553 15.3047 15.785 15.5899C17.5662 16.5703 15.6053 15.9453 14.8787 15.7891C14.785 16.6992 14.0662 16.3047 13.1678 16.3125C14.6014 16.4883 12.4685 17.7774 11.6482 17.2774C10.5779 17.7891 12.5701 19.0625 11.6678 19.457C11.7771 20.0508 10.031 19.2422 10.1678 20.6133C9.13261 20.1758 10.0271 22.2383 10.5428 21.543C12.3045 22.0195 11.785 23.1094 11.8279 24.1406C11.5389 24.7422 10.41 22.7266 11.5779 22.8203C10.656 21.3242 10.5584 22.2813 9.79667 22.9727C9.62089 23.0234 11.7459 23.9609 10.41 24.4258C11.5857 24.6094 11.6209 25.6367 11.8592 26.2852C12.5662 27.0195 12.4217 25.4727 13.2654 26.3555C12.7303 25.5664 10.4334 24.1367 12.281 24.5938C12.2693 23.8008 11.9451 23.1602 12.5154 23.1758C13.0779 22.1602 11.9256 25.6836 13.1912 24.3906C13.5428 24.2383 13.6287 23.375 14.2576 24.4727C15.1717 25.3711 14.5896 26.0234 13.2967 25.1992C13.5271 25.9844 15.0232 26.2617 14.742 27.4883C15.0389 28.5664 15.4568 28.168 15.8201 28.1055C16.1053 29.1524 16.2654 28.3828 16.281 27.8828C17.5857 28.1641 17.281 28.9336 17.6873 29.4727C18.5857 29.8789 16.4021 26.7227 17.9451 28.5234C19.5701 29.9883 18.5545 30.6016 17.0975 30.3672C18.0193 30.293 18.3162 31.6133 19.4685 31.5664C20.5193 32.0664 21.2342 33.9883 19.4217 33.1875C18.7928 32.6211 16.5662 31.9219 18.3865 33C20.0662 33.7774 21.3982 34.2422 23.0193 35.2188C24.1756 36.0469 24.6795 36.9922 25.117 37.1797C24.1443 37.6445 22.1834 36.8086 23.6404 36.5508C22.7303 36.3867 21.7107 35.9258 22.5818 37.0586C23.3201 37.6758 25.2029 37.6133 25.5428 37.6797C25.2576 38.3086 24.7654 38.3594 25.5545 38.4063C24.6756 38.8828 25.8357 38.957 25.9178 39.2266ZM24.1209 34.1484C23.5857 33.5899 23.449 32.543 24.0271 33.4531C24.3201 33.5703 24.9764 35.1641 24.1209 34.1484ZM29.9764 37.8672C29.9842 38.1211 30.3084 37.8438 29.9764 37.8672V37.8672ZM23.2771 32.7774C23.2537 31.9297 23.4685 33.4297 23.2771 32.7774V32.7774ZM22.6951 31.9922C22.0193 30.6953 23.5428 32.3633 22.6951 31.9922V31.9922ZM15.6404 27.125C15.8357 27.8008 16.035 27.0195 15.6404 27.125V27.125ZM21.2537 30.168C21.4959 29.2578 21.5389 30.9336 21.2537 30.168V30.168ZM17.2889 27.4102C17.0115 26.9063 17.8748 27.8828 17.2889 27.4102V27.4102ZM20.6912 28.5C20.0545 27.0742 21.1443 27.7188 20.8318 28.7344L20.6912 28.5ZM14.824 24.5899C14.5389 24.1211 14.0701 22.7461 14.2185 22.3281C14.3553 23.0117 15.6717 25.2695 14.8631 23.2617C13.9725 21.582 15.9295 23.8086 16.1326 24.2266C16.2264 24.6445 15.5818 24.1133 16.0193 25.0899C15.2225 23.9766 15.5506 25.707 14.824 24.5899ZM13.0115 23.3399C13.0857 22.25 13.4256 24.0859 13.0115 23.3399V23.3399ZM13.824 23.6211C14.2146 22.7969 14.4842 24.7656 13.824 23.6211V23.6211ZM11.8631 22.1016C11.1873 21.4297 10.699 20.8125 11.8943 21.6836C12.3553 21.7031 10.8709 20.2774 12.0037 21.2305C13.199 21.4492 12.5935 23.1875 11.8631 22.1016ZM12.8943 22.0742C13.1014 22.457 13.285 21.6875 12.8943 22.0742V22.0742ZM13.5271 22.2774C12.9334 21.1641 14.2498 22.7461 13.5271 22.2774V22.2774ZM12.2693 21.0742C10.3084 19.3281 14.7342 21.9883 12.5896 21.3984L12.2693 21.0742ZM17.8904 24.3399C17.0389 23.832 17.6639 20.7539 17.9529 22.8594C18.7771 22.5938 17.906 23.9453 18.5232 23.9336C18.4295 24.7852 18.1521 25.0938 17.8904 24.3399ZM19.9725 25.5703C20.0545 24.6406 20.1482 26.2031 19.9725 25.5703V25.5703ZM19.6092 25.2109C19.6209 25.6797 19.7029 24.8164 19.6092 25.2109V25.2109ZM12.6521 20.5C11.3904 18.7617 16.3162 22.2617 13.4607 20.9414C13.16 20.8594 12.8006 20.832 12.6521 20.5ZM16.66 22.6211C16.5389 21.1563 16.9256 22.8633 16.66 22.6211V22.6211ZM19.699 24.5742C19.7185 25.125 19.9334 23.7383 19.699 24.5742V24.5742ZM12.8475 19.8359C13.5975 19.6758 15.9529 21.1524 13.7889 20.2578C13.5467 19.9883 13.035 20.1094 12.8475 19.8359ZM19.281 23.043C19.3592 21.543 19.7303 22.1484 19.285 23.2578L19.281 23.043ZM13.4021 19.3125C13.7068 18.8633 12.5896 17.2891 13.5623 18.7461C13.9842 19.0781 14.7771 19.3047 14.074 19.4453C15.1834 20.4219 13.8084 19.7109 13.4021 19.3125ZM18.9646 22.5742C19.1482 23.5742 19.1756 20.8672 18.9646 22.5742V22.5742ZM12.7654 17.7383C12.8904 18.0469 12.9998 17.6367 12.7654 17.7383V17.7383ZM14.2146 18.6016C14.5896 17.8164 14.906 19.4727 14.2146 18.6016V18.6016ZM18.3045 20.875C18.3045 20.5742 18.3826 21.3125 18.3045 20.875V20.875ZM18.0701 20.3516C17.5037 18.9492 18.5975 21.0938 18.0701 20.3516V20.3516ZM17.7225 19.4336C17.6248 18.8555 18.0467 20.1602 17.7225 19.4336V19.4336ZM18.2889 18.5117C17.8982 17.8242 18.781 15.4844 18.8787 16.9375C18.4685 18.0664 18.7615 18.6992 19.0467 17.1836C19.5779 15.9883 18.9334 19.5352 18.2889 18.5117ZM18.8709 15.0313C18.91 15.2852 19.0428 14.8242 18.8709 15.0313V15.0313ZM17.8982 34.2188C17.6678 34.0156 17.9256 34.3477 17.8982 34.2188V34.2188ZM19.9021 35.2344C21.0193 35.5234 21.0115 35.0625 20.0037 34.9258C19.4607 34.4219 17.7498 33.8867 19.281 34.8633C19.3865 35.1172 19.7068 35.1094 19.9021 35.2344ZM15.9412 32.6016C16.5545 33.0625 18.2576 33.8985 16.8162 32.7774C17.3006 32.2149 15.8865 31.9141 16.3553 31.5352C15.16 30.8047 15.4139 30.8711 16.2498 30.8945C14.8162 30.2539 16.4568 30.3008 16.3787 29.9727C15.824 29.8633 13.6326 28.9961 14.9217 30.043C13.6092 29.375 14.6092 30.293 14.2107 30.1953C12.867 29.8281 15.406 31.2188 13.9998 30.8711C14.7693 31.4805 16.0701 32.4336 14.324 31.5156C14.1014 31.8477 15.5779 32.3516 15.9412 32.6016ZM18.0389 33.8086C16.7889 32.8008 20.5896 34.6289 18.0389 33.8086V33.8086ZM28.781 40.3125C28.4295 40.7461 28.8123 39.8047 28.781 40.3125V40.3125ZM29.8826 40.7774C30.4725 40.207 29.906 41.6875 30.8592 40.6367C30.8709 39.8867 30.8318 39.4414 29.7654 40.3555C29.4725 40.5195 29.3396 41.2109 29.8826 40.7774ZM12.3631 29.7734C11.0935 29.0664 12.1795 29.0625 12.3631 29.7734V29.7734ZM13.5389 30.5469C11.9764 29.8906 13.1014 29.8203 13.5389 30.5469V30.5469ZM20.2459 34.5899C20.9021 35.1719 23.2537 35.0156 21.0389 34.6602C20.7146 34.1758 18.9607 34.293 20.2459 34.5899ZM29.4646 40.2813C28.4881 40.6602 30.4685 39.4375 29.4646 40.2813V40.2813ZM31.5584 41.7227C31.1248 41.8399 31.5662 41.4531 31.5584 41.7227V41.7227ZM31.5623 41.3438C30.4803 41.4141 32.6795 40.1602 31.5623 41.3438V41.3438ZM9.46074 27.3477C8.51152 25.9922 8.87089 25.3828 7.95292 24.2734C7.77714 23.4258 6.37871 21.5039 7.23027 23.5391C8.00761 24.7305 8.23808 26.5742 9.46074 27.3477ZM31.2107 40.9688C30.3709 40.3906 33.2654 39.6406 31.2107 40.9688V40.9688ZM32.7771 41.582C32.1287 41.3984 33.8084 40.6992 32.7771 41.582V41.582ZM12.0115 28.2734C11.2537 28.2188 12.3084 27.8359 12.0115 28.2734V28.2734ZM32.4529 41.1602C33.449 40.5195 32.2225 40.6172 32.2732 41.2188L32.4529 41.1602ZM18.9451 32.6484C18.4178 32.6836 18.91 32.2149 18.9451 32.6484V32.6484ZM19.781 33.1289C19.3709 33.2109 19.5115 32.5899 19.781 33.1289V33.1289ZM34.0506 41.5938C35.3279 40.6719 33.2771 41.418 33.785 41.7695L34.0506 41.5938ZM33.5584 41.3594C32.4646 41.7461 34.6014 40.4883 33.5584 41.3594V41.3594ZM36.0545 43.0195C35.2068 42.8711 36.7537 42.5547 36.0545 43.0195V43.0195ZM12.6521 27.957C13.5857 28.168 16.3865 30.2578 14.7342 28.1016C13.8865 27.8516 14.3943 25.7813 13.531 26.1484C14.1092 27.1172 14.0076 27.5274 12.7889 26.918C11.2615 26.1719 11.9295 27.2852 12.2303 27.5938C11.824 27.6914 12.7732 27.9492 12.6521 27.957ZM8.39433 24.5938C8.5623 23.9024 6.85136 20.7852 7.58574 23.0313C7.85136 23.5039 7.82402 24.3945 8.39433 24.5938ZM16.2107 29.4141C15.7303 29.0117 16.1873 29.3555 16.2107 29.4141V29.4141ZM17.3943 29.6914C16.0857 29.3906 17.3943 28.957 17.3943 29.6914V29.6914ZM27.6678 36.1641C26.8943 36.1563 27.4725 35.6641 27.6678 36.1641V36.1641ZM28.16 36.5274C27.8787 36.582 28.0896 36.2461 28.16 36.5274V36.5274ZM32.2342 39.0899C31.7459 39.0547 32.6248 38.8008 32.2342 39.0899V39.0899ZM10.5193 25.1367C9.32011 24.8281 11.6404 24.7031 10.5193 25.1367V25.1367ZM26.7654 35.3711C26.0506 35.5508 26.7498 34.6445 26.7654 35.3711V35.3711ZM10.0779 24.1055C9.40996 23.9453 10.7967 23.8633 10.0779 24.1055V24.1055ZM12.1639 25.1172C11.9451 25.207 12.1521 24.8789 12.1639 25.1172V25.1172ZM37.6404 40.7383C38.5662 40.5508 40.6756 41.2109 41.0154 40.4922C39.8904 40.4649 37.1287 39.6992 36.9998 40.6719L37.2459 40.7109L37.6404 40.7383ZM12.8279 25.2852C12.2576 25.2578 12.8475 24.5508 12.8279 25.2852V25.2852ZM7.33964 21.4766C6.39042 21.2656 7.08964 20.0781 7.33964 21.4766V21.4766ZM8.64824 21.8047C7.44902 21.4024 8.66386 21.3555 8.64824 21.8047V21.8047ZM9.39433 22.1719C9.17949 22 9.22636 22.3945 9.39433 22.1719V22.1719ZM14.1053 25.1914C13.5779 25.043 14.3279 24.9883 14.1053 25.1914V25.1914ZM8.89824 21.3438C7.38261 21.1875 8.76933 20.2852 8.89824 21.3438V21.3438ZM6.21464 19.6016C5.95292 19.7852 6.17558 19.1133 6.21464 19.6016V19.6016ZM6.61308 19.3008C6.26933 19.375 6.54667 18.7227 6.61308 19.3008V19.3008ZM8.82011 20.6172C9.75371 20.25 7.12089 19.8594 8.62871 20.5469L8.82011 20.6172ZM38.3475 38.8555C37.5896 38.6875 38.9451 38.3086 38.3475 38.8555V38.8555ZM41.9139 40.707C41.3123 40.7969 42.1521 40 41.9139 40.707V40.707ZM9.04277 19.4609C8.30449 19.5977 9.14433 18.7774 9.04277 19.4609V19.4609ZM5.90605 17.3594C5.73808 16.3945 5.76152 14.6953 7.3748 15.2695C5.22246 15.6992 8.86699 17.9453 8.40605 16.1719C9.3123 16.2149 10.1756 15.6367 9.70292 16.5156C11.4881 16.3203 12.7225 14.7734 14.4451 14.9883C15.7889 14.8086 17.2537 14.6758 18.699 14.1367C19.8865 14.0508 21.031 12.7695 20.3826 12.0117C18.7615 11.875 17.0623 12.0781 15.2732 12.4336C13.2889 12.8477 11.4842 13.6289 9.48027 13.9688C7.52714 14.2305 9.87089 14.6914 9.3123 14.793C8.29277 15.1445 10.5271 15.3867 9.17949 15.7578C8.34746 15.5977 7.48027 15.3125 7.83574 14.4375C5.96464 14.6797 4.32011 15.457 5.80058 17.3594H5.90605ZM10.4139 15.0625C10.8514 13.4453 12.7615 16.3906 11.1326 15.2774C10.9373 15.1289 10.617 15.0117 10.4139 15.0625ZM10.4998 14.2774C10.8357 14.543 11.1326 13.8086 10.4998 14.2774V14.2774ZM11.3045 14.293C11.3631 13.5508 13.1443 14.6875 11.5975 14.5586L11.3045 14.293ZM12.4021 13.8477C12.5193 14.2656 12.8045 13.3789 12.4021 13.8477V13.8477ZM12.6834 13.6602C13.3514 12.8555 16.4685 13.1484 14.1873 13.582C13.5779 13.1211 13.1092 13.8555 12.6834 13.6602ZM16.7537 13.0352C16.6521 10.8399 18.7771 13.8125 16.7537 13.0352V13.0352ZM17.91 13.0274C18.3318 11.9219 19.5506 12.582 18.1053 12.8047C18.1365 12.9219 18.0623 13.375 17.91 13.0274ZM8.58964 18.8945C7.2498 18.2227 9.85136 18.1211 8.58964 18.8945V18.8945ZM9.52324 19.1524C8.5623 18.9609 9.96464 18.6836 9.52324 19.1524V19.1524ZM6.77324 17.2031C5.92167 16.9922 7.49589 16.6484 6.77324 17.2031V17.2031ZM44.0193 40.5039C43.4686 40.793 44.0389 39.8594 44.0193 40.5039V40.5039ZM40.2342 37.9219C39.7498 37.9844 40.3435 37.1797 40.2342 37.9219V37.9219ZM45.0623 40.7539C46.0701 40.7578 48.117 40.4414 45.9217 40.4414C45.5779 40.4922 43.9178 40.4844 45.0623 40.7539ZM10.3435 18.6992C11.16 18.6445 11.6209 17.8008 10.1834 17.8477C7.96074 17.6172 12.1443 18.6094 9.89824 18.3242C9.59746 18.5234 10.324 18.7539 10.3435 18.6992ZM11.0623 19.0625C10.8084 19.3399 10.9764 18.5391 11.0623 19.0625V19.0625ZM11.9139 16.7891C11.4217 16.6719 12.2654 16.3516 11.9139 16.7891V16.7891ZM9.19902 12.2578C10.656 11.7617 12.6443 11.207 13.3318 12.5C12.6326 11.6602 13.0506 10.8281 13.7107 12.0625C14.6443 13.3086 15.1131 11.4961 14.5037 11.0781C15.1951 11.9375 15.9842 12.3438 14.9685 11.1328C16.074 9.8047 12.7576 11.3086 12.0037 11.293C11.6443 11.4531 8.26152 12.1524 9.19902 12.2578ZM10.0545 10.625C10.8865 10 12.9256 11 11.617 10.0039C11.4881 9.88673 8.74589 10.7578 10.0545 10.625ZM13.0818 10.75C14.0545 10.7734 12.6639 9.44532 13.8201 10.0469C13.6287 9.42579 12.4725 9.3086 11.906 9.06251C11.5857 9.62892 12.5545 10.7578 13.0818 10.75ZM10.5857 8.00001C9.99589 8.23439 10.9217 7.54689 10.5857 8.00001V8.00001ZM11.8201 8.29689C13.3865 8.08985 11.4217 7.62501 11.5037 8.28126L11.8201 8.29689ZM9.51152 6.4922C8.40996 5.05079 11.5857 6.73439 10.4646 5.22657C9.52324 4.47657 8.61699 6.07032 9.51152 6.4922ZM23.656 14.1094C24.16 13.2149 21.5701 12.9024 23.3162 13.793C23.4803 13.8477 23.4412 14.1719 23.656 14.1094Z" fill="#010101"/>
</svg>
