<svg width="50" height="50" viewBox="0 0 50 50" fill="none" xmlns="http://www.w3.org/2000/svg">
<g id="Logos/gitlab-original">
<path id="Vector" d="M49.4589 28.2461L46.7112 19.7903L41.2655 3.0313C40.9859 2.16958 39.7655 2.16958 39.4859 3.0313L34.0405 19.7903H15.9593L10.514 3.0313C10.2339 2.16958 9.01398 2.16958 8.7339 3.0313L3.28898 19.7907L0.540933 28.2461C0.418712 28.6221 0.418646 29.0271 0.540745 29.4031C0.662844 29.779 0.90084 30.1067 1.22062 30.3391L24.9999 47.6149L48.7788 30.3387C49.0985 30.1063 49.3364 29.7787 49.4585 29.4028C49.5806 29.0269 49.5806 28.622 49.4585 28.2461" fill="#FC6D26"/>
<path id="Vector_2" d="M25.0001 47.6149L34.0407 19.7906H15.9595L25.0001 47.6145V47.6149Z" fill="#E24329"/>
<path id="Vector_3" d="M25 47.6149L15.9594 19.7906H3.28906L25 47.6145V47.6149Z" fill="#FC6D26"/>
<path id="Vector_4" d="M3.28892 19.7903L0.54048 28.2461C0.418226 28.622 0.418146 29.027 0.54025 29.4029C0.662355 29.7788 0.900372 30.1064 1.22017 30.3387L24.9999 47.6149L3.28892 19.7907V19.7903Z" fill="#FCA326"/>
<path id="Vector_5" d="M3.28906 19.7903H15.9594L10.5141 3.0313C10.234 2.16958 9.01406 2.16958 8.73398 3.0313L3.28906 19.7907V19.7903Z" fill="#E24329"/>
<path id="Vector_6" d="M25 47.6149L34.0406 19.7906H46.7113L25 47.6145V47.6149Z" fill="#FC6D26"/>
<path id="Vector_7" d="M46.7109 19.7903L49.459 28.2461C49.5812 28.622 49.5813 29.027 49.4592 29.4029C49.3371 29.7788 49.0991 30.1064 48.7793 30.3387L25 47.6149L46.7109 19.7907V19.7903Z" fill="#FCA326"/>
<path id="Vector_8" d="M46.7109 19.7903H34.041L39.4863 3.03167C39.7664 2.16995 40.9863 2.16995 41.2664 3.03167L46.7117 19.7907L46.7109 19.7903Z" fill="#E24329"/>
</g>
</svg>
