<svg width="50" height="20" viewBox="0 0 50 20" fill="none" xmlns="http://www.w3.org/2000/svg">
<g id="Group">
<path id="Vector" fill-rule="evenodd" clip-rule="evenodd" d="M4.35766 6.41757C4.26274 6.41757 4.23931 6.36992 4.28657 6.29921L4.78384 5.65976C4.83071 5.58867 4.94946 5.5414 5.04399 5.5414H13.4959C13.5909 5.5414 13.6143 5.61249 13.567 5.68359L13.1647 6.29921C13.1174 6.36992 12.9991 6.44101 12.928 6.44101L4.35766 6.41757ZM0.782664 8.59531C0.688133 8.59531 0.664305 8.54843 0.711571 8.47695L1.20884 7.83788C1.2561 7.76679 1.37446 7.71953 1.46938 7.71953H12.2647C12.3592 7.71953 12.4069 7.79062 12.3831 7.86171L12.1936 8.42968C12.1702 8.5246 12.0752 8.57187 11.9807 8.57187L0.782664 8.59531ZM6.51157 10.7734C6.41704 10.7734 6.3936 10.7023 6.44087 10.6312L6.77212 10.0394C6.81977 9.96835 6.91431 9.89765 7.00923 9.89765H11.7436C11.8385 9.89765 11.8858 9.96836 11.8858 10.0633L11.8389 10.6312C11.8389 10.7262 11.744 10.7973 11.6729 10.7973L6.51157 10.7734ZM31.0858 5.9914C29.594 6.37031 28.576 6.65429 27.1084 7.03281C26.753 7.12773 26.7295 7.15117 26.4217 6.79609C26.0666 6.39374 25.8061 6.1332 25.3092 5.89648C23.8174 5.16288 22.3733 5.37578 21.0241 6.25195C19.4143 7.29335 18.5858 8.83203 18.6092 10.7496C18.6327 12.6437 19.935 14.2062 21.8053 14.4668C23.4151 14.6797 24.7647 14.1113 25.8299 12.9043C26.0428 12.6437 26.2323 12.3598 26.469 12.0281H21.8999C21.403 12.0281 21.2846 11.7203 21.4502 11.318C21.7581 10.584 22.326 9.35312 22.6573 8.73749C22.7288 8.59531 22.8944 8.35859 23.2495 8.35859H31.8666C31.8198 8.99804 31.8198 9.6371 31.7249 10.2766C31.4643 11.9809 30.8252 13.5434 29.7834 14.9164C28.0788 17.1656 25.8538 18.5621 23.0362 18.941C20.7163 19.2488 18.562 18.7988 16.6682 17.3785C14.9163 16.0527 13.9221 14.3008 13.6616 12.123C13.3538 9.54257 14.1112 7.22226 15.6737 5.18632C17.3545 2.98476 19.5799 1.58789 22.3026 1.09062C24.528 0.688276 26.6584 0.948822 28.576 2.25078C29.8307 3.07929 30.7303 4.21562 31.3221 5.58867C31.4643 5.80195 31.3698 5.92031 31.0854 5.99101L31.0858 5.9914Z" fill="#00ACD7"/>
<path id="Vector_2" d="M38.9217 19.0832C36.7674 19.0356 34.8022 18.4204 33.1451 16.9996C31.7483 15.7926 30.8725 14.2536 30.5885 12.4305C30.1623 9.75551 30.8959 7.38793 32.5061 5.28129C34.2342 3.00824 36.3174 1.82465 39.135 1.32738C41.5494 0.901602 43.8225 1.13832 45.8819 2.53481C47.7522 3.81332 48.9119 5.54145 49.2198 7.8141C49.6221 11.0102 48.6991 13.6145 46.4971 15.8399C44.9346 17.4258 43.017 18.4204 40.8155 18.87C40.1764 18.9883 39.5369 19.0121 38.9217 19.0832ZM44.5561 9.51879C44.5327 9.21098 44.5327 8.97426 44.485 8.73754C44.0592 6.39379 41.9045 5.06801 39.6557 5.5891C37.4537 6.08598 36.0334 7.48285 35.5127 9.70824C35.0866 11.5547 35.9862 13.425 37.6905 14.1825C38.9928 14.7508 40.2948 14.6797 41.5494 14.0407C43.4198 13.07 44.4377 11.5547 44.5561 9.51879Z" fill="#00ACD7"/>
</g>
</svg>
