<svg width="50" height="50" viewBox="0 0 50 50" fill="none" xmlns="http://www.w3.org/2000/svg">
<g id="Logos/java-original">
<path id="Vector" d="M18.6004 38.3281C18.6004 38.3281 16.7383 39.4117 19.9273 39.7773C23.7914 40.2187 25.766 40.1555 30.023 39.3508C30.023 39.3508 31.1445 40.052 32.7078 40.6598C23.1613 44.7496 11.1031 40.4227 18.6004 38.3281ZM17.4332 32.9902C17.4332 32.9902 15.3441 34.5367 18.5359 34.8672C22.6637 35.2934 25.9227 35.3281 31.5648 34.2422C31.5648 34.2422 32.3434 35.0332 33.5695 35.4652C22.0297 38.8402 9.17656 35.7309 17.4332 32.9902Z" fill="#0074BD"/>
<path id="Vector_2" d="M27.2666 23.934C29.6201 26.643 26.6494 29.0785 26.6494 29.0785C26.6494 29.0785 32.6217 25.9961 29.8795 22.1344C27.3174 18.5348 25.3533 16.7469 35.9869 10.5797C35.9869 10.5801 19.2951 14.7477 27.2666 23.934Z" fill="#EA2D2E"/>
<path id="Vector_3" d="M39.8916 42.277C39.8916 42.277 41.2701 43.4137 38.3728 44.2922C32.8642 45.961 15.4408 46.4641 10.6017 44.359C8.86306 43.602 12.1248 42.5524 13.1509 42.3309C14.2209 42.0992 14.8318 42.1414 14.8318 42.1414C12.897 40.7793 2.32673 44.8172 9.46345 45.9754C28.9248 49.1301 44.9388 44.5547 39.8916 42.277ZM19.4967 27.4586C19.4967 27.4586 10.6349 29.5637 16.3588 30.3289C18.776 30.6524 23.5924 30.5782 28.0818 30.2016C31.7498 29.8934 35.4306 29.2352 35.4306 29.2352C35.4306 29.2352 34.1385 29.7895 33.2025 30.4278C24.2017 32.7953 6.81814 31.6926 11.8232 29.2723C16.0545 27.2258 19.4967 27.4586 19.4967 27.4586ZM35.3939 36.3442C44.5427 31.5914 40.3123 27.0239 37.3595 27.6391C36.6377 27.7895 36.3138 27.9203 36.3138 27.9203C36.3138 27.9203 36.5826 27.4989 37.0951 27.3176C42.9361 25.2649 47.4275 33.3735 35.2111 36.5852C35.2111 36.5844 35.3513 36.4574 35.3939 36.3442Z" fill="#0074BD"/>
<path id="Vector_4" d="M29.8791 0.619873C29.8791 0.619873 34.9447 5.68862 25.0732 13.4804C17.1568 19.7328 23.2681 23.2968 25.0705 27.3707C20.449 23.2015 17.0591 19.5308 19.333 16.1148C22.672 11.1015 31.9224 8.66987 29.8791 0.619873Z" fill="#EA2D2E"/>
<path id="Vector_5" d="M20.3963 49.227C29.176 49.7883 42.6619 48.9145 42.9811 44.7598C42.9811 44.7598 42.3674 46.3348 35.7244 47.5844C28.2299 48.9953 18.9846 48.8309 13.5029 47.9258C13.5029 47.9262 14.626 48.8559 20.3963 49.227Z" fill="#0074BD"/>
</g>
</svg>
