<svg width="50" height="50" viewBox="0 0 50 50" fill="none" xmlns="http://www.w3.org/2000/svg">
<g id="Logos/javascript-original">
<path id="Vector" d="M0.549805 0.550049H49.4498V49.4504H0.549805V0.550049Z" fill="#F0DB4F"/>
<path id="Vector_2" d="M45.4481 37.7875C45.0898 35.5567 43.6352 33.6828 39.3262 31.9356C37.8293 31.2477 36.1605 30.7551 35.6633 29.6207C35.4867 28.9606 35.4633 28.5887 35.575 28.1891C35.8957 26.8922 37.4438 26.4879 38.6707 26.8598C39.4609 27.1246 40.209 27.7336 40.6602 28.7051C42.7703 27.3387 42.766 27.3477 44.2395 26.4086C43.7 25.5723 43.4121 25.1864 43.059 24.8285C41.7898 23.411 40.0605 22.6809 37.2949 22.7367L35.8543 22.9231C34.4738 23.2719 33.1582 23.9965 32.3867 24.968C30.0719 27.5946 30.732 32.1914 33.5488 34.0832C36.3238 36.166 40.4004 36.6399 40.9211 38.5875C41.4277 40.9719 39.1688 41.7438 36.9234 41.4696C35.2688 41.1254 34.3484 40.2844 33.3535 38.7551C31.5223 39.8149 31.5223 39.8149 29.6395 40.8977C30.0859 41.8739 30.5551 42.3157 31.3035 43.1614C34.8457 46.7543 43.7098 46.5778 45.2996 41.1395C45.3641 40.9528 45.7922 39.7074 45.4481 37.7875ZM27.1336 23.0246H22.5598L22.541 34.8496C22.541 37.3645 22.6711 39.6699 22.2621 40.3766C21.593 41.7664 19.859 41.5942 19.0688 41.3246C18.2645 40.9293 17.8555 40.3672 17.3816 39.5727C17.2516 39.3446 17.1539 39.168 17.1211 39.1543L13.4023 41.4317C14.0207 42.7008 14.9316 43.8024 16.0984 44.518C17.8414 45.5641 20.184 45.8848 22.634 45.3223C24.2285 44.8578 25.6043 43.8957 26.3246 42.4313C27.366 40.5114 27.1426 38.1875 27.1332 35.6172C27.1566 31.4239 27.1336 27.2313 27.1336 23.0246Z" fill="#323330"/>
</g>
</svg>
