<svg width="50" height="50" viewBox="0 0 50 50" fill="none" xmlns="http://www.w3.org/2000/svg">
<path d="M22.0639 21.5227C22.2084 21.6282 22.3842 21.6907 22.5756 21.6907C23.0444 21.6907 23.4272 21.3196 23.4467 20.8586L23.4663 20.8469L23.7592 15.6672C23.4077 15.7102 23.0561 15.7688 22.7045 15.8469C20.7788 16.2844 19.1108 17.2336 17.8061 18.5149L22.0522 21.5266L22.0639 21.5227ZM21.4975 29.1125C21.448 28.8933 21.3152 28.7018 21.1271 28.5786C20.9391 28.4554 20.7105 28.4102 20.4897 28.4524L20.4819 28.4407L15.3842 29.304C16.1491 31.4219 17.5924 33.2278 19.4897 34.4407L21.4663 29.6672L21.4506 29.6477C21.517 29.4836 21.5405 29.3 21.4975 29.1125ZM19.8022 25.4368C19.9741 25.3899 20.1342 25.2883 20.2553 25.1399C20.5483 24.7727 20.4975 24.2454 20.1459 23.9407L20.1498 23.9211L16.2709 20.4524C15.0881 22.3784 14.5797 24.6431 14.8256 26.8899L19.7983 25.4563L19.8022 25.4368ZM23.5678 26.9602L24.9975 27.6477L26.4272 26.9641L26.7788 25.4211L25.7905 24.1868H24.2045L23.2123 25.4211L23.5678 26.9602ZM26.5366 20.8391C26.5444 21.0188 26.6069 21.1946 26.728 21.343C27.0209 21.7102 27.5483 21.7766 27.9233 21.5032L27.9389 21.511L32.1577 18.5188C30.5639 16.9602 28.4858 15.9407 26.2397 15.6672L26.5327 20.8391H26.5366ZM29.4975 28.429C29.4311 28.4172 29.3647 28.4094 29.2983 28.4133C29.185 28.4172 29.0717 28.4485 28.9663 28.4993C28.764 28.5968 28.6072 28.7686 28.5286 28.979C28.45 29.1893 28.4556 29.4219 28.5444 29.6282L28.5366 29.636L30.5327 34.4563C32.4584 33.2297 33.8959 31.3977 34.6498 29.2844L29.5092 28.4133L29.4975 28.429ZM25.7631 30.9836C25.6855 30.8413 25.57 30.7232 25.4293 30.6425C25.2886 30.5618 25.1283 30.5217 24.9663 30.5266C24.6655 30.5383 24.3803 30.7063 24.228 30.9875H24.2241L21.7163 35.5188C23.5119 36.1293 25.4419 36.228 27.2905 35.804C27.6342 35.7258 27.9702 35.6321 28.2944 35.5227L25.7827 30.9797H25.7631V30.9836Z" fill="#486BB3"/>
<path d="M48.65 29.9954L44.5719 12.2883C44.4655 11.829 44.2567 11.3997 43.9611 11.0324C43.6655 10.6652 43.2908 10.3694 42.8649 10.1672L26.3649 2.28443C25.8876 2.05746 25.3614 1.95275 24.8336 1.97975C24.4138 2.00038 24.0023 2.10393 23.6227 2.28443L7.12268 10.1672C6.69746 10.3704 6.32332 10.6665 6.02786 11.0336C5.7324 11.4007 5.52318 11.8295 5.41564 12.2883L1.34924 29.9993C1.25478 30.4073 1.24416 30.8303 1.31802 31.2426C1.39188 31.6549 1.54868 32.0478 1.77893 32.3977C1.83361 32.4837 1.89611 32.5657 1.95861 32.6477L13.3805 46.8469C13.6776 47.2153 14.0537 47.5123 14.4811 47.7158C14.9084 47.9193 15.3759 48.0242 15.8492 48.0227L34.1656 48.0188C35.1266 48.0188 36.0328 47.5852 36.6344 46.843L48.0524 32.6399C48.3447 32.2725 48.5502 31.8439 48.6537 31.386C48.7572 30.9281 48.7559 30.4527 48.65 29.9954ZM42.3727 29.7805C42.2516 30.3079 41.6852 30.6282 41.0992 30.5032C41.0953 30.5032 41.0875 30.5032 41.0836 30.4993C41.0758 30.4993 41.0719 30.4954 41.0641 30.4915C40.982 30.4719 40.8805 30.4563 40.8102 30.4368C40.4742 30.3469 40.2281 30.2102 39.9235 30.093C39.2711 29.8587 38.7281 29.6633 38.2008 29.5852C37.9313 29.5657 37.7945 29.6907 37.6461 29.7883C37.5758 29.7727 37.3531 29.7337 37.2242 29.7141C36.2789 32.6868 34.2633 35.2649 31.5328 36.8743C31.5797 36.9876 31.6617 37.2297 31.6969 37.2727C31.6344 37.4407 31.5406 37.5969 31.6227 37.8547C31.8141 38.3508 32.1227 38.8391 32.4977 39.4212C32.6774 39.6907 32.8649 39.8977 33.0289 40.2102C33.068 40.2844 33.1188 40.3977 33.1578 40.4758C33.4117 41.0188 33.2242 41.6438 32.736 41.8782C32.2438 42.1165 31.6344 41.8665 31.3688 41.3196C31.3297 41.2415 31.2789 41.1399 31.2477 41.0657C31.107 40.7454 31.0602 40.4719 30.9625 40.1594C30.7399 39.5032 30.5524 38.9602 30.2867 38.4993C30.1344 38.2766 29.9508 38.2493 29.7828 38.1946C29.7516 38.1399 29.6344 37.9251 29.5719 37.8157C29.025 38.0227 28.4625 38.1946 27.8766 38.3274C25.3141 38.9094 22.7477 38.6751 20.4586 37.7922L20.236 38.1985C20.068 38.2415 19.9078 38.2883 19.8102 38.4055C19.4508 38.8352 19.3063 39.5227 19.0446 40.179C18.9469 40.4876 18.9 40.7649 18.7594 41.0852C18.7281 41.1594 18.6735 41.261 18.6383 41.3352V41.3391L18.6344 41.343C18.3727 41.886 17.7633 42.136 17.2711 41.9016C16.7828 41.6672 16.5992 41.0422 16.8492 40.4993C16.8883 40.4212 16.9352 40.3079 16.9742 40.2337C17.1383 39.9251 17.3219 39.7141 17.5055 39.4446C17.8805 38.8587 18.2086 38.3352 18.4 37.8391C18.4469 37.6751 18.3766 37.4485 18.3141 37.2805L18.4938 36.8508C15.8649 35.2922 13.7906 32.8118 12.7985 29.7376L12.3688 29.8118C12.2516 29.7454 12.0211 29.593 11.8024 29.6126C11.275 29.6907 10.7321 29.886 10.0797 30.1204C9.77502 30.2376 9.53283 30.3704 9.19299 30.4602C9.12268 30.4797 9.02111 30.4993 8.93908 30.5188C8.93127 30.5188 8.92736 30.5227 8.91955 30.5266C8.91564 30.5266 8.90783 30.5266 8.90393 30.5305C8.31799 30.6555 7.75158 30.3352 7.63049 29.8079C7.50939 29.2805 7.88439 28.7454 8.46643 28.6047C8.47033 28.6047 8.47814 28.6008 8.48205 28.6008C8.48596 28.6008 8.48596 28.6008 8.48986 28.5969C8.57189 28.5774 8.67736 28.5501 8.75549 28.5344C9.09924 28.468 9.38049 28.4837 9.70471 28.4602C10.3961 28.386 10.9664 28.3274 11.4742 28.1672C11.6344 28.1008 11.7906 27.8782 11.9 27.7376L12.3141 27.6165C11.8492 24.4055 12.6344 21.2571 14.3297 18.7063L14.0133 18.4251C13.9938 18.3001 13.9664 18.0188 13.8141 17.8547C13.4274 17.4915 12.9352 17.1868 12.3453 16.8235C12.0641 16.6594 11.8063 16.554 11.525 16.343C11.4664 16.3001 11.3844 16.2297 11.3219 16.179C11.318 16.1751 11.3102 16.1712 11.3063 16.1672C10.8336 15.7883 10.7242 15.136 11.0641 14.7102C11.2555 14.4719 11.5485 14.3508 11.8492 14.3626C12.0836 14.3704 12.3297 14.4563 12.5367 14.6204C12.6031 14.6751 12.6969 14.7454 12.7555 14.7962C13.0211 15.0227 13.1813 15.2493 13.4039 15.4876C13.8922 15.9837 14.2945 16.3938 14.736 16.6907C14.9664 16.8274 15.1461 16.7727 15.3219 16.7493C15.3805 16.7922 15.568 16.929 15.6774 17.0032C17.357 15.218 19.568 13.8977 22.1305 13.3157C22.7281 13.179 23.3219 13.0891 23.9156 13.0422L23.9391 12.6243C24.0719 12.4954 24.2164 12.3157 24.2594 12.1126C24.3024 11.5813 24.2321 11.011 24.15 10.3196C24.1031 9.99928 24.0289 9.72975 24.0133 9.38209C24.0094 9.31178 24.0133 9.21021 24.0172 9.12818C24.0172 9.12037 24.0133 9.10865 24.0133 9.10084C24.0133 8.49537 24.4547 8.00318 25.0016 8.00318C25.5485 8.00318 25.9899 8.49537 25.9899 9.10084C25.9899 9.18678 25.9938 9.30396 25.9938 9.38209C25.982 9.72975 25.9039 9.99928 25.857 10.3196C25.775 11.0071 25.7008 11.5813 25.7438 12.1126C25.7828 12.3782 25.9391 12.4837 26.068 12.6047C26.0719 12.6751 26.0836 12.9133 26.0914 13.0462C29.232 13.3235 32.1461 14.761 34.2906 17.0071L34.6656 16.7376C34.7946 16.7454 35.0719 16.7844 35.2633 16.6712C35.7047 16.3743 36.107 15.9602 36.5953 15.468C36.818 15.2297 36.982 15.0071 37.2477 14.7766C37.3063 14.7258 37.4 14.6555 37.4664 14.6008C37.9391 14.2219 38.5992 14.2649 38.9391 14.6907C39.2789 15.1165 39.1696 15.7688 38.6969 16.1477C38.6305 16.2024 38.5445 16.2766 38.4781 16.3235C38.1969 16.5305 37.9391 16.636 37.6578 16.804C37.068 17.1672 36.5758 17.4719 36.1891 17.8352C36.0055 18.0305 36.0211 18.218 36.0016 18.3938C35.9469 18.4446 35.7555 18.6165 35.65 18.7063C36.5239 20.0067 37.1515 21.4565 37.5016 22.9837C37.861 24.5422 37.9156 26.0969 37.7086 27.593L38.107 27.7102C38.1774 27.8118 38.3258 28.0579 38.5328 28.1399C39.0406 28.3001 39.611 28.3587 40.3024 28.4329C40.6266 28.4602 40.9078 28.4446 41.2516 28.5071C41.3336 28.5227 41.4547 28.554 41.5367 28.5735C42.1227 28.718 42.4938 29.2532 42.3727 29.7805Z" fill="#486BB3"/>
<path d="M33.7006 20.4524L29.8412 23.9055L29.8451 23.9172C29.7123 24.0344 29.6108 24.1907 29.5678 24.3782C29.4623 24.8352 29.7397 25.2883 30.185 25.4133L30.1889 25.4329L35.185 26.8704C35.2905 25.7922 35.228 24.675 34.9701 23.5579C34.7123 22.429 34.2787 21.386 33.7006 20.4524Z" fill="#486BB3"/>
</svg>
