<svg width="50" height="50" viewBox="0 0 50 50" fill="none" xmlns="http://www.w3.org/2000/svg">
<path fill-rule="evenodd" clip-rule="evenodd" d="M6.61484 0.671509C6.17461 0.705884 5.74219 0.700415 5.31602 0.817212C4.38359 1.07307 3.55508 1.48206 2.82422 2.11252C2.39453 2.48284 2.01953 2.88206 1.70117 3.35237C1.20977 4.07854 0.875 4.85901 0.707031 5.73752C0.774219 5.8551 0.844922 5.97854 0.919922 6.10393C1.39609 6.90002 1.87266 7.69065 2.35 8.48596L3.60469 10.5723C3.99062 11.2153 4.37578 11.8586 4.76094 12.5016L6.56094 15.5047L7.78867 17.5531C8.38516 18.5473 8.9832 19.5406 9.57891 20.5352L11.7699 24.1957C12.4016 25.25 13.0344 26.3035 13.6672 27.3571L13.7516 27.4797C13.8434 27.509 13.9164 27.484 13.9922 27.466C14.8258 27.266 15.6594 27.0672 16.493 26.868C17.8449 26.5449 19.1969 26.2231 20.5488 25.8996L22.6664 25.393C24.0332 25.0664 25.4004 24.7406 26.7672 24.4133C28.1488 24.0828 29.5301 23.7508 30.9121 23.4199C31.6105 23.2524 32.309 23.0856 33.0078 22.9188C34.3598 22.5961 35.7117 22.2742 37.0637 21.9524L41.4809 20.9004L41.7195 20.836L41.6543 20.7067L40.4488 19.0028L39.2582 17.3172L37.9848 15.5188L36.7676 13.7949L35.5613 12.0914L34.316 10.3309C33.9094 9.75667 33.502 9.18323 33.0949 8.6094L32.4516 7.70081C32.3525 7.56246 32.2752 7.40978 32.2223 7.24807C32.0949 6.85315 32.2402 6.59026 32.4707 6.39612C32.6199 6.26995 32.7918 6.17737 32.9777 6.12268C33.236 6.04332 33.498 5.97683 33.7629 5.92346C34.2938 5.82307 34.8281 5.73792 35.3609 5.64924L37.1672 5.35471C37.548 5.29182 37.9285 5.22581 38.3094 5.16135C38.827 5.07385 39.3445 4.98596 39.8625 4.89963C40.3652 4.81526 40.868 4.73167 41.3707 4.64885L43.0164 4.37971L44.1586 4.18792C44.593 4.11526 45.027 4.04299 45.4609 3.9719C46.0023 3.88362 46.5434 3.79456 47.0848 3.70979C47.4074 3.6594 47.7301 3.64182 48.0504 3.73401C48.288 3.80438 48.512 3.91439 48.7129 4.0594L48.9945 4.25588C49.0227 4.19104 48.982 4.15588 48.9633 4.11877C48.5635 3.30374 47.9965 2.58207 47.2992 2.00081C46.6522 1.45718 45.9039 1.04696 45.0977 0.793774C44.6176 0.641821 44.1242 0.712524 43.6219 0.674634M21.7535 49.6094C21.7293 49.6094 21.7078 49.4336 21.6805 49.3871C21.0945 48.3871 20.5023 47.3137 19.9234 46.3102C19.1945 45.045 18.471 43.7768 17.7527 42.5055C16.9852 41.1469 16.2242 39.7844 15.4625 38.4227C14.7387 37.1281 14.0162 35.8328 13.2949 34.5367C12.8594 33.7535 12.4266 32.9688 11.9914 32.1852L11.8758 32.0059L11.6641 32.0477C11.2453 32.1559 10.8273 32.2649 10.4094 32.375C9.82734 32.5281 9.2457 32.684 8.66328 32.836C7.35586 33.1762 6.04844 33.5145 4.74102 33.8535C3.41133 34.1989 2.02578 34.5449 0.695703 34.8887C0.614844 34.9094 0.78125 34.9164 0.390625 34.9301V43.1899C0.551563 43.4461 0.536328 43.3254 0.546484 43.4098C0.577344 43.6543 0.627344 43.9008 0.670312 44.143C0.83125 45.0453 1.19336 45.8715 1.7168 46.6239C2.48438 47.7278 3.50664 48.5168 4.75898 48.9996C5.20625 49.1715 5.67305 49.2926 6.15039 49.3512L6.63516 49.4793" fill="#FD4F31"/>
<path fill-rule="evenodd" clip-rule="evenodd" d="M1.94375 30.368C3.48242 30.002 5.02148 29.6364 6.56016 29.2711C7.23594 29.111 7.91211 28.9528 8.58789 28.7918C8.92578 28.7114 9.26445 28.6348 9.59961 28.5442C9.89805 28.4637 9.93477 28.3649 9.78125 28.0958C9.55938 27.7067 9.33359 27.32 9.10898 26.9321L7.13086 23.5258L5.15352 20.1192C4.48281 18.9637 3.81133 17.8083 3.14023 16.6532L1.4168 13.6883C1.16836 13.261 0.866797 12.8325 0.617188 12.4055C0.570703 12.3278 0.78125 12.2348 0.390625 12.1934V30.7075C0.390625 30.695 0.567578 30.6844 0.627344 30.67L1.94375 30.368ZM49.3063 43.6016C48.7031 43.8161 48.0996 44.0321 47.4969 44.2481L43.3777 45.7251C42.6148 45.9989 41.8535 46.2758 41.0902 46.5485C39.5348 47.1036 37.9785 47.6567 36.4227 48.2106C35.5211 48.5317 34.6191 48.9286 33.718 49.2512C33.4711 49.3399 33.2277 49.6094 32.9832 49.6094H43.3309L43.5535 49.4817C43.8168 49.4704 44.0758 49.3922 44.3344 49.345C45.3965 49.1508 46.3477 48.6915 47.1902 48.02C47.8375 47.504 48.3641 46.8731 48.7766 46.1536C49.2008 45.4129 49.4527 44.6118 49.5738 43.7704C49.5844 43.6977 49.607 43.6153 49.5461 43.5403C49.4602 43.5336 49.3844 43.5739 49.3063 43.6016ZM48.4176 29.7067C47.9613 29.0825 47.5039 28.4594 47.0484 27.8348C46.4199 26.9727 45.7926 26.1098 45.1648 25.2473C44.9098 24.8973 44.6512 24.5501 44.4023 24.1961C44.3273 24.0895 44.2418 24.061 44.125 24.0926L44.0582 24.1118C42.9027 24.3926 41.7469 24.6727 40.591 24.9528L38.5199 25.4555L34.4684 26.4395C33.1328 26.7641 31.7973 27.0891 30.4613 27.4129L26.2965 28.4215C24.9305 28.7532 23.5652 29.086 22.1996 29.418L18.2379 30.3797C17.5398 30.5493 16.8418 30.718 16.1445 30.8883C16.0418 30.9133 15.9313 30.9196 15.8219 31.0024L15.9152 31.1801C17.1615 33.3343 18.4113 35.4866 19.6645 37.6368C20.3965 38.8918 21.1305 40.1461 21.8637 41.4008C22.2852 42.1215 22.7039 42.843 23.1289 43.5618C23.6003 44.3605 24.0759 45.1568 24.5559 45.9504C24.7 46.1876 24.8637 46.4141 25.0285 46.6376C25.1389 46.7877 25.2777 46.9148 25.4371 47.0114C25.6035 47.1118 25.7828 47.1434 25.9719 47.1008C26.0695 47.0786 26.1652 47.0465 26.2598 47.0137L26.6074 46.8848C27.8719 46.4524 29.1359 46.02 30.4008 45.5891C31.3875 45.2532 32.3754 44.9188 33.3629 44.5848C34.343 44.2524 35.3238 43.9215 36.3043 43.5907L39.2238 42.6047C40.2191 42.2684 41.2141 41.9321 42.209 41.595C43.4301 41.1805 44.6508 40.7645 45.8727 40.3508C47.0504 39.9524 48.2293 39.5563 49.4074 39.1586C49.4797 39.1344 49.5594 39.1243 49.6191 39.045L49.6266 38.8735C49.627 36.4301 49.6262 33.9864 49.6289 31.543C49.6314 31.4198 49.5915 31.2994 49.516 31.202C49.1457 30.7063 48.7828 30.2055 48.4176 29.7067ZM48.2148 6.68404C47.9406 6.33677 47.5914 6.22662 47.1633 6.33834C46.977 6.38716 46.7855 6.41802 46.5957 6.45279C45.973 6.56685 45.3496 6.67896 44.727 6.79185C43.8152 6.95748 42.9039 7.12466 41.9922 7.28873C41.2703 7.41841 40.548 7.54615 39.8258 7.67271L36.9281 8.17974C36.8066 8.20084 36.684 8.22193 36.5668 8.25943C36.3961 8.31412 36.3469 8.42115 36.425 8.5817C36.4887 8.71295 36.568 8.83834 36.6539 8.9563C37.2531 9.78209 37.8551 10.6059 38.457 11.4301C39.2867 12.5665 40.1168 13.7024 40.9469 14.8379C41.6492 15.7989 42.3523 16.7598 43.0551 17.7204C43.6074 18.4751 44.1598 19.2297 44.7129 19.984L44.8219 20.1161L49.6152 18.9313L49.6266 18.6829C49.627 15.3583 49.6262 12.0336 49.6289 8.70865C49.6289 8.56177 49.5934 8.44381 49.5008 8.3274C49.0977 7.81841 48.702 7.30357 48.3031 6.79107L48.2148 6.68404ZM49.5043 22.7938C48.7793 22.968 48.0516 23.1336 47.309 23.3301C47.3875 23.4696 49.4242 26.2188 49.5426 26.3493L49.6168 26.3903L49.625 26.2227L49.6254 25.0653C49.6258 24.3938 49.6273 23.7223 49.6258 23.0508C49.6258 22.9692 49.6488 22.8813 49.5926 22.7985L49.5043 22.7938Z" fill="#FD4F31"/>
</svg>
