<svg width="52" height="50" viewBox="0 0 52 50" fill="none" xmlns="http://www.w3.org/2000/svg">
<path d="M30.4531 0.117188C30.1016 0.117188 29.75 0.195312 29.4375 0.3125C30.1016 0.742188 30.4531 1.32812 30.6484 1.99219C30.6484 2.07031 30.6875 2.14844 30.6875 2.22656C30.6875 2.30469 30.7266 2.38281 30.7266 2.46094C30.7656 3.59375 30.4141 3.75 30.1797 4.41406C29.7891 5.27344 29.9062 6.21094 30.375 6.95312C30.4141 7.03125 30.4531 7.14844 30.5312 7.22656C30.0234 3.94531 32.7578 3.47656 33.2656 2.46094C33.3047 1.5625 32.5625 0.976562 31.9766 0.546875C31.3906 0.195312 30.9219 0.117188 30.4531 0.117188ZM34.5547 0.820312C34.5156 1.13281 34.5547 1.05469 34.5156 1.21094C34.5156 1.32812 34.5156 1.44531 34.4766 1.5625C34.4375 1.67969 34.4375 1.75781 34.3984 1.875C34.3594 1.99219 34.3203 2.07031 34.2812 2.1875C34.2422 2.26562 34.2031 2.34375 34.1641 2.46094C34.125 2.5 34.0859 2.57812 34.0469 2.61719C34.0078 2.65625 34.0078 2.69531 33.9688 2.73438C33.8906 2.8125 33.8516 2.92969 33.7734 3.00781L33.5391 3.24219C33.4609 3.32031 33.3828 3.39844 33.3047 3.4375C33.0312 3.63281 32.7188 3.78906 32.4453 3.98437C32.3672 4.0625 32.25 4.10156 32.1719 4.17969C32.0938 4.25781 32.0156 4.29688 31.9375 4.375L31.7031 4.60938C31.625 4.6875 31.5469 4.76562 31.5078 4.88281C31.4297 4.96094 31.3906 5.07812 31.3125 5.15625C31.2734 5.27344 31.2344 5.35156 31.1562 5.46875C31.1172 5.58594 31.0781 5.66406 31.0391 5.78125C31 5.89844 30.9609 6.01562 30.9609 6.09375C30.9609 6.13281 30.9609 6.21094 30.9219 6.25C30.9219 6.28906 30.9219 6.36719 30.8828 6.40625V6.95312C30.8828 7.07031 30.8828 7.14844 30.9219 7.26563C30.9219 7.38281 30.9609 7.46094 31 7.57812C31.0391 7.69531 31.0781 7.77344 31.1172 7.89063C31.1562 7.96875 31.1953 8.00781 31.1953 8.08594L28.2266 6.95312C27.7187 6.79688 27.25 6.67969 26.7422 6.5625C26.4688 6.48438 26.1953 6.44531 25.9219 6.36719C25.1406 6.21094 24.3594 6.09375 23.5781 6.01562H23.5C22.7187 5.9375 21.9766 5.89844 21.1953 5.89844C20.6094 5.89844 20.0625 5.9375 19.5156 5.97656C18.7344 6.01562 17.9531 6.13281 17.1719 6.25L16.5859 6.36719C16.1953 6.44531 15.8047 6.52344 15.4141 6.64063C15.2188 6.67969 15.0234 6.75781 14.8281 6.79688C14.6328 6.875 14.4375 6.95313 14.2812 7.03125C14.125 7.10938 14.0078 7.14844 13.8516 7.22656C13.8125 7.22656 13.8125 7.22656 13.7734 7.26563C13.6562 7.34375 13.5391 7.38281 13.4219 7.46094C13.3828 7.46094 13.3438 7.5 13.3438 7.5C13.1875 7.57813 13.0703 7.65625 12.9531 7.69531C12.875 7.73438 12.7578 7.77344 12.6797 7.8125C12.6406 7.85156 12.6016 7.85156 12.5625 7.89063C12.4453 7.96875 12.3281 8.00781 12.2109 8.08594C12.0938 8.16406 11.9766 8.20313 11.8984 8.28125C11.8203 8.35938 11.7031 8.39844 11.625 8.47656C11.625 8.47656 11.5859 8.47656 11.5859 8.51562C11.5078 8.55469 11.4297 8.63281 11.3516 8.71094L11.3125 8.75C11.2344 8.78906 11.1953 8.86719 11.1172 8.90625C11.0781 8.90625 11.0781 8.94531 11.0391 8.94531C10.9609 8.98438 10.9219 9.0625 10.8438 9.10156C10.8438 9.14062 10.8047 9.14062 10.8047 9.14062L10.5703 9.375L10.5312 9.41406L10.2969 9.64844C10.2969 9.64844 10.2969 9.6875 10.2578 9.6875L10.0625 9.88281C10.0234 9.92188 9.98438 9.92188 9.98438 9.96094L9.75 10.1953C9.75 10.2344 9.71094 10.2344 9.71094 10.2734L9.39844 10.5859L9.35938 10.625C9.16406 10.8594 8.92969 11.0547 8.69531 11.25C8.46094 11.4453 8.22656 11.6406 7.95312 11.8359C7.67969 12.0312 7.44531 12.1875 7.17188 12.3438C6.89844 12.5 6.625 12.6172 6.35156 12.7344C6.07812 12.8516 5.80469 12.9688 5.53125 13.0469C4.98438 13.1641 4.4375 13.3984 3.96875 13.4375C3.96875 13.2422 3.85156 13.2812 3.73438 13.2812C3.61719 13.3203 3.5 13.3203 3.42188 13.3594C3.30469 13.3984 3.22656 13.4375 3.10938 13.4766C2.99219 13.5156 2.91406 13.5547 2.79687 13.6328C2.71875 13.7109 2.60156 13.75 2.52344 13.8281C2.44531 13.9063 2.32812 13.9844 2.25 14.0625C2.17188 14.1406 2.05469 14.2188 1.97656 14.2969C1.89844 14.375 1.82031 14.4531 1.74219 14.5703C1.66406 14.6875 1.58594 14.7656 1.54688 14.8828C1.46875 14.9609 1.42969 15.0781 1.35156 15.1953C1.3125 15.3125 1.23438 15.4297 1.19531 15.5469L1.07813 15.8984C1.03906 16.0156 1.03906 16.0938 1 16.2109V16.25C0.960938 16.3672 0.960938 16.5234 0.960938 16.6016C1 16.5625 1 16.6406 1 16.7188V16.875C1 16.9531 1.03906 17.0312 1.03906 17.1094C1.07812 17.1875 1.07812 17.2656 1.11719 17.3438C1.15625 17.4219 1.19531 17.5 1.27344 17.5781C1.3125 17.6562 1.39063 17.7344 1.42969 17.8125C1.50781 17.8906 1.58594 17.9688 1.66406 18.0078C1.74219 18.0859 1.82031 18.1641 1.89844 18.2031C2.21094 18.4766 2.28906 18.5547 2.67969 18.7891C2.75781 18.8281 2.79688 18.8672 2.875 18.9062H2.91406V18.9844C2.91406 19.1016 2.95312 19.1797 2.99219 19.2969C3.03125 19.4141 3.07031 19.5312 3.10938 19.6094L3.22656 19.8438C3.22656 19.8828 3.26562 19.8828 3.26562 19.9219C3.30469 20.0391 3.38281 20.1172 3.42188 20.1953C3.5 20.2734 3.53906 20.3906 3.61719 20.4688L3.85156 20.7031L4.08594 20.9375H4.125C4.20313 21.0156 4.28125 21.0547 4.35938 21.1328C4.4375 21.2109 4.55469 21.25 4.63281 21.2891C4.71094 21.3281 4.82813 21.4062 4.94531 21.4453C5.02344 21.4844 5.10156 21.5234 5.21875 21.5234C5.21875 21.5234 5.25781 21.5234 5.25781 21.5625C5.29688 21.5625 5.375 21.6016 5.41406 21.6016C5.375 22.3047 5.375 22.9688 5.45312 23.2031C5.57031 23.4766 6.15625 22.6562 6.70313 21.7578C6.625 22.6562 6.58594 23.7109 6.70313 24.0234C6.85938 24.3359 7.60156 23.3203 8.30469 22.2266C17.4453 20.1172 25.8047 26.4453 26.7031 35.3906C26.5469 33.9844 24.8281 33.2031 24.0078 33.3984C23.6172 34.3359 22.9531 35.5859 21.8984 36.3281C21.9766 35.4688 21.9375 34.6094 21.7812 33.75C21.5078 34.9219 20.9609 36.0547 20.1797 36.9922C18.9687 37.0703 17.7188 36.4844 17.0938 35.5859C17.0547 35.5469 17.0156 35.4687 16.9766 35.4297C16.9375 35.3516 16.8984 35.2344 16.8594 35.1562C16.8203 35.0781 16.7812 34.9609 16.7812 34.8828V34.6094V34.4141C16.7812 34.3359 16.8203 34.2188 16.8594 34.1406C16.8984 34.0625 16.8984 33.9453 16.9375 33.8672C16.9766 33.7891 17.0156 33.6719 17.0938 33.5938C17.3281 32.9688 17.3281 32.4609 16.8984 32.1875L16.6641 32.0703C16.625 32.0703 16.5469 32.0312 16.5078 32.0312C16.4688 32.0312 16.4297 31.9922 16.3906 31.9922C16.3125 31.9531 16.1953 31.9531 16.1172 31.9141C16.0391 31.875 15.9219 31.875 15.8437 31.875C15.7656 31.875 15.6484 31.8359 15.5703 31.8359H15.375C15.2578 31.8359 15.1797 31.8359 15.1016 31.875C15.0234 31.875 14.9062 31.9141 14.8281 31.9141C14.75 31.9531 14.6328 31.9531 14.5547 31.9922C14.4766 32.0312 14.3984 32.0703 14.2812 32.1094L14.0469 32.2266C11.0391 34.1797 12.8359 38.7891 14.8672 40.1172C14.0859 40.2734 13.3047 40.4297 13.0703 40.5859L13.0312 40.625C13.5781 40.9766 14.1641 41.25 14.7891 41.4844C15.6094 41.7578 16.5078 41.9922 16.8984 42.1094C17.9531 42.3438 19.0469 42.4219 20.1406 42.3438C25.8438 41.9531 30.5312 37.5781 31.3906 31.875C31.4297 31.9922 31.4297 32.1094 31.4688 32.2266C31.5078 32.4609 31.5469 32.6953 31.5859 32.9688C31.625 33.0859 31.625 33.2031 31.625 33.3203V33.3594C31.625 33.4766 31.6641 33.5938 31.6641 33.7109C31.6641 33.8672 31.7031 33.9844 31.7031 34.1406V35.7812C31.7031 35.8984 31.6641 35.9766 31.6641 36.0938V36.2109C31.6641 36.3281 31.625 36.4453 31.625 36.6016C31.5859 36.7187 31.5859 36.8359 31.5469 36.9531V36.9922C31.5078 37.1094 31.5078 37.2266 31.4688 37.3438V37.3828C31.4297 37.5 31.4297 37.6172 31.3906 37.7344V37.7734L31.2734 38.125V38.1641C31.2344 38.2812 31.1953 38.4375 31.1562 38.5547C31.1172 38.6719 31.0781 38.7891 31 38.9453C30.9609 39.0625 30.9219 39.2187 30.8438 39.3359C30.8047 39.4531 30.7266 39.5703 30.6875 39.7266C30.6484 39.8437 30.5703 39.9609 30.5312 40.0781C30.5312 40.1172 30.4922 40.1562 30.4922 40.1562C30.4922 40.1562 30.4922 40.1953 30.4531 40.1953C29.6328 41.875 28.3828 43.3594 26.8203 44.5312C26.7031 44.6094 26.625 44.6875 26.5078 44.7656C26.4688 44.8047 26.4297 44.8047 26.4297 44.8438C26.3516 44.9219 26.2344 44.9609 26.1562 45.0391L26.1953 45.1172C26.3906 45.0781 26.5469 45.0781 26.7422 45.0391C27.0938 45 27.4062 44.9219 27.7578 44.8438C27.8359 44.8438 27.9531 44.8047 28.0312 44.7656C28.1094 44.7656 28.1484 44.7266 28.2266 44.7266C28.3047 44.7266 28.4219 44.6875 28.5 44.6875C28.5781 44.6484 28.6562 44.6484 28.7344 44.6094C30.0234 44.2969 31.2734 43.8672 32.4844 43.3594C30.4141 46.1719 27.6797 48.4375 24.4766 49.9219C25.9609 49.8047 27.4453 49.5703 28.8906 49.1406C34.0859 47.6172 38.4609 44.1016 41.0781 39.375C40.5312 42.3438 39.3594 45.1953 37.6016 47.6953C38.8516 46.875 39.9844 45.8984 41.0391 44.8438C43.9297 41.8359 45.8438 37.9687 46.4688 33.8672C46.8984 35.8984 47.0547 38.0078 46.8594 40.0781C56.1953 27.0703 47.6406 13.5938 44.0469 10.0391C44.0469 10 44.0078 10 44.0078 9.96094C44.0078 10.1172 44.0078 10.2734 43.9688 10.4297C43.9297 10.7422 43.8906 11.0156 43.8516 11.2891C43.7734 11.5625 43.6953 11.875 43.6172 12.1484C43.5391 12.4219 43.4219 12.6953 43.3047 12.9688C43.1875 13.2422 43.0703 13.5156 42.9141 13.75C42.7578 13.9844 42.6016 14.2578 42.4453 14.4922C42.2891 14.7266 42.0938 14.9609 41.8984 15.1953C41.7031 15.4297 41.5078 15.625 41.2734 15.8594C41.1562 15.9766 41.0391 16.0938 40.8828 16.1719C40.7656 16.25 40.6875 16.3281 40.5703 16.4453C40.3359 16.6406 40.1016 16.7969 39.8281 16.9531C39.5938 17.1094 39.3203 17.2656 39.0469 17.3828L38.2266 17.7344C37.9531 17.8516 37.6797 17.9297 37.4062 18.0078C37.1328 18.0859 36.8203 18.1641 36.5469 18.2031C36.2344 18.2422 35.9609 18.2812 35.6875 18.3203C35.4922 18.3203 35.2578 18.3594 35.0625 18.3594C34.75 18.3594 34.4766 18.3203 34.2031 18.3203C33.8906 18.2812 33.6172 18.2422 33.3438 18.2031C33.0312 18.1641 32.7578 18.0859 32.4844 17.9688C32.7578 17.9297 33.0703 17.9297 33.3438 17.8516C33.6562 17.8125 33.9297 17.7344 34.2031 17.6562C34.4766 17.5781 34.7891 17.5 35.0234 17.3828L35.8438 17.0312C36.1172 16.9141 36.3516 16.7578 36.625 16.6016C36.8594 16.4453 37.1328 16.25 37.3672 16.0938C37.6016 15.8984 37.8359 15.7031 38.0312 15.5078C38.2656 15.3125 38.4609 15.0781 38.6562 14.8828C38.8516 14.6484 39.0469 14.4141 39.2031 14.1797C39.2422 14.1406 39.2422 14.1016 39.2812 14.0625C39.3984 13.8672 39.5547 13.6328 39.6719 13.4375C39.8281 13.1641 39.9453 12.9297 40.0625 12.6563C40.1797 12.3828 40.2969 12.1094 40.375 11.8359L40.6094 11.0156C40.6484 10.7031 40.7266 10.4297 40.7266 10.1562C40.7656 9.84375 40.7656 9.57031 40.7656 9.29688C40.7656 9.10156 40.7656 8.86719 40.7266 8.67188C40.6875 8.35938 40.6484 8.08594 40.6094 7.8125C40.5703 7.5 40.4922 7.22656 40.4141 6.95312C40.3359 6.67969 40.2188 6.40625 40.1406 6.13281C40.0234 5.85938 39.9062 5.58594 39.7891 5.35156C39.6328 5.07812 39.5156 4.84375 39.3594 4.57031C39.2031 4.33594 39.0078 4.10156 38.8516 3.86719C38.6562 3.63281 38.4609 3.4375 38.2656 3.20312C38.1484 3.08594 38.0312 2.96875 37.9141 2.89062C37.3281 2.42188 36.7422 2.03125 36.1172 1.64062C36.0391 1.60156 35.9609 1.5625 35.8438 1.52344C35.3359 1.09375 34.9453 0.976562 34.5547 0.820312Z" fill="#DF234F"/>
</svg>
