<svg width="50" height="50" viewBox="0 0 50 50" fill="none" xmlns="http://www.w3.org/2000/svg">
<g id="Logos/nodejs-original">
<path id="Vector" d="M44.0512 11.8492L26.8258 1.84724C25.7395 1.22849 24.325 1.22849 23.2301 1.84724L5.8207 11.8492C4.69961 12.4941 3.90625 13.7062 3.90625 15.0027V34.9801C3.90625 36.2765 4.72031 37.489 5.84141 38.1375L10.441 40.75C12.6395 41.8328 13.4164 41.8328 14.4168 41.8328C17.6719 41.8328 19.5312 39.8644 19.5312 36.4312V16.7086C19.5312 16.4301 19.3863 16.0156 19.1129 16.0156H16.9164C16.6383 16.0156 16.0156 16.4301 16.0156 16.7082V36.4308C16.0156 37.9527 14.6391 39.4672 12.0664 38.1808L7.31367 35.4414C7.14805 35.3515 7.03125 35.1707 7.03125 34.9801V15.0027C7.03125 14.8144 7.24805 14.6254 7.41484 14.5289L24.768 4.54412C24.9301 4.45232 25.1684 4.45232 25.3301 4.54412L42.4715 14.5265C42.6355 14.6254 42.5777 14.8086 42.5777 15.0027V34.9801C42.5777 35.1707 42.6492 35.3562 42.4871 35.448L25.266 45.4386C25.1184 45.5273 24.9352 45.5273 24.7734 45.4386L20.3566 42.8023C20.2234 42.725 20.0652 42.6972 19.9375 42.7687C18.7086 43.4652 18.482 43.5578 17.3293 43.9574C17.0457 44.0562 16.6273 44.2277 17.4895 44.7109L23.2699 48.1304C23.8218 48.4492 24.4478 48.6171 25.0852 48.6172C25.7266 48.6172 26.3547 48.4508 26.9082 48.1304L44.0508 38.1375C45.1719 37.4844 45.7031 36.2765 45.7031 34.9801V15.0027C45.7031 13.7062 45.1719 12.4972 44.0512 11.8492ZM30.4336 31.8144C25.8531 31.8144 24.8441 30.5508 24.5078 28.273C24.4688 28.0277 24.2605 27.7344 24.0109 27.7344H21.7723C21.4953 27.7344 21.2727 28.0703 21.2727 28.3461C21.2727 31.2625 22.8582 34.7961 30.434 34.7961C35.918 34.7961 39.0621 32.6652 39.0621 28.8941C39.0621 25.1551 36.5359 24.1738 31.2176 23.4699C25.8418 22.7594 25.2957 22.4004 25.2957 21.141C25.2957 20.1027 25.7582 18.7179 29.7387 18.7179C33.2953 18.7179 34.6063 19.4812 35.1457 21.8785C35.1918 22.1039 35.3977 22.2656 35.6301 22.2656H37.8777C38.016 22.2656 38.148 22.2097 38.2449 22.1109C38.3387 22.0047 38.3883 21.8715 38.3758 21.7285C38.0277 17.6004 35.2852 15.6765 29.7383 15.6765C24.8043 15.6765 21.8609 17.7601 21.8609 21.2527C21.8609 25.041 24.7895 26.0879 29.5258 26.5562C35.1918 27.1117 35.6324 27.9398 35.6324 29.0543C35.6324 30.9898 34.0785 31.8144 30.4336 31.8144Z" fill="#83CD29"/>
</g>
</svg>
