<svg width="50" height="50" viewBox="0 0 50 50" fill="none" xmlns="http://www.w3.org/2000/svg">
<g id="Logos/php-plain">
<path id="Vector" d="M25.0001 12.9059C11.8204 12.9059 1.13525 18.3207 1.13525 25C1.13525 31.6793 11.8204 37.0942 25.0001 37.0942C38.1798 37.0942 48.8649 31.6793 48.8649 25C48.8649 18.3207 38.1798 12.9059 25.0001 12.9059ZM18.7903 27.3563C18.2208 27.8891 17.5884 28.109 16.8919 28.3356C16.1954 28.5625 15.3091 28.5156 14.2313 28.5156H11.7888L11.1118 32.4219H8.25986L10.8048 19.1406H16.2892C17.9392 19.1406 19.1427 19.6153 19.8993 20.4813C20.656 21.3473 20.8833 22.5766 20.5817 24.1285C20.4571 24.768 20.2474 25.3625 19.9513 25.8922C19.6444 26.4387 19.2526 26.933 18.7903 27.3563ZM27.1149 28.5156L28.2403 22.8828C28.3685 22.2235 28.3216 21.7336 28.0993 21.4942C27.8767 21.2543 27.4032 21.0938 26.6794 21.0938H24.4177L22.9603 28.5156H20.1306L22.6755 15.625H25.5052L24.8286 19.1406H27.3493C28.9356 19.1406 30.0294 19.459 30.6313 20.0121C31.2333 20.5653 31.4138 21.3231 31.1731 22.5621L29.9892 28.5156H27.1149ZM42.8411 24.1492C42.7169 24.7887 42.5067 25.3731 42.211 25.9024C41.9149 26.4324 41.5282 26.9172 41.0505 27.3563C40.481 27.8891 39.8481 28.109 39.1521 28.3356C38.456 28.5625 37.5688 28.5156 36.4911 28.5156H34.0485L33.372 32.4219H30.52L33.0646 19.1406H38.5493C40.1993 19.1406 41.4028 19.6153 42.1591 20.4813C42.9149 21.3473 43.1427 22.5977 42.8411 24.1492ZM37.4685 21.0938H35.5149L34.4497 26.5625H36.1849C37.3341 26.5625 38.1911 26.4492 38.7536 26.0156C39.3169 25.5828 39.6962 24.911 39.8935 23.8981C40.0825 22.925 39.9966 22.166 39.6356 21.766C39.2743 21.366 38.5521 21.0938 37.4685 21.0938ZM15.2087 21.0938H13.2548L12.1896 26.5625H13.9243C15.0739 26.5625 15.9306 26.4492 16.4935 26.0156C17.0563 25.5828 17.436 24.911 17.6329 23.8981C17.822 22.925 17.736 22.166 17.3751 21.766C17.0142 21.366 16.2923 21.0938 15.2087 21.0938Z" fill="#6181B6"/>
</g>
</svg>
