<svg width="50" height="50" viewBox="0 0 50 50" fill="none" xmlns="http://www.w3.org/2000/svg">
<g id="Logos/python-original">
<path id="Vector" d="M24.7622 4.78437C23.113 4.79218 21.5388 4.93242 20.1528 5.17773C16.0708 5.89882 15.3302 7.4082 15.3302 10.1922V13.8684H24.9759V15.0937H11.7098C8.90672 15.0937 6.45203 16.7785 5.68406 19.9848C4.79813 23.6586 4.75906 25.9516 5.68406 29.7879C6.36961 32.6437 8.00711 34.6781 10.8106 34.6781H14.1274V30.2711C14.1274 27.0871 16.8817 24.2789 20.1532 24.2789H29.788C32.47 24.2789 34.6106 22.0703 34.6106 19.3773V10.1926C34.6106 7.57812 32.4052 5.61445 29.788 5.17812C28.1302 4.90234 26.411 4.77695 24.7622 4.78437ZM19.5458 7.74101C20.5419 7.74101 21.3559 8.56796 21.3559 9.58515C21.3559 10.598 20.5423 11.4172 19.5458 11.4172C18.5458 11.4172 17.736 10.598 17.736 9.58515C17.7356 8.56796 18.5458 7.74101 19.5458 7.74101Z" fill="url(#paint0_linear_278_5941)"/>
<path id="Vector_2" d="M35.8133 15.0938V19.3774C35.8133 22.6977 32.9977 25.4926 29.7875 25.4926H20.1527C17.5137 25.4926 15.3301 27.7516 15.3301 30.3946V39.5801C15.3301 42.1938 17.6027 43.7317 20.1527 44.4813C23.2059 45.3785 26.134 45.541 29.7875 44.4813C32.2156 43.7778 34.6102 42.3629 34.6102 39.5801V35.9035H24.9758V34.6778H39.4336C42.2367 34.6778 43.282 32.7227 44.257 29.7875C45.2641 26.766 45.2207 23.8602 44.257 19.9844C43.5641 17.1934 42.241 15.0934 39.4336 15.0934H35.8133V15.0938ZM30.3941 38.3543C31.3945 38.3543 32.2043 39.1735 32.2043 40.1871C32.2043 41.2035 31.3941 42.0305 30.3941 42.0305C29.398 42.0305 28.5844 41.2035 28.5844 40.1871C28.5844 39.1735 29.398 38.3543 30.3941 38.3543Z" fill="url(#paint1_linear_278_5941)"/>
<path id="Vector_3" opacity="0.444" d="M38.0114 46.7176C38.0114 48.1016 32.2239 49.2238 25.0853 49.2238C17.9462 49.2238 12.1587 48.1016 12.1587 46.7176C12.1587 45.3332 17.9458 44.2109 25.0853 44.2109C32.2239 44.2109 38.0114 45.3328 38.0114 46.7176Z" fill="url(#paint2_radial_278_5941)"/>
</g>
<defs>
<linearGradient id="paint0_linear_278_5941" x1="4.03792" y1="5.93383" x2="26.2855" y2="24.9064" gradientUnits="userSpaceOnUse">
<stop stop-color="#5A9FD4"/>
<stop offset="1" stop-color="#306998"/>
</linearGradient>
<linearGradient id="paint1_linear_278_5941" x1="34.6558" y1="36.7002" x2="26.6775" y2="25.5118" gradientUnits="userSpaceOnUse">
<stop stop-color="#FFD43B"/>
<stop offset="1" stop-color="#FFE873"/>
</linearGradient>
<radialGradient id="paint2_radial_278_5941" cx="0" cy="0" r="1" gradientUnits="userSpaceOnUse" gradientTransform="translate(25.033 46.6458) rotate(-90) scale(2.50716 11.021)">
<stop stop-color="#B8B8B8" stop-opacity="0.498"/>
<stop offset="1" stop-color="#7F7F7F" stop-opacity="0"/>
</radialGradient>
</defs>
</svg>
