<svg width="51" height="50" viewBox="0 0 51 50" fill="none" xmlns="http://www.w3.org/2000/svg">
<path d="M48.6563 28.2422H46.5859V27.1875H50.6875V24.8828H46.7812C45.7656 24.8828 44.3984 25.7031 44.3984 27.2656V28.0469C44.3984 29.6094 45.7266 30.3906 46.7812 30.3906H48.7344V31.4844L44.5156 31.5234V33.8281H48.6563C49.5156 33.8281 50.9609 33.2031 51 31.4844V30.5859C51 29.1016 49.7891 28.2422 48.6563 28.2422ZM24.5938 27.8906C24.5938 25.0391 21.8984 24.7656 21.8984 24.7656H17.0938V33.7891H19.5156V31.6406L21.625 33.8281H25.2188L22.3672 30.9375C22.3672 30.9375 24.5938 30.7422 24.5938 27.8906ZM21.4297 29.1016H19.4766V27.0312H21.4297C21.4297 27.0312 21.9766 27.2266 21.9766 28.0469C21.9766 28.9063 21.4297 29.1016 21.4297 29.1016ZM30.5703 24.8437H28.1094C26.3516 24.8437 25.7656 26.4453 25.7656 27.1875V33.7891H28.2266V32.2266H30.5312V33.7891H32.9141V27.1875C32.9141 25.2734 31.1953 24.8437 30.5703 24.8437ZM30.5312 29.6484H28.1875V27.4609C28.1875 27.4609 28.1875 26.9531 28.9687 26.9531H29.8281C30.4922 26.9531 30.5312 27.4609 30.5312 27.4609V29.6484ZM34.0469 24.8437H36.625V33.7891H34.0469V24.8437ZM40.2188 24.8437H37.6797V33.7891H43.6562V31.4844H40.2188V24.8437Z" fill="#CC0000"/>
<path d="M29.2031 23.7109C29.4375 23.5156 29.6328 23.3594 29.6328 23.3594C29.6328 23.3594 23.0703 16.7969 15.7266 17.5391C12.0547 17.8516 7.52344 21.2109 4.86719 25.625C2.21094 30.0391 1.85938 33.7891 1.85938 33.7891H11.8594C11.8594 33.7891 9.94531 25.0781 16.2734 21.5625C17.6406 20.8984 22.0547 18.3984 29.2031 23.7109ZM22.6797 17.3828C22.5625 17.3047 22.25 17.1484 21.4688 16.9531L21.4297 17.7734C21.8594 17.9297 22.25 18.0859 22.6406 18.2422L22.6797 17.3828Z" fill="#CC0000"/>
<path d="M22.6797 21.8359L22.7187 21.0547C22.2891 20.9766 21.8594 20.9375 21.4688 20.8984L21.4297 21.6797C21.8594 21.6797 22.25 21.7578 22.6797 21.8359ZM16.7812 16.9922H16.8984L16.6641 16.2109C16.2734 16.2109 15.8828 16.25 15.4531 16.2891L15.6875 17.0312C16.0391 16.9922 16.3906 16.9922 16.7812 16.9922ZM17.6406 22.5C17.9922 22.3047 18.3828 22.1875 18.7344 22.0703L18.4609 21.25C18.0703 21.3281 17.6797 21.4844 17.3672 21.6406L17.6406 22.5ZM11.625 18.3203L11.0391 17.4609C10.7656 17.5781 10.4141 17.7734 10.1016 17.9688L10.6875 18.8672C11 18.6719 11.3125 18.4766 11.625 18.3203ZM14.2422 23.9844L14.8672 24.8828C15.1016 24.5703 15.3359 24.2578 15.6094 23.9844L15.0234 23.125C14.7109 23.3984 14.4766 23.7109 14.2422 23.9844ZM12.7969 26.6797C12.6016 27.1484 12.4844 27.6172 12.4062 28.0469L13.4219 28.8672C13.4609 28.3594 13.5781 27.8906 13.6953 27.3828L12.7969 26.6797ZM6.85938 22.0703L5.96094 21.2891C5.64844 21.6016 5.29688 21.9141 5.02344 22.2266L6 23.0469C6.27344 22.6953 6.54688 22.3828 6.85938 22.0703ZM3.03125 27.6953L1.58594 27.1484C1.35156 27.6953 1.07813 28.3203 0.960938 28.6719L2.40625 29.2188C2.5625 28.7891 2.83594 28.1641 3.03125 27.6953ZM12.2109 31.25C12.25 31.9141 12.2891 32.4609 12.3672 32.8516L13.8906 33.3984C13.7734 32.8906 13.6562 32.3438 13.5781 31.7578L12.2109 31.25Z" fill="#CC0000"/>
</svg>
