<svg width="50" height="44" viewBox="0 0 50 44" fill="none" xmlns="http://www.w3.org/2000/svg">
<g id="Group">
<path id="Vector" d="M25 26.4531C27.4594 26.4531 29.4531 24.4594 29.4531 22C29.4531 19.5406 27.4594 17.5469 25 17.5469C22.5406 17.5469 20.5469 19.5406 20.5469 22C20.5469 24.4594 22.5406 26.4531 25 26.4531Z" fill="#61DAFB"/>
<path id="Vector_2" d="M41.9141 14.6562C41.0547 14.3437 40.1562 14.0313 39.2188 13.7578C39.4531 12.8203 39.6484 11.8828 39.8047 10.9844C40.625 5.82812 39.7266 2.19531 37.2266 0.789062C36.4844 0.359375 35.6641 0.164062 34.7266 0.164062C31.9922 0.164062 28.5156 2.19531 25 5.59375C21.4844 2.19531 18.0078 0.164062 15.2734 0.164062C14.3359 0.164062 13.5156 0.359375 12.7734 0.789062C10.2734 2.23437 9.375 5.86719 10.1953 10.9844C10.3516 11.8828 10.5469 12.8203 10.7812 13.7578C9.84375 14.0313 8.94531 14.3047 8.08594 14.6562C3.20313 16.5312 0.546875 19.1094 0.546875 22C0.546875 24.8906 3.24219 27.4688 8.08594 29.3438C8.94531 29.6563 9.84375 29.9688 10.7812 30.2422C10.5469 31.1797 10.3516 32.1172 10.1953 33.0156C9.375 38.1719 10.2734 41.8047 12.7734 43.2109C13.5156 43.6406 14.3359 43.8359 15.2734 43.8359C18.0469 43.8359 21.5234 41.8047 25 38.4062C28.5156 41.8047 31.9922 43.8359 34.7266 43.8359C35.6641 43.8359 36.4844 43.6406 37.2266 43.2109C39.7266 41.7656 40.625 38.1328 39.8047 33.0156C39.6484 32.1172 39.4531 31.1797 39.2188 30.2422C40.1562 29.9688 41.0547 29.6953 41.9141 29.3438C46.7969 27.4688 49.4531 24.8906 49.4531 22C49.4531 19.1094 46.7969 16.5312 41.9141 14.6562ZM36.1328 2.74219C37.7344 3.67969 38.2812 6.57031 37.6172 10.6719C37.5 11.4922 37.3047 12.3516 37.0703 13.25C35.0391 12.7812 32.8906 12.4687 30.625 12.2734C29.2969 10.3984 27.9297 8.71875 26.5625 7.19531C29.4531 4.34375 32.3828 2.39062 34.7656 2.39062C35.2734 2.39062 35.7422 2.50781 36.1328 2.74219ZM31.7578 25.9062C31.0547 27.1562 30.2344 28.4062 29.375 29.6562C27.9297 29.7734 26.4844 29.8125 25 29.8125C23.4766 29.8125 22.0312 29.7734 20.625 29.6562C19.7656 28.4062 18.9844 27.1562 18.2812 25.9062C17.5391 24.6172 16.8359 23.2891 16.2109 22C16.8359 20.7109 17.5391 19.3828 18.2812 18.0938C18.9844 16.8438 19.8047 15.5938 20.6641 14.3438C22.1094 14.2266 23.5547 14.1875 25.0391 14.1875C26.5625 14.1875 28.0078 14.2266 29.4141 14.3438C30.2734 15.5938 31.0547 16.8438 31.7578 18.0938C32.5 19.3828 33.2031 20.7109 33.8281 22C33.1641 23.2891 32.5 24.5781 31.7578 25.9062ZM35 24.6172C35.5859 25.9844 36.0547 27.3125 36.4844 28.6406C35.1562 28.9531 33.75 29.1875 32.2656 29.3828C32.7344 28.6406 33.2422 27.8594 33.6719 27.0391C34.1406 26.2188 34.5703 25.3984 35 24.6172ZM25 35.2031C24.0625 34.1875 23.1641 33.0938 22.3047 31.9609C23.2031 32 24.1016 32.0391 25 32.0391C25.8984 32.0391 26.7969 32 27.6953 31.9609C26.8359 33.0938 25.9375 34.1875 25 35.2031ZM17.7344 29.3438C16.25 29.1484 14.8437 28.9141 13.5156 28.6016C13.9453 27.3125 14.4141 25.9453 15 24.5781C15.4297 25.3594 15.8594 26.1797 16.3281 26.9609C16.7969 27.8203 17.2656 28.5625 17.7344 29.3438ZM15 19.3828C14.4141 18.0156 13.9453 16.6875 13.5156 15.3594C14.8437 15.0469 16.25 14.8125 17.7344 14.6172C17.2656 15.3594 16.7578 16.1406 16.3281 16.9609C15.8594 17.7812 15.4297 18.6016 15 19.3828ZM25 8.79688C25.9375 9.8125 26.8359 10.9062 27.6953 12.0391C26.7969 12 25.8984 11.9609 25 11.9609C24.1016 11.9609 23.2031 12 22.3047 12.0391C23.1641 10.9062 24.0625 9.8125 25 8.79688ZM33.6719 17L32.2656 14.6562C33.75 14.8516 35.1562 15.0859 36.4844 15.3984C36.0547 16.6875 35.5859 18.0547 35 19.4219C34.5703 18.6016 34.1406 17.7812 33.6719 17ZM12.3828 10.6719C11.7188 6.57031 12.2656 3.67969 13.8672 2.74219C14.2578 2.50781 14.7266 2.39062 15.2344 2.39062C17.5781 2.39062 20.5078 4.30469 23.4375 7.19531C22.0703 8.67969 20.7031 10.3984 19.375 12.2734C17.1094 12.4687 14.9609 12.8203 12.9297 13.25C12.6953 12.3516 12.5391 11.4922 12.3828 10.6719ZM2.73438 22C2.73438 20.1641 4.96094 18.2109 8.86719 16.7656C9.64844 16.4531 10.5078 16.1797 11.3672 15.9453C11.9922 17.8984 12.7734 19.9688 13.7109 22.0391C12.7734 24.1094 11.9531 26.1406 11.3672 28.0938C5.97656 26.5312 2.73438 24.1875 2.73438 22ZM13.8672 41.2578C12.2656 40.3203 11.7188 37.4297 12.3828 33.3281C12.5 32.5078 12.6953 31.6484 12.9297 30.75C14.9609 31.2188 17.1094 31.5313 19.375 31.7266C20.7031 33.6016 22.0703 35.2812 23.4375 36.8047C20.5469 39.6562 17.6172 41.6094 15.2344 41.6094C14.7266 41.6094 14.2578 41.4922 13.8672 41.2578ZM37.6172 33.3281C38.2812 37.4297 37.7344 40.3203 36.1328 41.2578C35.7422 41.4922 35.2734 41.6094 34.7656 41.6094C32.4219 41.6094 29.4922 39.6953 26.5625 36.8047C27.9297 35.3203 29.2969 33.6016 30.625 31.7266C32.8906 31.5313 35.0391 31.1797 37.0703 30.75C37.3047 31.6484 37.4609 32.5078 37.6172 33.3281ZM41.1328 27.2344C40.3516 27.5469 39.4922 27.8203 38.6328 28.0547C38.0078 26.1016 37.2266 24.0313 36.2891 21.9609C37.2266 19.8906 38.0469 17.8594 38.6328 15.9063C44.0234 17.4688 47.2656 19.8125 47.2656 22C47.2656 23.8359 45 25.7891 41.1328 27.2344Z" fill="#61DAFB"/>
</g>
</svg>
