<svg width="50" height="50" viewBox="0 0 50 50" fill="none" xmlns="http://www.w3.org/2000/svg">
<g id="Logos">
<path id="Vector" d="M37.9211 32.5054L11.0703 48.4496L45.8371 46.0902L48.5148 11.0336L37.9211 32.5054Z" fill="url(#paint0_linear_278_5906)"/>
<path id="Vector_2" d="M45.8939 46.0664L42.9061 25.4418L34.7666 36.1894L45.8939 46.0664Z" fill="url(#paint1_linear_278_5906)"/>
<path id="Vector_3" d="M45.9342 46.0664L24.042 44.348L11.1865 48.4047L45.9342 46.0664Z" fill="url(#paint2_linear_278_5906)"/>
<path id="Vector_4" d="M11.2174 48.4094L16.6865 30.4926L4.65137 33.066L11.2174 48.4094Z" fill="url(#paint3_linear_278_5906)"/>
<path id="Vector_5" d="M34.7639 36.2488L29.7318 16.5378L15.3311 30.0371L34.7639 36.2488Z" fill="url(#paint4_linear_278_5906)"/>
<path id="Vector_6" d="M47.3732 16.8152L33.7604 5.69727L29.9697 17.9523L47.3732 16.8152Z" fill="url(#paint5_linear_278_5906)"/>
<path id="Vector_7" d="M41.0071 1.7332L33.0005 6.15781L27.9497 1.67383L41.0071 1.7332Z" fill="url(#paint6_linear_278_5906)"/>
<path id="Vector_8" d="M1.48535 39.0758L4.83926 32.959L2.12598 25.6719L1.48535 39.0758Z" fill="url(#paint7_linear_278_5906)"/>
<path id="Vector_9" d="M1.9458 25.4418L4.6751 33.1844L16.5364 30.5235L30.0782 17.9383L33.8997 5.79963L27.8829 1.55042L17.6524 5.37932C14.429 8.37737 8.17471 14.309 7.94932 14.4207C7.72549 14.5344 3.81846 21.9188 1.9458 25.4418Z" fill="white"/>
<path id="Vector_10" d="M11.5309 11.5316C18.5161 4.60583 27.5219 0.513255 30.9782 4.00036C34.4325 7.48708 30.7696 15.9613 23.7837 22.8851C16.7977 29.809 7.90359 34.1269 4.45046 30.6398C0.993821 27.1554 4.54499 18.4558 11.5309 11.5316Z" fill="url(#paint8_linear_278_5906)"/>
<path id="Vector_11" d="M11.2178 48.4019L16.6436 30.4285L34.665 36.2175C28.1494 42.3277 20.9021 47.4929 11.2178 48.4019Z" fill="url(#paint9_linear_278_5906)"/>
<path id="Vector_12" d="M30.1025 17.9028L34.7291 36.2274C40.1721 30.5047 45.0568 24.352 47.449 16.7418L30.1025 17.9028Z" fill="url(#paint10_linear_278_5906)"/>
<path id="Vector_13" d="M47.4018 16.8347C49.2533 11.2468 49.6803 3.2312 40.9498 1.74292L33.7861 5.69995L47.4018 16.8347Z" fill="url(#paint11_linear_278_5906)"/>
<path id="Vector_14" d="M1.48535 38.9953C1.7416 48.2172 8.39512 48.3543 11.2295 48.4355L4.68301 33.1465L1.48535 38.9953Z" fill="#9E1209"/>
<path id="Vector_15" d="M30.1279 17.9313C34.3107 20.502 42.7396 25.6649 42.9104 25.7598C43.176 25.9094 46.5447 20.0793 47.3092 16.7848L30.1279 17.9313Z" fill="url(#paint12_radial_278_5906)"/>
<path id="Vector_16" d="M16.6362 30.4285L23.8901 44.4238C28.1792 42.0976 31.5382 39.2632 34.6144 36.2273L16.6362 30.4285Z" fill="url(#paint13_radial_278_5906)"/>
<path id="Vector_17" d="M4.65371 33.1657L3.62598 45.4043C5.56504 48.0532 8.23301 48.2836 11.0322 48.077C9.00723 43.0379 4.9627 32.9614 4.65371 33.1657Z" fill="url(#paint14_linear_278_5906)"/>
<path id="Vector_18" d="M33.7437 5.73042L48.1542 7.75269C47.3851 4.4937 45.0233 2.39058 40.9979 1.73315L33.7437 5.73042Z" fill="url(#paint15_linear_278_5906)"/>
</g>
<defs>
<linearGradient id="paint0_linear_278_5906" x1="42.8047" y1="52.7148" x2="32.8836" y2="35.1984" gradientUnits="userSpaceOnUse">
<stop stop-color="#FB7655"/>
<stop offset="0.41" stop-color="#E42B1E"/>
<stop offset="0.99" stop-color="#990000"/>
<stop offset="1" stop-color="#990000"/>
</linearGradient>
<linearGradient id="paint1_linear_278_5906" x1="47.7467" y1="38" x2="34.9604" y2="29.4199" gradientUnits="userSpaceOnUse">
<stop stop-color="#871101"/>
<stop offset="0.99" stop-color="#911209"/>
<stop offset="1" stop-color="#911209"/>
</linearGradient>
<linearGradient id="paint2_linear_278_5906" x1="37.5162" y1="53.2461" x2="24.7303" y2="44.666" gradientUnits="userSpaceOnUse">
<stop stop-color="#871101"/>
<stop offset="0.99" stop-color="#911209"/>
<stop offset="1" stop-color="#911209"/>
</linearGradient>
<linearGradient id="paint3_linear_278_5906" x1="10.6705" y1="31.7883" x2="12.6525" y2="44.6703" gradientUnits="userSpaceOnUse">
<stop stop-color="white"/>
<stop offset="0.23" stop-color="#E57252"/>
<stop offset="0.46" stop-color="#DE3B20"/>
<stop offset="0.99" stop-color="#A60003"/>
<stop offset="1" stop-color="#A60003"/>
</linearGradient>
<linearGradient id="paint4_linear_278_5906" x1="24.3041" y1="19.7605" x2="25.0346" y2="32.9074" gradientUnits="userSpaceOnUse">
<stop stop-color="white"/>
<stop offset="0.23" stop-color="#E4714E"/>
<stop offset="0.56" stop-color="#BE1A0D"/>
<stop offset="0.99" stop-color="#A80D00"/>
<stop offset="1" stop-color="#A80D00"/>
</linearGradient>
<linearGradient id="paint5_linear_278_5906" x1="36.4029" y1="7.6082" x2="38.5896" y2="17.0309" gradientUnits="userSpaceOnUse">
<stop stop-color="white"/>
<stop offset="0.18" stop-color="#E46342"/>
<stop offset="0.4" stop-color="#C82410"/>
<stop offset="0.99" stop-color="#A80D00"/>
<stop offset="1" stop-color="#A80D00"/>
</linearGradient>
<linearGradient id="paint6_linear_278_5906" x1="29.7267" y1="4.28984" x2="39.1481" y2="-0.420702" gradientUnits="userSpaceOnUse">
<stop stop-color="white"/>
<stop offset="0.54" stop-color="#C81F11"/>
<stop offset="0.99" stop-color="#BF0905"/>
<stop offset="1" stop-color="#BF0905"/>
</linearGradient>
<linearGradient id="paint7_linear_278_5906" x1="2.41191" y1="28.5047" x2="3.1877" y2="36.2684" gradientUnits="userSpaceOnUse">
<stop stop-color="white"/>
<stop offset="0.31" stop-color="#DE4024"/>
<stop offset="0.99" stop-color="#BF190B"/>
<stop offset="1" stop-color="#BF190B"/>
</linearGradient>
<linearGradient id="paint8_linear_278_5906" x1="-2.91946" y1="38.3668" x2="33.5333" y2="0.883175" gradientUnits="userSpaceOnUse">
<stop stop-color="#BD0012"/>
<stop offset="0.07" stop-color="white"/>
<stop offset="0.17" stop-color="white"/>
<stop offset="0.27" stop-color="#C82F1C"/>
<stop offset="0.33" stop-color="#820C01"/>
<stop offset="0.46" stop-color="#A31601"/>
<stop offset="0.72" stop-color="#B31301"/>
<stop offset="0.99" stop-color="#E82609"/>
<stop offset="1" stop-color="#E82609"/>
</linearGradient>
<linearGradient id="paint9_linear_278_5906" x1="25.0029" y1="42.1476" x2="14.0229" y2="39.4378" gradientUnits="userSpaceOnUse">
<stop stop-color="#8C0C01"/>
<stop offset="0.54" stop-color="#990C00"/>
<stop offset="0.99" stop-color="#A80D0E"/>
<stop offset="1" stop-color="#A80D0E"/>
</linearGradient>
<linearGradient id="paint10_linear_278_5906" x1="43.8615" y1="28.9699" x2="34.1072" y2="20.2278" gradientUnits="userSpaceOnUse">
<stop stop-color="#7E110B"/>
<stop offset="0.99" stop-color="#9E0C00"/>
<stop offset="1" stop-color="#9E0C00"/>
</linearGradient>
<linearGradient id="paint11_linear_278_5906" x1="47.4451" y1="12.9292" x2="42.5865" y2="7.73472" gradientUnits="userSpaceOnUse">
<stop stop-color="#79130D"/>
<stop offset="0.99" stop-color="#9E120B"/>
<stop offset="1" stop-color="#9E120B"/>
</linearGradient>
<radialGradient id="paint12_radial_278_5906" cx="0" cy="0" r="1" gradientUnits="userSpaceOnUse" gradientTransform="translate(35.626 20.3949) scale(11.9535 11.9535)">
<stop stop-color="#A80D00"/>
<stop offset="0.99" stop-color="#7E0E08"/>
<stop offset="1" stop-color="#7E0E08"/>
</radialGradient>
<radialGradient id="paint13_radial_278_5906" cx="0" cy="0" r="1" gradientUnits="userSpaceOnUse" gradientTransform="translate(19.0722 36.1464) scale(15.8902)">
<stop stop-color="#A30C00"/>
<stop offset="0.99" stop-color="#800E08"/>
<stop offset="1" stop-color="#800E08"/>
</radialGradient>
<linearGradient id="paint14_linear_278_5906" x1="7.81582" y1="48.3926" x2="3.85644" y2="34.9586" gradientUnits="userSpaceOnUse">
<stop stop-color="#8B2114"/>
<stop offset="0.43" stop-color="#9E100A"/>
<stop offset="0.99" stop-color="#B3100C"/>
<stop offset="1" stop-color="#B3100C"/>
</linearGradient>
<linearGradient id="paint15_linear_278_5906" x1="38.1921" y1="3.87651" x2="47.0687" y2="7.79487" gradientUnits="userSpaceOnUse">
<stop stop-color="#B31000"/>
<stop offset="0.44" stop-color="#910F08"/>
<stop offset="0.99" stop-color="#791C12"/>
<stop offset="1" stop-color="#791C12"/>
</linearGradient>
</defs>
</svg>
