<svg width="50" height="50" viewBox="0 0 50 50" fill="none" xmlns="http://www.w3.org/2000/svg">
<g id="Logos/rust-plain">
<path id="Vector" fill-rule="evenodd" clip-rule="evenodd" d="M24.3244 4.25003C24.2506 4.29299 23.9408 4.73753 23.6357 5.23792C22.8701 6.49456 22.8615 6.49534 21.833 5.41292C21.1638 4.70901 21.0021 4.5801 20.7865 4.58167C20.6463 4.58245 20.4693 4.6301 20.3927 4.68752C20.3166 4.74495 20.1006 5.20198 19.9131 5.70315C19.4838 6.8512 19.4631 6.88831 19.2252 6.93401C19.0787 6.96174 18.7966 6.80471 18.1205 6.31917C17.6213 5.96018 17.1314 5.66682 17.0322 5.66682C16.6205 5.66682 16.5045 5.89182 16.3084 7.07034C16.0591 8.56878 16.0677 8.5637 14.717 7.95002C14.1716 7.70276 13.6545 7.50003 13.5674 7.50003C13.4802 7.50003 13.315 7.59378 13.2006 7.70823C12.9927 7.91643 12.9923 7.91721 13.049 9.06292L13.106 10.2098L12.8892 10.3258C12.697 10.4285 12.5646 10.416 11.7138 10.2149C10.6033 9.95276 10.3689 9.95979 10.1439 10.2625L9.97946 10.4836L10.2002 11.4293C10.3213 11.9492 10.4381 12.45 10.4599 12.5418C10.4814 12.6332 10.4443 12.7797 10.3771 12.8668C10.2662 13.0102 10.1482 13.0231 9.12047 13.0074C7.38102 12.9801 7.28219 13.1293 8.00094 14.6981C8.22946 15.1961 8.41657 15.6485 8.41657 15.7028C8.41657 15.9895 8.18805 16.0938 7.20641 16.2539C6.65719 16.3434 6.17985 16.4168 6.14547 16.4168C6.1111 16.4168 6.00797 16.4918 5.91657 16.5832C5.61774 16.8821 5.70251 17.1625 6.38024 18.1192C7.22438 19.3106 7.22282 19.3149 5.82829 19.8485C4.24235 20.4551 4.21032 20.6047 5.41774 21.75C6.54235 22.8164 6.54352 22.8008 5.27047 23.6012C4.30602 24.2071 4.29118 24.2215 4.26657 24.55C4.23688 24.9496 4.24391 24.9567 5.39547 25.6602C6.53415 26.3555 6.53415 26.3766 5.41657 27.434C4.21461 28.5707 4.25172 28.7367 5.83883 29.3356C7.22555 29.8586 7.22751 29.8649 6.3818 31.0563C5.90251 31.7317 5.74977 32.0129 5.74977 32.2215C5.74977 32.6117 5.9529 32.7114 7.16657 32.9153C8.18883 33.0875 8.41657 33.1887 8.41657 33.4707C8.41657 33.5285 8.22907 33.9848 7.99977 34.484C7.28649 36.0375 7.36774 36.1668 9.05602 36.1668C10.6283 36.1668 10.5865 36.1188 10.2478 37.5367C9.99235 38.6055 9.98844 38.8102 10.2197 39.041C10.3966 39.2184 10.7302 39.1985 11.7736 38.9489C12.5705 38.7586 12.7103 38.7453 12.8951 38.8442L13.106 38.9571L13.049 40.1035C12.9923 41.2496 12.9927 41.2504 13.2006 41.4586C13.315 41.5731 13.4826 41.6668 13.5724 41.6668C13.6623 41.6668 14.1795 41.4653 14.722 41.2188C16.0685 40.6074 16.0599 40.6024 16.3084 42.0961C16.5052 43.2801 16.6201 43.5 17.0404 43.5C17.1447 43.5 17.624 43.2188 18.106 42.875C18.9525 42.2711 19.172 42.1766 19.3974 42.3199C19.4556 42.3567 19.6814 42.8528 19.899 43.4223C20.2189 44.2598 20.3361 44.4778 20.5142 44.5629C20.8533 44.7254 21.0631 44.5949 21.8599 43.727C22.822 42.6789 22.8615 42.684 23.647 43.9571C24.5146 45.3625 24.7392 45.3594 25.6287 43.9285C26.3951 42.6957 26.3861 42.6965 27.422 43.7785C28.1099 44.4965 28.2564 44.611 28.4884 44.611C28.6365 44.611 28.8134 44.5555 28.881 44.4875C28.949 44.4196 29.174 43.9176 29.381 43.3723C29.5881 42.8266 29.8025 42.3516 29.858 42.3164C30.0771 42.177 30.3041 42.275 31.1494 42.875C31.647 43.2285 32.1154 43.5 32.2267 43.5C32.64 43.5 32.7892 43.2067 32.9611 42.0535C33.108 41.0703 33.1377 40.9762 33.331 40.8782C33.5213 40.7817 33.6353 40.8141 34.5275 41.2192C35.0701 41.4653 35.5873 41.6668 35.6771 41.6668C35.767 41.6668 35.9373 41.5703 36.0549 41.4524L36.2693 41.2383L36.2103 40.1387C36.1541 39.0887 36.1591 39.0324 36.3267 38.8809C36.499 38.725 36.5166 38.7258 37.4798 38.9457C38.6463 39.2121 38.8638 39.2192 39.083 39C39.297 38.786 39.2947 38.7391 39.0017 37.5035C38.6732 36.1176 38.6291 36.1668 40.208 36.1668C41.2841 36.1668 41.4041 36.1516 41.5412 36.0004C41.7701 35.7473 41.7158 35.4574 41.2552 34.4758C41.0228 33.9813 40.8341 33.5313 40.8357 33.4758C40.8435 33.184 41.0728 33.0844 42.1326 32.9121C42.781 32.8071 43.2662 32.6852 43.3541 32.6059C43.6486 32.3399 43.5404 31.9938 42.8681 31.0512C42.0256 29.8699 42.0291 29.8586 43.3783 29.3614C44.9939 28.766 45.04 28.5676 43.831 27.4188C42.7111 26.3547 42.7107 26.3606 43.9373 25.6074C45.4201 24.6973 45.4224 24.4922 43.9634 23.5867C42.7088 22.8082 42.7095 22.8192 43.8341 21.7512C45.0404 20.6051 45.0076 20.4551 43.4213 19.8485C42.0213 19.3129 42.017 19.2996 42.8677 18.1321C43.3744 17.4367 43.4998 17.2059 43.4998 16.9676C43.4998 16.5512 43.3131 16.4578 42.0849 16.2594C41.0588 16.0938 40.833 15.993 40.833 15.7012C40.833 15.6457 41.0205 15.1992 41.2498 14.7082C41.6986 13.7469 41.7615 13.3621 41.5076 13.1321C41.3713 13.0086 41.1884 12.991 40.2103 13.0071C39.1869 13.0242 39.056 13.0098 38.9142 12.8672C38.7591 12.7114 38.7607 12.6895 39.0029 11.6789C39.2998 10.4407 39.3009 10.4106 39.0568 10.1813C38.8091 9.94846 38.6545 9.95237 37.5173 10.2199C36.6888 10.4153 36.5517 10.4282 36.3634 10.3274L36.1498 10.2129L36.2088 9.06995L36.2681 7.92737L36.0545 7.7137C35.9369 7.59612 35.7701 7.50003 35.6834 7.50003C35.597 7.50003 35.0826 7.70432 34.5404 7.95354C33.6349 8.37034 33.5377 8.39807 33.342 8.29573C33.1466 8.19338 33.1142 8.0926 32.9474 7.07424C32.7549 5.89612 32.6357 5.66682 32.2173 5.66682C32.1181 5.66682 31.6263 5.96174 31.1244 6.32229C30.3002 6.91448 30.1896 6.97034 29.9841 6.89885C29.8142 6.83948 29.7154 6.71018 29.5947 6.3887C29.5052 6.15198 29.3341 5.69573 29.2138 5.37503C28.9709 4.72815 28.8353 4.58323 28.4713 4.58323C28.2681 4.58323 28.0841 4.72932 27.4248 5.41409C26.3884 6.49065 26.3845 6.49026 25.6224 5.24026C25.3177 4.74065 24.9994 4.29456 24.9146 4.24924C24.724 4.1469 24.4998 4.14729 24.3244 4.25003ZM25.2689 8.0137C26.1716 8.65627 25.6916 10.1668 24.5845 10.1668C23.5103 10.1668 22.9693 8.87268 23.7365 8.13792C24.1693 7.72307 24.79 7.67268 25.2689 8.0137ZM24.1338 12.0035C24.7256 12.2285 24.9685 12.0934 26.3197 10.791L27.3349 9.81213L27.7646 9.86917C29.1123 10.0481 31.7927 11.2254 33.333 12.3149C34.7482 13.3164 36.6291 15.3563 37.4306 16.759L37.6021 17.0594L36.8427 18.7703C36.4248 19.7114 36.083 20.5801 36.083 20.7016C36.083 20.9817 36.2666 21.4246 36.4435 21.5711C36.5181 21.6332 37.2271 21.9746 38.0189 22.3297L39.458 22.9758L39.5146 23.3418C39.5877 23.8188 39.5974 24.9903 39.531 25.3231L39.4791 25.5832H38.6576C37.7048 25.5832 37.7783 25.4981 37.7267 26.6668C37.6892 27.5141 37.4845 27.9824 37.0189 28.2856C36.2603 28.7805 35.0076 28.6906 34.4763 28.1035C34.3947 28.0133 34.2361 27.5598 34.1236 27.0953C33.7951 25.7387 33.3537 24.977 32.467 24.236C32.1869 24.002 31.958 23.7836 31.958 23.7504C31.958 23.7176 32.2658 23.4582 32.6424 23.175C34.0134 22.1414 34.8017 20.9383 34.8884 19.7465C35.0537 17.4735 33.2427 15.3547 30.549 14.668C29.9103 14.5051 29.6377 14.5 21.7365 14.5C17.2521 14.5 13.583 14.4707 13.583 14.4352C13.583 14.3512 14.5795 13.384 15.1666 12.8989C16.7787 11.566 18.8728 10.5172 21.0416 9.95706L21.7916 9.76292L22.8572 10.8434C23.4435 11.4375 24.0181 11.9594 24.1338 12.0035ZM10.7154 18.9555C11.2064 19.277 11.4076 20.0848 11.1177 20.5703C10.6693 21.3219 9.53336 21.3535 9.08454 20.627C8.4318 19.5715 9.68883 18.2828 10.7154 18.9555ZM39.6412 18.9965C40.9256 19.7797 39.9302 21.7063 38.5552 21.0981C37.6373 20.6918 37.608 19.4371 38.5056 18.9793C38.8802 18.7883 39.3107 18.7949 39.6412 18.9965ZM14.4998 23.7918V28.5832H10.2638L10.0959 27.8543C9.7654 26.4188 9.62633 24.9336 9.70954 23.7172L9.76774 22.8625L11.224 22.2094C12.1377 21.8 12.7252 21.4879 12.8009 21.3719C13.1322 20.8668 13.1006 20.5059 12.6357 19.4793L12.4185 19H14.4998V23.7918ZM26.6951 19.2086C27.6021 19.4446 28.0814 19.9246 28.0826 20.5977C28.0834 21.0918 27.8384 21.402 27.231 21.6762C26.8009 21.8707 26.7326 21.8754 24.0205 21.902L21.2498 21.9285V19.0832H23.7322C25.6713 19.0832 26.3201 19.1106 26.6951 19.2086ZM25.7591 26.0844C26.2088 26.2094 26.7404 26.6 27.0131 27.0059C27.2994 27.4324 27.467 27.9871 27.8638 29.8246C28.199 31.3778 28.4146 31.8856 29.0185 32.5465C29.7666 33.3649 29.5931 33.3332 33.3298 33.3332C35.1193 33.3332 36.583 33.3617 36.583 33.3969C36.583 33.4598 35.3506 34.9168 35.2974 34.9168C35.2822 34.9168 34.6384 34.7821 33.867 34.6172C31.6884 34.152 31.6099 34.2067 31.1099 36.5414L30.7884 38.0414L30.4982 38.1844C30.0138 38.4235 28.4396 38.9156 27.6236 39.0836C26.2752 39.361 24.8076 39.4547 23.5177 39.3457C21.3189 39.1594 18.4072 38.3063 18.2935 37.8145C18.2693 37.7102 18.1228 37.0352 17.9685 36.3141C17.8138 35.593 17.6259 34.909 17.5509 34.7942C17.1904 34.2442 16.8111 34.2102 15.1431 34.5793C14.5115 34.7192 13.9603 34.8332 13.9181 34.8332C13.8388 34.8332 12.6666 33.4778 12.6666 33.3864C12.6666 33.3578 15.4509 33.3246 18.8541 33.3129L25.0416 33.2918L25.0638 31.0938C25.0795 29.5418 25.058 28.8617 24.9908 28.7813C24.9158 28.6906 24.5166 28.6668 23.0728 28.6668H21.2498V26L23.3541 26.0004C24.5111 26.0008 25.5935 26.0387 25.7591 26.0844ZM16.2248 36.0801C17.2088 36.6797 16.7369 38.2508 15.5732 38.2496C14.3798 38.2489 13.9377 36.6922 14.9545 36.0719C15.2908 35.8668 15.8818 35.8707 16.2248 36.0801ZM34.2427 36.1457C34.7252 36.4992 34.8857 37.2348 34.5869 37.7246C33.8021 39.0117 31.8396 37.9887 32.4951 36.6344C32.8174 35.9692 33.674 35.7293 34.2427 36.1457Z" fill="#272727"/>
</g>
</svg>
