<svg width="50" height="50" viewBox="0 0 50 50" fill="none" xmlns="http://www.w3.org/2000/svg">
<path d="M9.76562 43.1395V37.0602H11.9594C13.1754 37.0602 15.1047 36.9809 16.268 36.875L18.3297 36.7165L15.5805 35.9766C14.0477 35.5801 12.118 34.9985 11.2988 34.6813L9.76562 34.1266V21.7293H12.2238C13.5453 21.7293 15.475 21.65 16.4793 21.5446L18.3297 21.386L15.0785 20.5137C13.2813 20.0649 11.3781 19.4567 10.7965 19.2188L9.76562 18.743V6.74302L10.5852 6.55825C11.0344 6.47895 12.1445 6.39966 13.0434 6.39966C17.4836 6.39966 28.0301 4.94575 33.2105 3.62427C36.8316 2.6727 39.3426 1.72114 40.2148 0.928173C40.6641 0.531688 40.6906 0.769579 40.6906 6.61098V12.7165L40.0562 13.1926L39.4219 13.6946L40.6906 14.8047V28.0469L40.0562 28.5227L39.4219 29.025L40.6906 30.1352V43.3774L40.0031 43.9059C39.2633 44.4875 36.4086 45.4657 33.1578 46.2848C28.0828 47.5536 15.6863 49.2188 11.457 49.2188H9.76562V43.1395Z" fill="#390D09"/>
<path d="M9.76562 43.1922V37.1394L14.3914 36.9543C19.202 36.7695 22.7703 36.373 28.0035 35.4742C33.9508 34.4433 39.8184 32.5933 40.4266 31.5359C40.5852 31.2715 40.6906 33.307 40.6906 37.2453V43.3773L40.0031 43.9058C39.2633 44.4875 36.4086 45.4656 33.1578 46.2847C28.0828 47.5535 15.6863 49.2187 11.457 49.2187H9.76562V43.1922ZM9.76562 27.8621V21.8086L14.3914 21.65C19.5191 21.4386 23.5102 20.9894 28.7965 20.0113C34.7172 18.9011 40.109 17.1039 40.5059 16.1257C40.5852 15.941 40.6645 18.5047 40.6645 21.8351C40.6906 27.1214 40.6379 27.9672 40.2414 28.3898C39.3164 29.4211 32.1797 31.2711 24.8316 32.4078C20.3648 33.0953 12.9641 33.8882 10.902 33.8882H9.76562V27.8621ZM9.76562 12.6375V6.71676L10.5852 6.55817C11.0344 6.47887 12.1445 6.39957 13.0434 6.39957C17.4836 6.39957 28.0301 4.94567 33.2105 3.62418C36.8316 2.67262 39.3426 1.72106 40.2148 0.92809C40.6641 0.531605 40.6906 0.769496 40.6906 6.58434C40.6906 12.2672 40.6645 12.6898 40.1887 13.1132C39.475 13.7738 34.5852 15.2804 30.7785 16.0468C24.6203 17.2629 14.3914 18.5582 10.9023 18.5582H9.76562V12.6375Z" fill="#DE3423"/>
</svg>
