<svg width="51" height="52" viewBox="0 0 51 52" fill="none" xmlns="http://www.w3.org/2000/svg">
<g id="Logos/spring-original">
<path id="Vector" d="M45.4891 3.59495C44.7888 5.2749 43.8923 6.86616 42.8184 8.33557C38.1129 3.6328 31.7327 0.990676 25.0801 0.989868C11.3219 0.989868 2.3245e-08 12.3211 2.3245e-08 26.0946C-0.000146278 29.4957 0.690314 32.8616 2.02953 35.988C3.36875 39.1144 5.32885 41.9364 7.79102 44.2828L8.71602 45.1031C13.2367 48.9146 18.9585 51.0067 24.8715 51.0102C37.9523 51.0102 48.9484 40.7602 49.8797 27.6965C50.5637 21.3016 48.6879 13.2133 45.4891 3.59495ZM11.3543 44.4258C11.1529 44.6739 10.8987 44.874 10.6103 45.0114C10.3218 45.1489 10.0063 45.2203 9.68672 45.2203C8.50781 45.2203 7.54336 44.25 7.54336 43.0711C7.54336 41.8926 8.51406 40.9223 9.68672 40.9223C10.175 40.9223 10.6574 41.0914 11.0352 41.4043C11.9535 42.1465 12.0969 43.5074 11.3543 44.4258ZM45.3852 36.911C39.1965 45.1617 25.9789 42.3809 17.5039 42.7782C17.5039 42.7782 15.9992 42.8696 14.4879 43.1168C14.4879 43.1168 15.0543 42.8758 15.7906 42.5957C21.7383 40.525 24.5523 40.1211 28.1676 38.2653C34.975 34.8008 41.7043 27.2207 43.1051 19.3344C40.5125 26.9211 32.6559 33.4399 25.4969 36.0903C20.5918 37.9008 11.732 39.659 11.732 39.659L11.3738 39.4699C5.3418 36.5332 5.15898 23.4633 16.1227 19.2434C20.9238 17.3938 25.5164 18.4098 30.702 17.1723C36.2391 15.8571 42.6426 11.702 45.248 6.28401C48.1664 14.952 51.6777 28.5231 45.3848 36.911H45.3852Z" fill="#77BC1F"/>
</g>
</svg>
