<svg width="50" height="50" viewBox="0 0 50 50" fill="none" xmlns="http://www.w3.org/2000/svg">
<path d="M49.3477 13.3047C49.3473 12.2774 49.244 11.2527 49.0391 10.2461C48.8341 9.21559 48.4856 8.21891 48.0039 7.28516C47.5005 6.38073 46.8748 5.54999 46.1445 4.81641C45.3913 4.07945 44.5165 3.47816 43.5586 3.03906C42.6133 2.56238 41.6021 2.2293 40.5586 2.05078C39.5234 1.85156 38.3867 1.85156 37.3516 1.75391H11.8164C11.0199 1.76688 10.2251 1.83343 9.4375 1.95313C8.65591 2.04514 7.89083 2.24495 7.16406 2.54688C6.95703 2.64453 6.64844 2.74609 6.44141 2.84375C5.75381 3.21233 5.10021 3.64109 4.48828 4.125C4.28125 4.32422 4.07422 4.42188 3.86719 4.61719C3.10588 5.32331 2.47628 6.15926 2.00781 7.08594C1.49622 8.00657 1.14611 9.00803 0.972656 10.0469C0.818719 11.0606 0.715725 12.0814 0.664062 13.1055V36.6953C0.664384 37.7226 0.767766 38.7473 0.972656 39.7539C1.17765 40.7844 1.52609 41.7811 2.00781 42.7148C2.51124 43.6193 3.13692 44.45 3.86719 45.1836C4.62037 45.9206 5.49522 46.5218 6.45313 46.9609C7.39846 47.4376 8.40957 47.7707 9.45312 47.9492C10.4883 48.1484 11.625 48.1484 12.6602 48.2461H37.3555C38.4313 48.2453 39.5048 48.1459 40.5625 47.9492C41.6061 47.7707 42.6172 47.4376 43.5625 46.9609C44.4999 46.4866 45.3697 45.8888 46.1484 45.1836C46.9097 44.4775 47.5393 43.6415 48.0078 42.7148C48.5194 41.7942 48.8695 40.7928 49.043 39.7539C49.1969 38.7402 49.2999 37.7194 49.3516 36.6953V13.3047H49.3477Z" fill="#F05138"/>
<path d="M33.2031 37.6953C28.8633 40.0898 22.8984 40.3359 16.8945 37.8789C12.2134 35.9795 8.21089 32.7174 5.40625 28.5156C6.70966 29.5134 8.13364 30.3428 9.64453 30.9844C15.8438 33.7578 22.0391 33.5664 26.4023 30.9844C20.1914 26.4297 14.918 20.5078 10.9883 15.6719C10.2128 14.8546 9.52059 13.9622 8.92188 13.0078C13.6719 17.1523 21.2266 22.3828 23.9141 23.8633C20.0769 19.9316 16.5506 15.708 13.3672 11.2305C18.659 16.373 24.482 20.939 30.7383 24.8516C31.0156 25 31.2305 25.125 31.4023 25.2422C31.5857 24.7945 31.7435 24.3367 31.875 23.8711C33.3242 18.8359 31.668 13.1133 28.0508 8.375C36.4258 13.207 41.4063 22.2852 39.3203 29.8867C39.2656 30.0937 39.207 30.2773 39.1445 30.4922L39.2188 30.5781C43.3555 35.5117 42.2188 40.7344 41.6992 39.7578C39.4531 35.5469 35.3008 36.8477 33.2031 37.6953Z" fill="#FEFEFE"/>
</svg>
