<svg width="50" height="50" viewBox="0 0 50 50" fill="none" xmlns="http://www.w3.org/2000/svg">
<path d="M25 0.898438C11.6797 0.898438 0.898438 11.6797 0.898438 25C0.898438 38.3203 11.6797 49.1016 25 49.1016C38.3203 49.1016 49.1016 38.3203 49.1016 25C49.1016 11.6797 38.3203 0.898438 25 0.898438ZM38.0078 14.8438C36.875 14.8828 36.1328 14.2188 36.0938 13.2031C36.0938 12.8125 36.1719 12.5 36.4453 12.1094C36.6797 11.6406 36.7578 11.5625 36.7578 11.3672C36.7188 10.7422 35.7812 10.7031 35.5078 10.7031C31.875 10.8203 30.9375 15.7031 30.1562 19.6875L29.7656 21.7969C31.8359 22.1094 33.3203 21.7188 34.1406 21.2109C35.3125 20.4688 33.8281 19.6875 33.9844 18.8281C34.1797 17.9688 34.9609 17.5391 35.5859 17.5C36.4844 17.4609 37.1094 18.3984 37.0703 19.3359C37.0312 20.8594 35 23.0078 30.8984 22.8906C30.3906 22.8906 29.9609 22.8516 29.5312 22.8125L28.75 27.0703C28.0469 30.2734 27.1484 34.6875 23.8672 38.5156C21.0547 41.875 18.2031 42.3828 16.9141 42.4219C14.5312 42.5 12.9297 41.2109 12.8906 39.5312C12.8516 37.8906 14.2969 36.9922 15.2344 36.9531C16.5234 36.9141 17.3828 37.8516 17.4219 38.9062C17.4609 39.8047 16.9922 40.0781 16.6797 40.2734C16.4844 40.4297 16.1719 40.625 16.1719 40.9766C16.1719 41.1328 16.3672 41.4844 16.875 41.4844C17.8906 41.4453 18.5547 40.9375 19.0234 40.625C21.3672 38.6719 22.2656 35.2734 23.4375 29.1406L23.6719 27.6562C24.0625 25.6641 24.5312 23.3984 25.1953 21.1719C23.5547 19.9219 22.5781 18.3984 20.3516 17.8125C18.8281 17.3828 17.9297 17.7344 17.2656 18.5547C16.4844 19.5312 16.7578 20.7812 17.5 21.5234L18.7109 22.8906C20.2344 24.6484 21.0547 25.9766 20.7422 27.8125C20.3125 30.6641 16.8359 32.8906 12.7344 31.6406C9.21875 30.5469 8.59375 28.0859 9.02344 26.7188C9.375 25.5078 10.3516 25.2734 11.2891 25.5859C12.3047 25.8984 12.6953 27.1094 12.3828 28.0469C12.3438 28.1641 12.3047 28.3203 12.1875 28.5156C12.0703 28.7891 11.875 28.9844 11.7578 29.2969C11.5234 30.0391 12.5391 30.5469 13.2422 30.7812C14.8047 31.25 16.3281 30.4297 16.7188 29.1797C17.0703 28.0078 16.3281 27.1875 16.0547 26.875L14.5703 25.2734C13.9062 24.5312 12.3828 22.4219 13.125 20.0391C13.3984 19.1406 13.9844 18.1641 14.8438 17.5391C16.6406 16.1719 18.6328 15.9766 20.5078 16.5234C22.9297 17.2266 24.1016 18.8281 25.625 20.0781C26.4844 17.6172 27.6562 15.1562 29.4141 13.125C31.0156 11.25 33.125 9.92188 35.5859 9.80469C38.0469 9.72656 39.8828 10.8203 39.9609 12.5781C39.9219 13.3594 39.4922 14.8047 38.0078 14.8438Z" fill="#1A171B"/>
</svg>
