<svg width="50" height="50" viewBox="0 0 50 50" fill="none" xmlns="http://www.w3.org/2000/svg">
<path d="M8.65166 30.5883C9.25169 31.3256 9.88476 32.0355 10.5489 32.7156C8.52314 33.325 7.19502 34.457 6.36689 35.4566C5.05596 37.0387 4.36221 39.1277 4.52197 40.9207H1.03369C1.73291 39.4023 4.52588 35.0164 8.65205 30.5887L8.65166 30.5883ZM49.0614 41.8719H44.8204C35.0899 36.7941 26.547 33.2137 17.472 32.4316C17.4911 31.1688 17.7157 29.7391 18.1481 28.1457L17.3122 27.9207C16.8685 29.5582 16.6356 31.0398 16.6091 32.366C15.6634 32.3027 14.7118 32.2723 13.7509 32.2723C12.938 32.2723 12.1962 32.3469 11.5196 32.4777C10.6376 31.5973 9.88603 30.7559 9.24814 29.9582C13.4333 25.5992 20.3274 21.6555 26.3274 20.1719C28.0169 25.7875 31.6435 29.6352 36.0446 32.2238C36.3674 32.04 36.6846 31.8466 36.9958 31.6438L44.6739 39.9094L45.0099 39.8809C47.1067 39.7004 48.2985 40.8379 48.6138 41.1918C48.8462 41.4492 48.9849 41.6855 49.0614 41.8719Z" fill="#D1A41A"/>
<path d="M45.3155 14.2234C45.4713 21.8515 41.5795 27.9226 36.1307 31.0359C26.8827 26.4296 25.1413 14.7562 26.7174 8.49487C27.1557 10.8894 27.9534 12.3906 29.6752 13.1265C33.4307 12.0523 38.5987 11.9675 42.4057 13.0171C43.9916 11.864 44.6065 10.1015 44.9428 8.56206C45.3616 10.3531 45.3139 14.2238 45.3155 14.2238V14.2234Z" fill="#FFDC76"/>
<path d="M19.178 22.7524L22.053 21.4457L23.4636 25.6262L19.178 22.7524ZM16.2515 24.268L17.9249 23.275L19.4394 25.8875L16.2515 24.268ZM13.0112 26.4102L14.4745 25.3125L15.2062 27.9266L13.0112 26.4102ZM38.8812 33.3098L37.8354 32.3164L36.4769 34.4074L38.8812 33.3098ZM40.8163 35.6086L39.9784 34.7203L37.7839 36.3922L40.8163 35.6086ZM37.3147 11.986L34.6491 12.0383L36.2694 15.5922L37.3147 11.986ZM26.7038 18.7278L26.4425 17.2121L29.0046 18.5711L26.7038 18.7278ZM27.3304 20.975L27.069 19.9824L28.6374 20.6094L27.3304 20.975ZM44.9964 19.3555L45.3636 18.2055L43.2726 19.0938L44.9964 19.3555ZM44.2124 21.7071L44.5257 20.7664L42.9054 21.2367L44.2124 21.7071Z" fill="#272727"/>
<path d="M25.6006 24.6886H30.6447V25.3113H25.6006V24.6886ZM25.6006 23.1941H30.6447V23.8168H25.6006V23.1941ZM41.0029 24.6886H46.0467V25.3113H41.0029V24.6886ZM41.0029 23.1941H46.0467V23.8168H41.0029V23.1941ZM39.2252 19.5023H31.0053V18.9414H33.5631C33.8783 17.5926 33.9404 16.3035 33.5607 15.65C33.3982 15.3726 33.174 15.2426 32.8545 15.2426C31.392 15.2426 30.7881 16.789 30.7627 16.8547L30.7631 16.8543L30.2385 16.6574C30.2686 16.5765 31.0002 14.682 32.8545 14.682C33.3721 14.682 33.7834 14.9195 34.0443 15.3683C34.5076 16.164 34.4533 17.541 34.1393 18.9414H38.6275C39.224 17.1894 40.4689 16.3633 42.5494 16.3633V16.9238C40.2947 16.9238 39.6627 17.8797 39.2119 18.9414H41.6611L41.6553 19.4992L39.2248 19.5019L39.2252 19.5023ZM39.5939 22.2699L39.5979 22.2695L39.5939 22.2699ZM39.5939 22.2699L39.5979 22.2695L39.5939 22.2699Z" fill="#272727"/>
<path d="M39.5939 22.2699L39.5979 22.2696C38.933 21.2891 38.7221 20.4524 39.0002 19.4996L38.4291 19.5024C38.2303 20.1367 38.31 21.0922 38.8002 21.9125H33.0971C33.4439 21.2172 33.7654 20.3699 34.0006 19.5024H33.4201C33.1607 20.4223 32.7971 21.3328 32.3873 22.0539L32.2549 22.2871L35.4553 24.3016L33.6537 25.4891L33.9623 25.9571L35.976 24.6293L38.1502 26.0481L38.4486 25.5739L36.433 24.327C36.433 24.327 39.4471 22.3692 39.5967 22.2735C39.5955 22.2723 39.5951 22.2711 39.5943 22.2696L39.5939 22.2699ZM35.9693 23.9629L33.6022 22.4727L38.2283 22.4739L35.9693 23.9629Z" fill="#272727"/>
<path d="M46.2559 13.5477C46.2523 12.5731 45.9488 8.45471 45.391 7.32073C43.8785 7.89534 41.1266 9.75784 40.5035 11.6617C37.5184 11.2164 34.1531 11.2688 31.2051 11.7789C30.7129 9.7301 28.241 8.16252 26.3762 7.27893C25.5895 8.60627 25.241 11.684 25.3293 13.8672L25.3191 13.8742C25.6652 23.0414 30.1625 28.7492 36.043 32.2086C42.0938 28.7516 46.416 22.0117 46.2484 13.5434L46.2563 13.5473L46.2559 13.5477ZM41.2215 11.7801L41.2875 11.7922L41.2211 11.7805L41.2215 11.7801ZM40.8449 11.7153C40.898 11.7239 40.9516 11.7332 41.0047 11.7426L40.8449 11.7153ZM45.3148 14.209C45.4703 21.8371 41.5785 27.9082 36.1301 31.0215C26.8824 26.4141 25.1402 14.7418 26.7172 8.48049C27.1559 10.8739 27.9516 12.3754 29.6758 13.1117C33.4297 12.0375 38.5977 11.9528 42.4047 13.0024C43.991 11.8489 44.6063 10.0871 44.9422 8.54768C45.3621 10.3391 45.3133 14.2086 45.3148 14.2094V14.209Z" fill="#272727"/>
<path d="M49.2596 40.5996C48.31 39.5371 46.4494 39.0344 44.8955 39.0715C43.7928 37.759 37.3994 31.0262 37.3994 31.0262L36.9564 31.5844L44.6752 39.8941L45.01 39.8652C47.1072 39.6855 48.299 40.823 48.615 41.1758C48.8463 41.4347 48.9861 41.6707 49.0619 41.8562H44.8197C35.0889 36.7781 26.5463 33.198 17.4709 32.4176C17.4904 31.1547 17.7154 29.725 18.1467 28.1324L17.3123 27.9058C16.8689 29.5433 16.635 31.0262 16.6088 32.3519C15.6635 32.2894 14.7115 32.2566 13.7514 32.2566C12.9369 32.2566 12.1955 32.3324 11.5193 32.4637C10.6369 31.582 9.88574 30.7418 9.24707 29.9441C13.4619 25.5531 20.4229 21.584 26.4533 20.1246L26.2576 19.2797C19.7635 20.8461 12.6549 25.109 8.69395 29.2277C6.85566 26.7465 6.12637 24.7105 5.90957 23.1676C5.63613 21.2187 6.10098 19.4312 7.25488 17.9976C9.06074 15.7543 11.6268 15.5961 14.265 16.0398C14.2139 16.4566 14.2686 16.8551 14.4354 17.1012C15.133 18.132 18.8834 18.4941 21.1217 17.4953C19.4697 15.1805 16.1236 14.05 15.1967 14.5031C14.8896 14.6531 14.6576 14.9289 14.499 15.25C13.5869 15.0867 12.6811 14.9652 12.0193 14.9703C9.69238 14.9875 7.91348 15.8004 6.58105 17.4558C5.27363 19.0797 4.74512 21.0965 5.05293 23.2879C5.34434 25.3637 6.37207 27.5715 8.09434 29.8605C7.8084 30.1676 7.53184 30.4707 7.26543 30.7683C3.06777 35.4656 -0.000976562 40.5027 -0.000976562 41.3375V41.7699H5.53691L5.44004 41.257C5.12754 39.6039 5.75176 37.5383 7.03105 35.9937C7.83457 35.0246 9.16465 33.918 11.2533 33.4078C13.1104 35.2203 15.4768 37.1449 18.1104 39.0019H22.226V38.5695C22.226 38.0816 21.9838 37.6547 21.5447 37.3672C20.8943 36.9422 19.8908 36.8836 18.9689 37.198C18.09 36.2191 17.5971 34.9117 17.4908 33.2875C26.4225 34.0781 34.9658 37.6851 44.6049 42.7211H49.9088L49.9783 42.3734C50.0775 41.8785 49.8076 41.2152 49.2572 40.5996H49.2596ZM6.36738 35.441C5.05723 37.0222 4.3627 39.1109 4.52207 40.9039H1.03262C1.73379 39.3871 4.52598 35.0015 8.65176 30.5719C9.25177 31.3096 9.88497 32.0197 10.5494 32.7C8.52363 33.309 7.19551 34.441 6.36699 35.441H6.36738Z" fill="#272727"/>
</svg>
