<svg width="50" height="50" viewBox="0 0 50 50" fill="none" xmlns="http://www.w3.org/2000/svg">
<g id="Logos/typescript-plain">
<path id="Vector" d="M0.78125 24.9648V49.3789H49.6094V0.550781H0.78125V24.9648ZM40.1289 23.0117C41.2984 23.2831 42.3613 23.8948 43.1836 24.7695C43.6363 25.2408 44.0298 25.7655 44.3555 26.332C44.3555 26.3945 42.2461 27.8203 40.9609 28.6172C40.9141 28.6484 40.7266 28.4453 40.5195 28.1367C40.2849 27.7319 39.9516 27.3931 39.5506 27.152C39.1496 26.9109 38.6941 26.7753 38.2266 26.7578C36.7461 26.6562 35.793 27.4336 35.8008 28.7109C35.7885 29.029 35.8614 29.3445 36.0117 29.625C36.3359 30.3008 36.9414 30.7031 38.8398 31.5234C42.3359 33.0273 43.832 34.0195 44.7617 35.4297C45.8008 36.9922 46.0312 39.5156 45.3281 41.3828C44.5469 43.4141 42.6328 44.793 39.9258 45.25C38.6894 45.3916 37.4402 45.3785 36.207 45.2109C34.3251 44.9056 32.589 44.0096 31.25 42.6523C30.8008 42.1562 29.9258 40.8633 29.9805 40.7695C30.1231 40.6637 30.2732 40.5684 30.4297 40.4844L32.2266 39.4531L33.6289 38.6406L33.9219 39.0742C34.4163 39.7815 35.0455 40.3842 35.7734 40.8477C37.3359 41.668 39.4688 41.5547 40.5234 40.6055C40.8775 40.2576 41.0985 39.7966 41.1477 39.3027C41.197 38.8088 41.0714 38.3132 40.793 37.9023C40.4023 37.3594 39.6211 36.9023 37.4375 35.9492C34.918 34.8633 33.832 34.1914 32.8398 33.1211C32.2204 32.4148 31.7631 31.5815 31.5 30.6797C31.3037 29.6494 31.2747 28.5942 31.4141 27.5547C31.9336 25.1211 33.7578 23.4219 36.4219 22.918C37.6556 22.7653 38.9054 22.7996 40.1289 23.0195V23.0117ZM28.668 25.0586V27.0586H22.3281V45.1172H17.832V27.0547H11.4766V25.1016C11.4595 24.4292 11.4778 23.7564 11.5312 23.0859C11.5547 23.0547 15.4375 23.0391 20.125 23.0469H28.6445L28.668 25.0586Z" fill="#007ACC"/>
</g>
</svg>
