<svg width="50" height="50" viewBox="0 0 50 50" fill="none" xmlns="http://www.w3.org/2000/svg">
<path fill-rule="evenodd" clip-rule="evenodd" d="M25.0367 49.3063C38.4254 49.286 49.2637 38.395 49.2637 24.9606C49.2637 11.7446 38.4754 0.860204 25.5867 0.630126C12.0508 0.388719 0.739845 11.3723 0.736329 24.6915C0.732423 38.3942 11.5223 49.3258 25.0367 49.3063ZM24.9973 1.80864C37.8516 1.80434 48.0934 12.2481 48.0895 25.3555C48.0852 37.7301 37.5719 48.0821 25.0066 48.0848C12.2055 48.0875 1.91094 37.7086 1.91133 24.8004C1.91211 12.225 12.3668 1.81294 24.9973 1.80864ZM15.2957 14.0219C15.5059 14.7223 14.9176 14.9661 14.2922 15.0149C13.634 15.0657 12.9762 15.1153 12.2121 15.1735C14.734 22.6868 17.218 30.0887 19.7609 37.6629C19.9422 37.3665 20.0168 37.2829 20.0496 37.1852C21.4457 33.0125 22.8496 28.8426 24.2102 24.6582C24.3344 24.2766 24.2727 23.7711 24.1367 23.379C23.4168 21.3008 22.5543 19.268 21.923 17.1649C21.4914 15.725 20.9188 14.7934 19.2168 14.9602C18.927 14.9887 18.573 14.3649 18.2484 14.0426C18.641 13.8082 19.0309 13.377 19.427 13.3711C22.8926 13.3179 26.359 13.3189 29.8246 13.3743C30.2223 13.3809 30.6121 13.8235 31.0047 14.0637C30.6609 14.3778 30.3645 14.8489 29.9625 14.9704C29.3176 15.1649 28.6023 15.1282 27.8305 15.1969L35.3887 37.6813C36.5336 33.8782 37.5988 30.386 38.6348 26.8848C39.559 23.7594 39.0082 20.8407 37.3371 18.0879C36.8348 17.2602 36.2176 16.4571 35.9328 15.5543C35.6094 14.5274 35.3406 13.3582 35.5121 12.3282C35.8031 10.5825 37.1426 9.71567 38.9551 9.54966C29.0363 0.344189 13.4496 3.6395 7.70625 13.6415C9.91719 13.5395 12.0281 13.4055 14.1406 13.3766C14.5398 13.3715 15.202 13.709 15.2957 14.0219ZM19.2477 44.4793C19.2016 44.6141 19.1988 44.7641 19.1625 44.9879C23.4371 46.1731 27.6293 46.0875 31.9199 44.6418L25.3652 26.6887C23.2676 32.7868 21.2559 38.6321 19.2477 44.4793ZM15.9445 43.6676L6.06914 16.5778C1.61406 25.2801 5.00313 38.5575 15.9445 43.6676ZM45.7992 26.2606C46.1125 22.1457 44.693 16.4485 43.4672 15.6649C43.3305 17.1786 43.4258 18.8625 42.9914 20.3969C41.9691 24.0122 40.7191 27.5645 39.5152 31.1266C38.2066 34.9985 36.8465 38.8528 35.5086 42.7149C41.7945 38.9887 45.2488 33.4891 45.7992 26.2606Z" fill="#494949"/>
</svg>
